<svg version="1.1" id="Layer_1" xmlns="http://www.w3.org/2000/svg" xmlns:xlink="http://www.w3.org/1999/xlink" x="0px" y="0px"
	 width="100%" viewBox="0 0 3000 3000" enable-background="new 0 0 3000 3000" xml:space="preserve">
<path fill="#FEFEFE" opacity="1.000000" stroke="none" 
	d="
M3002.000000,1092.000000 
	C3002.000000,1729.280396 3002.000000,2365.560791 3002.000000,3001.920654 
	C2002.136108,3001.920654 1002.272095,3001.920654 2.204088,3001.920654 
	C2.204088,2002.219238 2.204088,1002.438416 2.204088,2.328811 
	C1001.999939,2.328811 2002.000000,2.328811 3002.000000,2.328811 
	C3002.000000,365.061890 3002.000000,728.030945 3002.000000,1092.000000 
M2257.000000,2852.331299 
	C2342.819580,2852.331299 2428.639404,2852.331299 2514.592041,2852.331299 
	C2514.405029,2851.126221 2514.435303,2850.555908 2514.289551,2850.506348 
	C2513.354736,2850.190430 2512.351074,2850.071289 2511.424072,2849.737793 
	C2494.376221,2843.609131 2480.735596,2833.342285 2469.849609,2818.574463 
	C2445.920166,2786.111084 2419.039307,2756.204834 2388.842773,2729.376465 
	C2338.337646,2684.504639 2281.398682,2652.850830 2213.484619,2643.298828 
	C2193.353271,2640.467529 2173.156006,2638.591309 2152.995117,2640.589600 
	C2134.918457,2642.381348 2117.091064,2646.554932 2099.068848,2649.068604 
	C2083.327393,2651.263672 2067.490234,2652.874756 2051.651123,2654.222168 
	C2043.383667,2654.925049 2034.333618,2652.546875 2026.899170,2655.156494 
	C2019.859375,2657.627441 2014.474487,2664.804688 2008.347656,2669.894775 
	C2007.327026,2670.743164 2006.208496,2671.472656 2005.181396,2672.313477 
	C1962.430542,2707.310791 1918.308472,2740.409668 1870.841431,2768.830811 
	C1842.326416,2785.904785 1813.781982,2802.935059 1785.034668,2819.612549 
	C1774.424561,2825.767578 1763.250488,2830.926514 1750.978638,2833.237793 
	C1735.705200,2836.114014 1725.223877,2831.909668 1717.246338,2818.390869 
	C1713.393799,2811.861816 1710.444946,2804.745361 1707.602539,2797.687500 
	C1703.145020,2786.619873 1699.289917,2775.310303 1694.882080,2764.221924 
	C1687.208618,2744.918213 1686.066406,2725.631348 1694.031494,2706.108398 
	C1696.847046,2699.207275 1700.105469,2692.646973 1706.725342,2688.681152 
	C1718.381958,2681.698242 1729.931763,2674.466553 1742.008789,2668.281250 
	C1749.519531,2664.434814 1755.971680,2660.018799 1761.629150,2653.618652 
	C1778.139648,2634.940186 1794.507812,2616.037109 1812.279907,2598.595703 
	C1838.856689,2572.513672 1866.597412,2547.618896 1893.776001,2522.147461 
	C1895.008423,2520.992432 1895.578979,2519.131348 1895.794678,2518.755371 
	C1891.484009,2514.904297 1887.268311,2512.291992 1884.622925,2508.565430 
	C1875.599487,2495.853271 1867.636597,2482.367188 1858.283325,2469.916992 
	C1851.086792,2460.337646 1846.418579,2449.425781 1844.163574,2438.424316 
	C1840.593750,2421.007324 1838.885254,2402.979248 1838.556885,2385.169678 
	C1837.464111,2325.935791 1838.825684,2266.699463 1836.020142,2207.440186 
	C1833.645752,2157.287598 1835.403076,2106.993408 1840.115967,2056.946777 
	C1841.570190,2041.504395 1845.257690,2026.244385 1848.374390,2010.993164 
	C1852.802124,1989.326660 1853.871216,1966.738159 1865.518677,1946.974854 
	C1866.674072,1945.014648 1867.190674,1942.633423 1867.775879,1940.388184 
	C1872.585571,1921.934570 1880.813843,1904.894165 1889.298584,1887.950195 
	C1897.037109,1872.496704 1906.024170,1857.503662 1912.073608,1841.410278 
	C1919.996704,1820.331909 1926.248169,1798.549438 1931.989990,1776.746216 
	C1938.995361,1750.144653 1943.300415,1722.771606 1951.326904,1696.512695 
	C1964.725098,1652.679932 1980.242432,1609.497314 1994.674683,1565.976807 
	C1999.999878,1549.918213 2005.038452,1533.753540 2009.729980,1517.499268 
	C2013.868896,1503.160645 2016.879761,1488.489014 2021.220459,1474.217529 
	C2027.396118,1453.913086 2035.488892,1434.133179 2040.693237,1413.604736 
	C2050.162842,1376.251831 2057.569336,1338.450439 2055.703613,1299.511230 
	C2055.406982,1293.320923 2055.662109,1287.104126 2055.662109,1280.139526 
	C2059.371582,1281.556885 2062.051025,1282.580566 2065.371826,1283.849365 
	C2065.495361,1281.518921 2065.625977,1279.960449 2065.654053,1278.400146 
	C2066.329834,1240.810425 2066.347412,1203.194458 2067.870605,1165.639282 
	C2069.052002,1136.507324 2072.037842,1107.445312 2074.452881,1078.371460 
	C2074.683350,1075.595459 2076.280762,1072.800537 2077.707520,1070.276489 
	C2098.074707,1034.241211 2111.474854,996.050659 2113.618408,954.390442 
	C2115.051025,926.547302 2116.920166,898.708801 2117.531250,870.844910 
	C2118.654785,819.599121 2119.018555,768.336426 2119.643066,717.080078 
	C2119.773193,706.415344 2119.467773,695.742676 2119.741455,685.083374 
	C2119.885254,679.478210 2120.823975,673.891357 2121.446533,668.300964 
	C2122.142334,662.048523 2124.259033,655.576721 2123.281982,649.605591 
	C2121.881348,641.047180 2122.830566,633.335938 2125.208252,625.181335 
	C2126.906982,619.355408 2128.857666,613.367920 2126.673828,606.708923 
	C2122.552490,594.142822 2118.177246,581.464905 2116.037598,568.482483 
	C2110.599609,535.486206 2106.034180,502.335876 2101.685791,469.173004 
	C2096.899170,432.669983 2093.425049,396.037109 2094.369873,359.137695 
	C2094.453857,355.856506 2094.382080,352.302307 2095.587402,349.370239 
	C2098.953369,341.183044 2096.801514,333.740875 2093.414062,326.398712 
	C2091.188965,321.576324 2088.514404,316.961212 2086.037842,312.255096 
	C2078.917969,298.724640 2071.547363,285.266510 2069.143799,269.889709 
	C2067.969238,262.375244 2066.814941,254.797943 2066.529541,247.216034 
	C2065.834961,228.753769 2069.087646,211.594437 2083.339111,197.992981 
	C2093.102295,188.674881 2104.140137,181.475037 2116.286621,175.886017 
	C2124.828125,171.955811 2133.552002,168.421646 2143.958984,163.952896 
	C1717.978394,163.952896 1294.015259,163.952820 870.052246,163.970123 
	C869.823669,163.970139 869.449890,164.193817 869.399780,164.381378 
	C869.320496,164.678131 869.458130,165.032806 869.516541,165.453857 
	C887.239746,171.981049 904.666565,179.186035 919.762634,191.000092 
	C932.232544,200.758972 941.935852,212.574799 943.499207,228.776306 
	C945.863586,253.279327 943.341125,277.215881 931.562805,299.463074 
	C927.207092,307.690338 922.856750,315.921631 918.622742,324.211731 
	C914.606812,332.074951 911.628723,340.047394 915.605164,349.009979 
	C916.498535,351.023682 916.287537,353.596893 916.313110,355.915527 
	C916.620728,383.839325 915.412781,411.643127 912.603516,439.484680 
	C908.776611,477.411682 904.472534,515.249023 897.774353,552.762817 
	C894.809448,569.367615 891.094421,585.922668 886.300598,602.079102 
	C884.109253,609.464417 883.470154,615.946472 885.181030,623.354431 
	C886.955872,631.039368 887.501892,639.028870 888.291748,646.914490 
	C889.017883,654.163330 889.378845,661.449646 889.854980,668.722412 
	C890.482788,678.313049 891.446289,687.900452 891.604248,697.500122 
	C892.409180,746.420593 892.685425,795.351624 893.770996,844.265015 
	C894.581726,880.790894 896.150330,917.304199 897.792236,953.804626 
	C898.296631,965.017151 899.391663,976.318420 901.544922,987.319031 
	C907.273438,1016.584595 918.243896,1043.957642 933.098145,1069.810669 
	C934.683472,1072.569702 935.910645,1075.828979 936.237366,1078.967041 
	C937.814819,1094.118896 939.378418,1109.287598 940.296692,1124.489624 
	C942.296631,1157.599487 944.513489,1190.715820 945.457703,1223.863281 
	C946.110291,1246.773315 944.909119,1269.743164 944.296814,1292.679932 
	C943.844910,1309.605713 942.909119,1326.518188 942.425903,1343.443481 
	C942.334106,1346.657471 942.795654,1350.118286 943.948425,1353.099243 
	C951.494019,1372.611328 959.539673,1391.932007 966.960510,1411.490112 
	C976.375061,1436.302734 986.948669,1460.825806 994.212708,1486.275635 
	C1014.804382,1558.419922 1035.402954,1630.541260 1058.691772,1701.876465 
	C1065.482666,1722.677490 1072.118408,1743.508057 1076.384521,1765.099976 
	C1079.720215,1781.982666 1084.707031,1798.585693 1089.723389,1815.080933 
	C1102.138916,1855.906616 1119.558960,1894.668335 1138.991699,1932.587524 
	C1148.085327,1950.332275 1156.033569,1968.515625 1158.508301,1988.656494 
	C1159.556396,1997.186646 1161.697754,2005.577637 1163.179565,2014.060303 
	C1169.687988,2051.315186 1174.127197,2088.874756 1175.376221,2126.620361 
	C1176.376343,2156.847168 1175.146606,2187.170410 1174.233032,2217.430664 
	C1173.411743,2244.629150 1171.304321,2271.788086 1170.434204,2298.985840 
	C1169.370483,2332.229736 1169.128296,2365.499268 1168.272339,2398.750977 
	C1167.965210,2410.683350 1167.493408,2422.667725 1166.060059,2434.502686 
	C1163.597412,2454.833252 1155.988647,2471.897705 1136.340698,2482.195801 
	C1121.526733,2489.959961 1116.484253,2504.433105 1114.907227,2519.859375 
	C1135.985474,2539.083984 1157.224121,2557.257568 1177.053589,2576.857178 
	C1199.520630,2599.063721 1221.033325,2622.266357 1242.336182,2645.606201 
	C1251.811890,2655.987793 1260.901733,2665.856445 1274.734497,2670.906982 
	C1283.647217,2674.161133 1291.590210,2680.148438 1299.838379,2685.125488 
	C1309.067749,2690.694580 1314.463745,2699.004150 1318.045654,2709.184570 
	C1324.322876,2727.024902 1323.371826,2744.396240 1316.916138,2761.811035 
	C1312.305054,2774.249512 1307.928467,2786.779541 1303.056396,2799.114502 
	C1300.499512,2805.588135 1297.517090,2811.972656 1294.001465,2817.972412 
	C1285.796753,2831.974121 1275.375854,2836.615234 1259.587646,2832.843750 
	C1251.598877,2830.935547 1243.499268,2828.424805 1236.271484,2824.623779 
	C1222.171143,2817.208740 1208.873535,2808.278320 1194.848389,2800.707275 
	C1121.401978,2761.058350 1053.679321,2713.145752 990.123169,2659.229980 
	C985.977051,2655.712891 982.148193,2654.006348 976.865417,2654.278809 
	C950.780640,2655.625000 925.179016,2652.295898 899.880249,2646.067139 
	C867.160950,2638.011963 833.973816,2638.221924 800.957031,2642.596924 
	C738.642639,2650.854004 684.375183,2677.600098 636.174805,2717.315186 
	C599.779663,2747.303223 568.321228,2781.981689 540.202209,2819.700439 
	C530.752747,2832.375977 519.090820,2841.689453 504.635559,2847.723877 
	C501.738342,2848.933350 498.783051,2850.003662 495.854553,2851.138428 
	C495.955994,2851.536133 496.057434,2851.933594 496.158875,2852.331299 
	C1082.439209,2852.331299 1668.719604,2852.331299 2257.000000,2852.331299 
M1311.392700,2722.473389 
	C1308.657593,2705.626709 1298.765015,2694.377930 1283.800781,2687.024170 
	C1276.642212,2683.506104 1269.714722,2679.478760 1262.413208,2676.301025 
	C1254.943726,2673.050293 1248.789673,2668.670654 1243.429932,2662.340332 
	C1231.410278,2648.144287 1219.077026,2634.161621 1206.123901,2620.817871 
	C1176.448730,2590.247803 1146.161011,2560.269287 1113.363770,2533.002930 
	C1106.348877,2527.170654 1102.103271,2521.298096 1105.656128,2512.001221 
	C1105.918701,2511.313721 1105.349243,2510.307861 1105.095947,2509.118164 
	C1102.380127,2510.299805 1099.687500,2510.975830 1097.585205,2512.478027 
	C1090.997803,2517.184814 1083.711670,2517.770996 1075.890259,2517.797852 
	C1057.927368,2517.859619 1040.122070,2516.442383 1022.286743,2514.461670 
	C1003.514404,2512.376465 984.605042,2511.539795 965.820435,2509.545898 
	C932.903442,2506.051758 900.001404,2502.365479 867.158875,2498.236572 
	C842.183777,2495.096924 817.274109,2491.375977 792.413391,2487.423340 
	C784.373474,2486.145020 776.580933,2483.311035 768.837769,2481.232178 
	C767.940491,2469.068848 767.365234,2458.166748 766.287170,2447.314453 
	C764.158508,2425.886963 762.406006,2404.392334 759.324463,2383.095459 
	C752.732483,2337.537842 745.034668,2292.140137 738.460449,2246.580078 
	C731.743530,2200.032227 725.530151,2153.406250 719.663147,2106.742920 
	C715.409912,2072.915039 711.618469,2039.013794 708.481506,2005.065674 
	C705.798035,1976.024170 703.944885,1946.889404 702.457092,1917.758545 
	C701.202820,1893.200073 700.606384,1868.590210 700.453125,1843.998535 
	C700.320496,1822.728760 701.177429,1801.451538 701.674316,1780.179443 
	C702.295410,1753.589966 703.046814,1727.003662 703.648926,1700.413940 
	C704.371765,1668.494019 704.914001,1636.569946 705.692810,1604.651489 
	C706.203430,1583.725342 706.861450,1562.800659 707.692017,1541.884766 
	C708.903931,1511.367188 710.037903,1480.841553 711.777588,1450.352051 
	C712.777649,1432.823730 714.455017,1415.301392 716.708374,1397.890381 
	C717.934204,1388.418701 720.603149,1379.065430 723.366516,1369.882935 
	C725.538696,1362.665161 727.488647,1362.421387 735.080017,1362.113647 
	C750.317810,1361.495972 765.689575,1361.318481 780.723145,1359.068481 
	C826.517517,1352.214844 870.617737,1338.696411 914.106445,1323.105713 
	C920.888000,1320.674561 927.524902,1317.839844 934.043579,1315.265015 
	C934.603760,1299.490112 935.471497,1284.570068 935.598328,1269.643555 
	C935.940002,1229.414429 935.925781,1189.191162 932.386963,1149.051270 
	C930.523438,1127.914062 929.358582,1106.715210 927.485168,1085.578857 
	C927.119690,1081.455444 925.340637,1077.302002 923.522644,1073.492188 
	C918.517700,1063.004272 912.566711,1052.936401 908.044617,1042.255981 
	C899.614441,1022.344971 892.267456,1001.843018 890.031067,980.285217 
	C887.228210,953.267822 885.764954,926.089966 884.449402,898.946106 
	C883.242798,874.050232 882.672607,849.111206 882.405518,824.184875 
	C881.927063,779.542969 881.982361,734.895569 881.574463,690.252563 
	C881.502014,682.329895 880.284302,674.416138 879.556702,666.501831 
	C879.194153,662.558289 878.440430,658.626648 878.392151,654.683105 
	C878.261963,644.059021 878.038086,633.660339 874.996643,623.148804 
	C873.088379,616.553955 874.010498,608.636841 875.483276,601.699524 
	C877.173340,593.738403 881.700439,586.392944 883.517151,578.442383 
	C886.465637,565.538879 888.664185,552.419495 890.377014,539.286621 
	C895.043457,503.507507 899.476440,467.695221 903.617004,431.851593 
	C905.440857,416.062805 906.886108,400.186127 907.457520,384.311737 
	C907.861511,373.090240 907.896667,361.500061 905.508667,350.643707 
	C903.526062,341.630646 903.602661,333.631409 907.064636,325.489136 
	C909.396973,320.003754 911.956787,314.559326 914.990906,309.437866 
	C927.978455,287.515686 935.527283,264.234161 934.402710,238.417480 
	C933.740295,223.211075 927.954468,210.885544 916.147644,201.238113 
	C900.962830,188.830505 883.467102,180.945572 865.063721,174.866440 
	C854.935730,171.520889 845.534180,172.437592 837.734802,180.734940 
	C830.243042,188.704956 822.671448,196.602295 815.023071,204.422211 
	C793.736267,226.186630 769.128418,243.819046 743.968994,260.659729 
	C734.034302,267.309570 727.803406,276.091492 724.099609,287.143555 
	C719.088562,302.096497 720.261414,317.221985 722.984802,332.293823 
	C726.678467,352.735718 727.496948,373.189453 723.652649,393.632080 
	C715.472778,437.130676 698.151367,476.656067 671.522400,512.076660 
	C645.989136,546.039673 615.308472,575.055359 583.797363,603.240662 
	C567.954956,617.410950 550.877991,630.278320 535.738647,645.139954 
	C510.483185,669.931885 489.347809,698.118652 472.129547,729.141113 
	C466.662018,738.992004 461.019073,748.745728 455.570770,758.607056 
	C450.937103,766.993896 445.557770,775.117004 442.104675,783.978760 
	C433.404297,806.307007 433.062836,830.061707 432.546753,853.579468 
	C432.343658,862.832458 430.890228,870.877258 425.823669,878.895935 
	C414.417053,896.948914 407.319183,916.573059 409.777496,938.410095 
	C410.773926,947.261475 412.676849,956.051270 414.729828,964.736084 
	C421.967560,995.354797 420.728790,1024.156006 397.857635,1048.692993 
	C390.988098,1056.062866 391.600830,1064.227905 395.630615,1072.657104 
	C399.357788,1080.453125 403.096985,1088.243652 406.830658,1096.036743 
	C418.494171,1120.381348 431.296906,1143.772095 450.530731,1163.445923 
	C467.490906,1180.794067 481.961761,1200.371704 494.489319,1221.292236 
	C497.169189,1225.767456 498.518524,1230.130371 498.412903,1235.349731 
	C498.002045,1255.659546 497.544434,1275.978638 497.735626,1296.288330 
	C498.186798,1344.209961 498.820648,1392.131592 499.743652,1440.046387 
	C500.191437,1463.292725 501.446045,1486.523926 502.373291,1509.760376 
	C502.425446,1511.067871 502.947113,1512.352539 503.041382,1513.662842 
	C504.230621,1530.193604 504.939240,1546.249390 499.302216,1562.746094 
	C489.873627,1590.338989 482.286438,1618.612183 475.072144,1646.891968 
	C470.495453,1664.832275 468.584198,1683.437500 464.441956,1701.507080 
	C456.285950,1737.085938 446.732788,1772.352905 439.000641,1808.018433 
	C429.238983,1853.045410 420.614899,1898.321167 411.721985,1943.533203 
	C408.784637,1958.466797 407.143066,1973.671387 403.831604,1988.511597 
	C398.631378,2011.816040 391.899139,2034.785034 386.932220,2058.133545 
	C379.122437,2094.845459 374.251282,2131.998535 374.401215,2169.626221 
	C374.488525,2191.531982 375.329285,2213.433350 375.637329,2235.339600 
	C375.983948,2259.984863 376.152313,2284.633057 376.323334,2309.280273 
	C376.455719,2328.357178 371.712524,2345.944092 360.724304,2361.812744 
	C352.089905,2374.282227 347.037018,2388.388428 344.328125,2403.206055 
	C342.485413,2413.285645 340.857910,2423.523193 340.530487,2433.734619 
	C339.989563,2450.602539 340.199066,2467.357910 345.348297,2483.956543 
	C352.130035,2505.818115 356.858856,2528.339111 357.526611,2551.314453 
	C358.203217,2574.592041 357.816559,2597.906738 357.501404,2621.199951 
	C357.456055,2624.552734 356.086731,2628.742676 353.815033,2631.059814 
	C344.615936,2640.444824 341.709595,2652.177246 340.011322,2664.469238 
	C338.653564,2674.296631 335.287476,2682.000244 324.538452,2685.212158 
	C316.394775,2687.645508 312.305939,2694.610840 312.544098,2702.853516 
	C312.952942,2717.002930 315.356598,2730.632324 328.682587,2739.274170 
	C330.894409,2740.708496 332.814575,2742.602051 334.827057,2744.332764 
	C373.310028,2777.426758 411.059418,2811.437500 456.187531,2835.790039 
	C468.856812,2842.627197 481.270325,2845.179688 495.121857,2840.403320 
	C511.059906,2834.907471 523.437622,2825.261230 533.537537,2811.709473 
	C564.855835,2769.687988 600.067688,2731.338379 642.020630,2699.544922 
	C676.804932,2673.183594 714.661743,2652.907715 756.913269,2641.313232 
	C784.584351,2633.719238 812.739929,2630.178711 841.479370,2630.190674 
	C862.500061,2630.199463 883.332764,2631.379639 903.703674,2636.555420 
	C927.724731,2642.658447 952.051880,2645.955811 976.718872,2644.035400 
	C985.807678,2643.327881 991.487915,2646.788818 997.791260,2652.141846 
	C1038.882446,2687.037354 1081.465698,2720.030518 1127.210327,2748.635254 
	C1159.326782,2768.718506 1192.119629,2787.723145 1224.705200,2807.050049 
	C1231.556274,2811.113525 1238.560303,2815.144287 1245.944214,2818.042969 
	C1269.997437,2827.486328 1279.248535,2829.746826 1291.912964,2799.372803 
	C1297.652832,2785.605957 1302.516113,2771.472412 1307.717041,2757.482666 
	C1311.718262,2746.720215 1313.599731,2735.682861 1311.392700,2722.473389 
M2513.664062,1346.984253 
	C2513.220703,1324.713379 2512.665039,1302.444092 2512.372314,1280.171265 
	C2512.170654,1264.842407 2512.080322,1249.501831 2512.503418,1234.181885 
	C2512.615479,1230.124634 2514.067871,1225.680908 2516.169922,1222.172485 
	C2527.298584,1203.598267 2539.608887,1185.770508 2554.593506,1170.094727 
	C2573.840576,1149.959595 2589.809082,1127.741455 2601.197266,1102.258789 
	C2605.129150,1093.461060 2609.188232,1084.686035 2613.802246,1076.235596 
	C2620.177002,1064.560791 2619.693359,1054.100708 2610.002197,1044.503662 
	C2608.598389,1043.113403 2607.501221,1041.409790 2606.287354,1039.831787 
	C2596.828125,1027.534912 2592.619141,1013.535583 2592.282715,998.114624 
	C2591.953125,982.997620 2594.941162,968.424316 2598.889160,953.999878 
	C2602.188965,941.943298 2602.418701,929.891357 2600.528809,917.577271 
	C2598.099121,901.746277 2590.764160,888.021851 2582.791992,874.579834 
	C2579.819580,869.568665 2578.263672,864.706787 2578.156250,858.749451 
	C2577.886963,843.827271 2577.280762,828.864868 2575.783691,814.022034 
	C2573.618896,792.557129 2567.374023,772.452148 2553.119629,755.509705 
	C2551.019775,753.013855 2549.658203,749.849915 2548.185303,746.880737 
	C2536.471436,723.269043 2522.808105,700.864441 2506.225830,680.356567 
	C2494.543945,665.908875 2483.087646,651.278687 2468.772217,639.120850 
	C2432.021484,607.909119 2395.467285,576.487732 2363.031982,540.598694 
	C2332.317627,506.613556 2308.276855,468.912537 2295.023682,424.675385 
	C2286.356934,395.747467 2281.581299,366.685120 2287.559326,336.549408 
	C2288.973389,329.421600 2289.756104,322.099854 2290.068359,314.834656 
	C2291.084717,291.193939 2285.104980,270.949005 2262.999756,257.971313 
	C2253.577637,252.439743 2244.926514,245.531464 2236.209961,238.875214 
	C2219.569824,226.168152 2203.080811,213.312302 2189.455322,197.137451 
	C2183.706543,190.313095 2177.033447,184.205200 2170.360107,178.241608 
	C2165.222900,173.650681 2158.981934,171.975113 2151.958984,173.634109 
	C2131.958984,178.358658 2113.886230,187.077454 2097.319336,199.168701 
	C2085.040039,208.130814 2078.017822,220.161713 2076.700439,235.121735 
	C2076.097412,241.969589 2077.428467,248.971283 2077.635498,255.910553 
	C2078.019043,268.768005 2081.453613,280.766022 2087.338623,292.131073 
	C2092.229980,301.576813 2097.395996,310.894653 2101.902100,320.521179 
	C2106.435059,330.205353 2110.008789,339.998566 2105.064941,351.061951 
	C2103.274658,355.068634 2103.760498,360.222351 2103.715332,364.857666 
	C2103.426758,394.439606 2105.822021,423.858887 2109.630615,453.164154 
	C2114.410156,489.944000 2119.050293,526.748230 2124.485107,563.433105 
	C2126.219482,575.140991 2128.989014,587.077698 2133.731689,597.830566 
	C2137.206543,605.709473 2138.507568,612.740417 2136.584717,620.726562 
	C2135.267334,626.197571 2133.021973,631.567932 2132.556885,637.098206 
	C2131.221680,652.970581 2130.022461,668.892639 2129.771973,684.810913 
	C2129.033691,731.742798 2128.778809,778.682373 2128.335693,825.618896 
	C2128.326172,826.618713 2128.352783,827.619629 2128.315918,828.618347 
	C2126.992920,864.463135 2125.801025,900.313477 2124.270020,936.149414 
	C2123.633301,951.056213 2123.441650,966.127563 2120.994873,980.781311 
	C2115.879639,1011.418640 2105.908936,1040.571045 2090.423096,1067.702026 
	C2087.827637,1072.249634 2084.855225,1077.176636 2084.284668,1082.182495 
	C2081.846680,1103.566162 2080.006348,1125.027466 2078.416504,1146.495239 
	C2077.289307,1161.719116 2076.447266,1176.994141 2076.297852,1192.254272 
	C2075.981201,1224.548340 2076.201416,1256.847778 2076.201416,1290.017578 
	C2091.616943,1297.500000 2107.569336,1304.916382 2123.230225,1312.904053 
	C2175.946777,1339.792236 2228.519775,1366.962036 2281.255859,1393.812012 
	C2289.093262,1397.802368 2294.826416,1403.482788 2298.254395,1411.290405 
	C2303.185059,1422.521484 2308.452881,1433.720947 2312.037109,1445.406250 
	C2327.232666,1494.949463 2332.461670,1546.106689 2333.353760,1597.575684 
	C2333.978027,1633.599976 2337.429932,1669.165039 2344.718262,1704.277466 
	C2356.511475,1761.091919 2366.318115,1818.223755 2373.538330,1875.765625 
	C2378.938477,1918.801025 2383.568359,1961.953369 2387.450928,2005.151733 
	C2390.063232,2034.218872 2391.781738,2063.445557 2392.106445,2092.620605 
	C2392.635742,2140.148926 2393.607666,2187.722656 2388.459473,2235.158936 
	C2385.594482,2261.557861 2382.058838,2287.792969 2375.772461,2313.603516 
	C2370.010986,2337.259033 2362.132812,2360.110107 2349.667969,2381.197754 
	C2341.445557,2395.107666 2330.045410,2401.930420 2313.284668,2400.116211 
	C2299.783447,2398.655029 2286.106201,2398.663818 2272.499268,2398.386230 
	C2259.506104,2398.121338 2246.500732,2398.154541 2233.505859,2398.378174 
	C2220.564209,2398.600342 2207.627930,2399.190918 2194.692871,2399.709473 
	C2193.121582,2399.772461 2190.488770,2400.002930 2190.197754,2400.816895 
	C2188.811523,2404.695557 2185.803711,2404.036133 2182.850342,2404.382568 
	C2151.881348,2408.014404 2121.193115,2413.085449 2091.127686,2421.631836 
	C2031.941284,2438.456055 1977.473511,2464.563965 1929.599854,2503.571045 
	C1920.622070,2510.885986 1912.618652,2519.385742 1903.996948,2527.151855 
	C1886.223999,2543.160645 1867.843262,2558.528809 1850.607300,2575.092041 
	C1821.091919,2603.456055 1792.331177,2632.610596 1766.024170,2664.036865 
	C1761.559692,2669.370117 1756.094727,2672.536377 1750.171387,2675.669189 
	C1738.166504,2682.019043 1726.355103,2688.750977 1714.637817,2695.622314 
	C1708.676758,2699.118164 1705.605225,2704.882812 1703.009521,2711.271973 
	C1696.194458,2728.046631 1697.760376,2744.277344 1704.405396,2760.610352 
	C1708.525391,2770.737305 1711.768311,2781.226562 1716.027832,2791.289551 
	C1719.631104,2799.802490 1723.594849,2808.262207 1728.395996,2816.137939 
	C1732.513672,2822.892822 1739.306274,2825.922363 1747.354492,2823.612793 
	C1754.341309,2821.607666 1761.593628,2819.852539 1767.967285,2816.527344 
	C1781.209473,2809.620117 1794.017090,2801.863281 1806.877563,2794.243408 
	C1835.182007,2777.471680 1863.814819,2761.207764 1891.574219,2743.572754 
	C1936.539062,2715.008057 1978.222168,2681.940918 2018.819092,2647.527100 
	C2022.215576,2644.647949 2025.159058,2643.982422 2029.444824,2644.117432 
	C2050.049316,2644.767822 2070.597168,2644.590332 2090.972900,2640.264648 
	C2108.127197,2636.622803 2125.489014,2633.954834 2142.769775,2630.917236 
	C2146.997559,2630.173828 2151.369629,2630.062988 2155.502441,2628.992920 
	C2200.804932,2617.264648 2242.178955,2597.536377 2278.756104,2568.108643 
	C2279.471924,2567.532715 2280.521240,2567.371094 2281.978027,2566.792480 
	C2282.725830,2567.739014 2283.537598,2568.803711 2284.389648,2569.834229 
	C2285.356934,2571.004395 2286.360352,2572.144531 2287.671875,2573.675293 
	C2258.467529,2598.700928 2225.700439,2615.770752 2189.066650,2629.469727 
	C2193.375000,2630.438477 2196.081543,2631.434082 2198.839600,2631.606445 
	C2222.165039,2633.064697 2244.754395,2638.135254 2266.934326,2645.242676 
	C2322.617432,2663.086182 2369.193359,2695.527832 2410.944580,2735.544434 
	C2436.207520,2759.757812 2458.905762,2786.285156 2479.628418,2814.451416 
	C2489.307861,2827.607910 2502.031006,2835.888916 2517.274902,2840.829590 
	C2527.394043,2844.108887 2537.559814,2844.340576 2547.165039,2839.557373 
	C2558.414795,2833.955078 2570.100098,2828.753906 2580.244873,2821.490723 
	C2616.468750,2795.556641 2650.814941,2767.233887 2684.096191,2737.591797 
	C2693.468018,2729.244385 2697.118408,2719.569336 2698.024902,2707.264648 
	C2698.864746,2695.858154 2695.326416,2687.974365 2684.017822,2684.148193 
	C2676.865479,2681.727783 2673.345703,2676.689697 2672.022217,2669.648193 
	C2671.410645,2666.394531 2670.760498,2663.146240 2670.235596,2659.878174 
	C2668.573975,2649.536621 2665.295654,2640.072998 2657.960693,2632.076660 
	C2655.535645,2629.432617 2654.179932,2625.098145 2653.831299,2621.395996 
	C2652.899414,2611.501221 2652.632812,2601.533936 2652.363037,2591.588623 
	C2651.523438,2560.596924 2653.401611,2529.820801 2661.641846,2499.788574 
	C2667.201172,2479.527832 2671.461182,2459.321289 2670.506592,2438.028564 
	C2669.220459,2409.354736 2664.616699,2381.783691 2647.832764,2357.743164 
	C2637.395752,2342.794189 2634.854980,2325.841064 2634.537842,2308.569580 
	C2634.135010,2286.645508 2635.588379,2264.693848 2635.557861,2242.755127 
	C2635.525879,2219.551025 2638.447021,2196.416260 2636.454102,2173.154785 
	C2635.151611,2157.952881 2635.257812,2142.635498 2634.277832,2127.399414 
	C2632.636475,2101.876953 2627.960938,2076.792969 2622.785645,2051.784668 
	C2615.268311,2015.459961 2604.498535,1979.946899 2599.184570,1943.007690 
	C2591.489990,1889.522583 2579.228271,1836.814819 2566.582275,1784.252563 
	C2558.359131,1750.074707 2549.345703,1716.011841 2543.035889,1681.468506 
	C2535.673340,1641.164185 2524.818604,1601.937500 2512.070801,1563.151855 
	C2507.975830,1550.692383 2505.900146,1538.662354 2507.285400,1525.235229 
	C2509.904053,1499.854980 2510.733398,1474.261475 2511.562256,1448.732422 
	C2512.641602,1415.492432 2512.996826,1382.228760 2513.664062,1346.984253 
M2308.241455,432.559967 
	C2309.850342,436.922516 2311.310303,441.346954 2313.091553,445.637939 
	C2330.084717,486.573090 2356.586182,521.014221 2387.683838,551.899719 
	C2409.131104,573.200928 2431.938965,593.148438 2454.429199,613.377991 
	C2468.727295,626.238892 2483.498779,638.442810 2496.742432,652.577637 
	C2528.065186,686.008606 2548.216553,726.681091 2571.682861,765.189331 
	C2583.936523,785.297913 2586.535400,808.406067 2587.434570,831.332581 
	C2588.193359,850.677551 2588.016357,869.846008 2600.759766,886.107971 
	C2601.164795,886.624817 2601.449463,887.249512 2601.722168,887.854492 
	C2610.229004,906.729797 2614.322266,926.264099 2610.377930,946.952759 
	C2608.021973,959.310608 2605.222656,971.593872 2603.221680,984.007202 
	C2600.183350,1002.855469 2603.355713,1020.358154 2615.928711,1035.469360 
	C2618.475830,1038.530884 2620.945312,1041.685547 2623.154297,1044.994995 
	C2628.454102,1052.936646 2630.093750,1061.463867 2626.548340,1070.608643 
	C2624.753662,1075.237793 2623.046387,1079.912964 2620.986328,1084.424072 
	C2617.398438,1092.280884 2613.663818,1100.074463 2609.821289,1107.810425 
	C2599.453125,1128.685181 2588.329346,1148.884521 2571.831055,1165.977417 
	C2555.215820,1183.191528 2540.482666,1202.117310 2527.736084,1222.500854 
	C2524.116699,1228.288574 2521.895752,1233.949341 2522.183105,1241.061279 
	C2523.041504,1262.319824 2523.570312,1283.605957 2523.565430,1304.881104 
	C2523.560303,1326.823120 2522.798096,1348.765381 2522.329102,1370.706665 
	C2521.682129,1400.964233 2521.133545,1431.224854 2520.280273,1461.476685 
	C2519.803223,1478.399536 2518.808350,1495.308228 2518.018799,1512.221924 
	C2517.770996,1517.528809 2517.851562,1522.897217 2517.035156,1528.120728 
	C2515.776611,1536.173706 2516.490967,1543.766113 2518.875977,1551.621460 
	C2527.839355,1581.148193 2536.937256,1610.660034 2544.751465,1640.500244 
	C2549.439697,1658.404175 2551.264160,1677.038940 2555.395752,1695.112061 
	C2563.012207,1728.427002 2571.785889,1761.478149 2579.324707,1794.809570 
	C2587.445068,1830.712158 2595.093506,1866.733032 2602.197998,1902.849854 
	C2606.928223,1926.896240 2609.706299,1951.329834 2614.548828,1975.350098 
	C2618.541992,1995.158936 2624.585449,2014.544800 2629.189209,2034.242188 
	C2640.479248,2082.547852 2647.570068,2131.381836 2646.319580,2181.161133 
	C2645.726807,2204.753906 2644.791016,2228.340088 2644.398926,2251.935547 
	C2644.078369,2271.228027 2643.884277,2290.543457 2644.476074,2309.822998 
	C2644.946777,2325.155273 2647.312988,2340.154053 2657.079590,2353.066650 
	C2660.841797,2358.040527 2663.492432,2363.918701 2666.241699,2369.582764 
	C2676.766602,2391.264893 2679.645508,2414.566650 2680.314453,2438.279785 
	C2680.832031,2456.613525 2679.403809,2474.587158 2674.013672,2492.406982 
	C2665.020508,2522.139648 2661.329834,2552.748047 2662.341553,2583.853271 
	C2662.730225,2595.796875 2663.109375,2607.743408 2663.776367,2619.672852 
	C2663.893066,2621.761719 2664.980957,2624.151611 2666.367920,2625.755859 
	C2674.492920,2635.152588 2678.343262,2646.266357 2680.159668,2658.299316 
	C2680.653076,2661.567139 2680.825684,2665.037354 2682.124023,2667.983154 
	C2683.228027,2670.486572 2685.331299,2673.387207 2687.703857,2674.340332 
	C2695.563965,2677.497314 2702.062012,2682.114014 2707.238525,2690.521729 
	C2707.238525,1847.530151 2707.238525,1006.101868 2707.238525,164.272369 
	C2527.815186,164.272369 2348.821533,164.272369 2167.903076,164.272369 
	C2181.451172,172.210281 2190.037354,182.745514 2199.200928,192.675003 
	C2220.808105,216.088577 2246.428955,234.596725 2272.728516,252.172058 
	C2286.880127,261.629486 2294.875977,274.624084 2298.330566,290.934326 
	C2301.772705,307.186462 2299.452881,323.218628 2297.160400,339.344391 
	C2295.718018,349.492676 2293.997803,359.855225 2294.608887,369.988586 
	C2295.870361,390.905945 2300.606689,411.292328 2308.241455,432.559967 
M303.666962,520.999878 
	C303.666962,1243.374390 303.666962,1965.748779 303.666962,2687.689453 
	C309.660492,2683.473389 314.772400,2678.776123 320.769165,2675.969971 
	C326.710388,2673.189453 329.275787,2669.294189 330.152466,2663.185791 
	C331.469421,2654.009277 331.737976,2643.954590 337.789551,2636.712158 
	C347.042175,2625.638916 347.557495,2613.250488 348.042603,2599.826172 
	C349.273224,2565.773438 348.016876,2532.114014 338.861176,2499.060547 
	C336.207245,2489.479248 332.782806,2479.861084 331.986298,2470.074463 
	C330.810120,2455.623291 331.460327,2441.002686 331.706635,2426.460449 
	C332.161774,2399.591064 339.766357,2374.867920 354.272491,2352.183105 
	C357.825256,2346.627441 362.134735,2340.672119 363.017517,2334.462646 
	C365.437439,2317.441650 367.294647,2300.192383 367.369995,2283.024658 
	C367.458649,2262.834229 364.683838,2242.641602 364.501068,2222.437744 
	C364.185486,2187.556641 363.654999,2152.680908 367.444336,2117.835449 
	C371.003754,2085.104736 377.453125,2052.998291 384.820923,2021.012329 
	C388.984283,2002.937988 393.859650,1985.017578 397.615601,1966.862549 
	C400.566406,1952.599487 402.047180,1938.039307 404.605591,1923.686768 
	C415.843170,1860.645142 430.266388,1798.296387 445.706909,1736.172852 
	C449.147919,1722.328125 453.581085,1708.630615 455.741516,1694.586060 
	C461.911438,1654.476196 471.433502,1615.240601 483.913727,1576.673462 
	C489.825653,1558.404175 497.308777,1540.413818 493.701019,1520.460327 
	C492.997009,1516.566650 492.560944,1512.594727 492.379395,1508.641479 
	C490.978241,1478.133911 489.336670,1447.631958 488.437469,1417.108643 
	C487.702026,1392.145752 487.688446,1367.155884 487.711121,1342.178101 
	C487.742218,1307.868286 487.997101,1273.557373 488.440186,1239.250488 
	C488.517059,1233.301758 487.333313,1228.189453 483.814087,1223.440552 
	C474.321899,1210.630981 465.323120,1197.434326 455.397644,1184.973511 
	C445.680634,1172.774536 434.195770,1161.925659 425.027710,1149.359985 
	C408.088135,1126.143066 397.119690,1099.548950 385.183655,1073.596069 
	C380.227783,1062.820312 381.773834,1052.240112 389.408264,1042.797485 
	C392.329315,1039.184570 395.087677,1035.436157 397.829254,1031.682983 
	C404.903412,1021.998535 408.322296,1011.222656 408.423584,999.141724 
	C408.538788,985.395813 406.418640,972.141785 402.918701,958.853027 
	C397.468964,938.160889 397.491302,917.324158 405.650116,897.194397 
	C409.378906,887.994629 414.320160,879.289795 418.608459,870.311279 
	C420.013702,867.369080 421.915466,864.339539 422.172302,861.232727 
	C423.018860,850.992554 423.174622,840.696655 423.671417,830.425842 
	C424.853790,805.981750 428.802277,782.234070 441.515503,760.742371 
	C448.438507,749.039062 455.549652,737.444336 462.314606,725.650696 
	C484.624908,686.755859 511.251343,651.533325 545.851501,622.439148 
	C580.960693,592.917114 615.546082,562.736816 645.639771,527.858582 
	C674.911133,493.933472 697.198059,456.282532 709.021301,412.689850 
	C715.994446,386.979828 718.319153,361.235077 713.471741,334.922760 
	C711.317322,323.227966 710.341553,311.518677 711.499329,299.492859 
	C713.511963,278.587006 722.380554,262.616119 740.192993,250.840561 
	C765.727600,233.959961 790.404175,215.819260 811.328857,193.173965 
	C820.656921,183.078857 829.350830,172.346405 842.920837,164.385712 
	C661.894531,164.385712 482.908997,164.385712 303.666962,164.385712 
	C303.666962,283.069427 303.666962,401.034576 303.666962,520.999878 
M2707.678467,2737.152344 
	C2707.521729,2731.762451 2707.366211,2726.372559 2707.186523,2720.983398 
	C2707.185303,2720.949463 2706.849854,2720.926758 2707.420654,2721.015869 
	C2706.243408,2728.744873 2701.145020,2733.947510 2696.216553,2739.202393 
	C2679.320801,2757.217285 2660.019043,2772.503174 2640.696045,2787.731934 
	C2611.077637,2811.073975 2581.571289,2834.612549 2545.513428,2851.643066 
	C2600.636475,2851.643066 2653.884277,2851.643066 2707.678467,2851.643066 
	C2707.678467,2813.662598 2707.678467,2776.384033 2707.678467,2737.152344 
M335.003937,2852.338379 
	C377.962952,2852.338379 420.921936,2852.338379 463.880951,2852.338379 
	C425.501801,2834.156250 329.957550,2759.916748 304.372070,2726.747314 
	C304.372070,2768.927002 304.372070,2810.496338 304.372070,2852.338379 
	C314.389496,2852.338379 323.697266,2852.338379 335.003937,2852.338379 
z"/>
<path fill="#000000" opacity="1.000000" stroke="none" 
	d="
M2256.000000,2852.331299 
	C1668.719604,2852.331299 1082.439209,2852.331299 496.158875,2852.331299 
	C496.057434,2851.933594 495.955994,2851.536133 495.854553,2851.138428 
	C498.783051,2850.003662 501.738342,2848.933350 504.635559,2847.723877 
	C519.090820,2841.689453 530.752747,2832.375977 540.202209,2819.700439 
	C568.321228,2781.981689 599.779663,2747.303223 636.174805,2717.315186 
	C684.375183,2677.600098 738.642639,2650.854004 800.957031,2642.596924 
	C833.973816,2638.221924 867.160950,2638.011963 899.880249,2646.067139 
	C925.179016,2652.295898 950.780640,2655.625000 976.865417,2654.278809 
	C982.148193,2654.006348 985.977051,2655.712891 990.123169,2659.229980 
	C1053.679321,2713.145752 1121.401978,2761.058350 1194.848389,2800.707275 
	C1208.873535,2808.278320 1222.171143,2817.208740 1236.271484,2824.623779 
	C1243.499268,2828.424805 1251.598877,2830.935547 1259.587646,2832.843750 
	C1275.375854,2836.615234 1285.796753,2831.974121 1294.001465,2817.972412 
	C1297.517090,2811.972656 1300.499512,2805.588135 1303.056396,2799.114502 
	C1307.928467,2786.779541 1312.305054,2774.249512 1316.916138,2761.811035 
	C1323.371826,2744.396240 1324.322876,2727.024902 1318.045654,2709.184570 
	C1314.463745,2699.004150 1309.067749,2690.694580 1299.838379,2685.125488 
	C1291.590210,2680.148438 1283.647217,2674.161133 1274.734497,2670.906982 
	C1260.901733,2665.856445 1251.811890,2655.987793 1242.336182,2645.606201 
	C1221.033325,2622.266357 1199.520630,2599.063721 1177.053589,2576.857178 
	C1157.224121,2557.257568 1135.985474,2539.083984 1114.907227,2519.859375 
	C1116.484253,2504.433105 1121.526733,2489.959961 1136.340698,2482.195801 
	C1155.988647,2471.897705 1163.597412,2454.833252 1166.060059,2434.502686 
	C1167.493408,2422.667725 1167.965210,2410.683350 1168.272339,2398.750977 
	C1169.128296,2365.499268 1169.370483,2332.229736 1170.434204,2298.985840 
	C1171.304321,2271.788086 1173.411743,2244.629150 1174.233032,2217.430664 
	C1175.146606,2187.170410 1176.376343,2156.847168 1175.376221,2126.620361 
	C1174.127197,2088.874756 1169.687988,2051.315186 1163.179565,2014.060303 
	C1161.697754,2005.577637 1159.556396,1997.186646 1158.508301,1988.656494 
	C1156.033569,1968.515625 1148.085327,1950.332275 1138.991699,1932.587524 
	C1119.558960,1894.668335 1102.138916,1855.906616 1089.723389,1815.080933 
	C1084.707031,1798.585693 1079.720215,1781.982666 1076.384521,1765.099976 
	C1072.118408,1743.508057 1065.482666,1722.677490 1058.691772,1701.876465 
	C1035.402954,1630.541260 1014.804382,1558.419922 994.212708,1486.275635 
	C986.948669,1460.825806 976.375061,1436.302734 966.960510,1411.490112 
	C959.539673,1391.932007 951.494019,1372.611328 943.948425,1353.099243 
	C942.795654,1350.118286 942.334106,1346.657471 942.425903,1343.443481 
	C942.909119,1326.518188 943.844910,1309.605713 944.296814,1292.679932 
	C944.909119,1269.743164 946.110291,1246.773315 945.457703,1223.863281 
	C944.513489,1190.715820 942.296631,1157.599487 940.296692,1124.489624 
	C939.378418,1109.287598 937.814819,1094.118896 936.237366,1078.967041 
	C935.910645,1075.828979 934.683472,1072.569702 933.098145,1069.810669 
	C918.243896,1043.957642 907.273438,1016.584595 901.544922,987.319031 
	C899.391663,976.318420 898.296631,965.017151 897.792236,953.804626 
	C896.150330,917.304199 894.581726,880.790894 893.770996,844.265015 
	C892.685425,795.351624 892.409180,746.420593 891.604248,697.500122 
	C891.446289,687.900452 890.482788,678.313049 889.854980,668.722412 
	C889.378845,661.449646 889.017883,654.163330 888.291748,646.914490 
	C887.501892,639.028870 886.955872,631.039368 885.181030,623.354431 
	C883.470154,615.946472 884.109253,609.464417 886.300598,602.079102 
	C891.094421,585.922668 894.809448,569.367615 897.774353,552.762817 
	C904.472534,515.249023 908.776611,477.411682 912.603516,439.484680 
	C915.412781,411.643127 916.620728,383.839325 916.313110,355.915527 
	C916.287537,353.596893 916.498535,351.023682 915.605164,349.009979 
	C911.628723,340.047394 914.606812,332.074951 918.622742,324.211731 
	C922.856750,315.921631 927.207092,307.690338 931.562805,299.463074 
	C943.341125,277.215881 945.863586,253.279327 943.499207,228.776306 
	C941.935852,212.574799 932.232544,200.758972 919.762634,191.000092 
	C904.666565,179.186035 887.239746,171.981049 869.516541,165.453857 
	C869.458130,165.032806 869.320496,164.678131 869.399780,164.381378 
	C869.449890,164.193817 869.823669,163.970139 870.052246,163.970123 
	C1294.015259,163.952820 1717.978394,163.952896 2143.958984,163.952896 
	C2133.552002,168.421646 2124.828125,171.955811 2116.286621,175.886017 
	C2104.140137,181.475037 2093.102295,188.674881 2083.339111,197.992981 
	C2069.087646,211.594437 2065.834961,228.753769 2066.529541,247.216034 
	C2066.814941,254.797943 2067.969238,262.375244 2069.143799,269.889709 
	C2071.547363,285.266510 2078.917969,298.724640 2086.037842,312.255096 
	C2088.514404,316.961212 2091.188965,321.576324 2093.414062,326.398712 
	C2096.801514,333.740875 2098.953369,341.183044 2095.587402,349.370239 
	C2094.382080,352.302307 2094.453857,355.856506 2094.369873,359.137695 
	C2093.425049,396.037109 2096.899170,432.669983 2101.685791,469.173004 
	C2106.034180,502.335876 2110.599609,535.486206 2116.037598,568.482483 
	C2118.177246,581.464905 2122.552490,594.142822 2126.673828,606.708923 
	C2128.857666,613.367920 2126.906982,619.355408 2125.208252,625.181335 
	C2122.830566,633.335938 2121.881348,641.047180 2123.281982,649.605591 
	C2124.259033,655.576721 2122.142334,662.048523 2121.446533,668.300964 
	C2120.823975,673.891357 2119.885254,679.478210 2119.741455,685.083374 
	C2119.467773,695.742676 2119.773193,706.415344 2119.643066,717.080078 
	C2119.018555,768.336426 2118.654785,819.599121 2117.531250,870.844910 
	C2116.920166,898.708801 2115.051025,926.547302 2113.618408,954.390442 
	C2111.474854,996.050659 2098.074707,1034.241211 2077.707520,1070.276489 
	C2076.280762,1072.800537 2074.683350,1075.595459 2074.452881,1078.371460 
	C2072.037842,1107.445312 2069.052002,1136.507324 2067.870605,1165.639282 
	C2066.347412,1203.194458 2066.329834,1240.810425 2065.654053,1278.400146 
	C2065.625977,1279.960449 2065.495361,1281.518921 2065.371826,1283.849365 
	C2062.051025,1282.580566 2059.371582,1281.556885 2055.662109,1280.139526 
	C2055.662109,1287.104126 2055.406982,1293.320923 2055.703613,1299.511230 
	C2057.569336,1338.450439 2050.162842,1376.251831 2040.693237,1413.604736 
	C2035.488892,1434.133179 2027.396118,1453.913086 2021.220459,1474.217529 
	C2016.879761,1488.489014 2013.868896,1503.160645 2009.729980,1517.499268 
	C2005.038452,1533.753540 1999.999878,1549.918213 1994.674683,1565.976807 
	C1980.242432,1609.497314 1964.725098,1652.679932 1951.326904,1696.512695 
	C1943.300415,1722.771606 1938.995361,1750.144653 1931.989990,1776.746216 
	C1926.248169,1798.549438 1919.996704,1820.331909 1912.073608,1841.410278 
	C1906.024170,1857.503662 1897.037109,1872.496704 1889.298584,1887.950195 
	C1880.813843,1904.894165 1872.585571,1921.934570 1867.775879,1940.388184 
	C1867.190674,1942.633423 1866.674072,1945.014648 1865.518677,1946.974854 
	C1853.871216,1966.738159 1852.802124,1989.326660 1848.374390,2010.993164 
	C1845.257690,2026.244385 1841.570190,2041.504395 1840.115967,2056.946777 
	C1835.403076,2106.993408 1833.645752,2157.287598 1836.020142,2207.440186 
	C1838.825684,2266.699463 1837.464111,2325.935791 1838.556885,2385.169678 
	C1838.885254,2402.979248 1840.593750,2421.007324 1844.163574,2438.424316 
	C1846.418579,2449.425781 1851.086792,2460.337646 1858.283325,2469.916992 
	C1867.636597,2482.367188 1875.599487,2495.853271 1884.622925,2508.565430 
	C1887.268311,2512.291992 1891.484009,2514.904297 1895.794678,2518.755371 
	C1895.578979,2519.131348 1895.008423,2520.992432 1893.776001,2522.147461 
	C1866.597412,2547.618896 1838.856689,2572.513672 1812.279907,2598.595703 
	C1794.507812,2616.037109 1778.139648,2634.940186 1761.629150,2653.618652 
	C1755.971680,2660.018799 1749.519531,2664.434814 1742.008789,2668.281250 
	C1729.931763,2674.466553 1718.381958,2681.698242 1706.725342,2688.681152 
	C1700.105469,2692.646973 1696.847046,2699.207275 1694.031494,2706.108398 
	C1686.066406,2725.631348 1687.208618,2744.918213 1694.882080,2764.221924 
	C1699.289917,2775.310303 1703.145020,2786.619873 1707.602539,2797.687500 
	C1710.444946,2804.745361 1713.393799,2811.861816 1717.246338,2818.390869 
	C1725.223877,2831.909668 1735.705200,2836.114014 1750.978638,2833.237793 
	C1763.250488,2830.926514 1774.424561,2825.767578 1785.034668,2819.612549 
	C1813.781982,2802.935059 1842.326416,2785.904785 1870.841431,2768.830811 
	C1918.308472,2740.409668 1962.430542,2707.310791 2005.181396,2672.313477 
	C2006.208496,2671.472656 2007.327026,2670.743164 2008.347656,2669.894775 
	C2014.474487,2664.804688 2019.859375,2657.627441 2026.899170,2655.156494 
	C2034.333618,2652.546875 2043.383667,2654.925049 2051.651123,2654.222168 
	C2067.490234,2652.874756 2083.327393,2651.263672 2099.068848,2649.068604 
	C2117.091064,2646.554932 2134.918457,2642.381348 2152.995117,2640.589600 
	C2173.156006,2638.591309 2193.353271,2640.467529 2213.484619,2643.298828 
	C2281.398682,2652.850830 2338.337646,2684.504639 2388.842773,2729.376465 
	C2419.039307,2756.204834 2445.920166,2786.111084 2469.849609,2818.574463 
	C2480.735596,2833.342285 2494.376221,2843.609131 2511.424072,2849.737793 
	C2512.351074,2850.071289 2513.354736,2850.190430 2514.289551,2850.506348 
	C2514.435303,2850.555908 2514.405029,2851.126221 2514.592041,2852.331299 
	C2428.639404,2852.331299 2342.819580,2852.331299 2256.000000,2852.331299 
z"/>
<path fill="#010101" opacity="1.000000" stroke="none" 
	d="
M1311.528931,2723.339111 
	C1313.599731,2735.682861 1311.718262,2746.720215 1307.717041,2757.482666 
	C1302.516113,2771.472412 1297.652832,2785.605957 1291.912964,2799.372803 
	C1279.248535,2829.746826 1269.997437,2827.486328 1245.944214,2818.042969 
	C1238.560303,2815.144287 1231.556274,2811.113525 1224.705200,2807.050049 
	C1192.119629,2787.723145 1159.326782,2768.718506 1127.210327,2748.635254 
	C1081.465698,2720.030518 1038.882446,2687.037354 997.791260,2652.141846 
	C991.487915,2646.788818 985.807678,2643.327881 976.718872,2644.035400 
	C952.051880,2645.955811 927.724731,2642.658447 903.703674,2636.555420 
	C883.332764,2631.379639 862.500061,2630.199463 841.479370,2630.190674 
	C812.739929,2630.178711 784.584351,2633.719238 756.913269,2641.313232 
	C714.661743,2652.907715 676.804932,2673.183594 642.020630,2699.544922 
	C600.067688,2731.338379 564.855835,2769.687988 533.537537,2811.709473 
	C523.437622,2825.261230 511.059906,2834.907471 495.121857,2840.403320 
	C481.270325,2845.179688 468.856812,2842.627197 456.187531,2835.790039 
	C411.059418,2811.437500 373.310028,2777.426758 334.827057,2744.332764 
	C332.814575,2742.602051 330.894409,2740.708496 328.682587,2739.274170 
	C315.356598,2730.632324 312.952942,2717.002930 312.544098,2702.853516 
	C312.305939,2694.610840 316.394775,2687.645508 324.538452,2685.212158 
	C335.287476,2682.000244 338.653564,2674.296631 340.011322,2664.469238 
	C341.709595,2652.177246 344.615936,2640.444824 353.815033,2631.059814 
	C356.086731,2628.742676 357.456055,2624.552734 357.501404,2621.199951 
	C357.816559,2597.906738 358.203217,2574.592041 357.526611,2551.314453 
	C356.858856,2528.339111 352.130035,2505.818115 345.348297,2483.956543 
	C340.199066,2467.357910 339.989563,2450.602539 340.530487,2433.734619 
	C340.857910,2423.523193 342.485413,2413.285645 344.328125,2403.206055 
	C347.037018,2388.388428 352.089905,2374.282227 360.724304,2361.812744 
	C371.712524,2345.944092 376.455719,2328.357178 376.323334,2309.280273 
	C376.152313,2284.633057 375.983948,2259.984863 375.637329,2235.339600 
	C375.329285,2213.433350 374.488525,2191.531982 374.401215,2169.626221 
	C374.251282,2131.998535 379.122437,2094.845459 386.932220,2058.133545 
	C391.899139,2034.785034 398.631378,2011.816040 403.831604,1988.511597 
	C407.143066,1973.671387 408.784637,1958.466797 411.721985,1943.533203 
	C420.614899,1898.321167 429.238983,1853.045410 439.000641,1808.018433 
	C446.732788,1772.352905 456.285950,1737.085938 464.441956,1701.507080 
	C468.584198,1683.437500 470.495453,1664.832275 475.072144,1646.891968 
	C482.286438,1618.612183 489.873627,1590.338989 499.302216,1562.746094 
	C504.939240,1546.249390 504.230621,1530.193604 503.041382,1513.662842 
	C502.947113,1512.352539 502.425446,1511.067871 502.373291,1509.760376 
	C501.446045,1486.523926 500.191437,1463.292725 499.743652,1440.046387 
	C498.820648,1392.131592 498.186798,1344.209961 497.735626,1296.288330 
	C497.544434,1275.978638 498.002045,1255.659546 498.412903,1235.349731 
	C498.518524,1230.130371 497.169189,1225.767456 494.489319,1221.292236 
	C481.961761,1200.371704 467.490906,1180.794067 450.530731,1163.445923 
	C431.296906,1143.772095 418.494171,1120.381348 406.830658,1096.036743 
	C403.096985,1088.243652 399.357788,1080.453125 395.630615,1072.657104 
	C391.600830,1064.227905 390.988098,1056.062866 397.857635,1048.692993 
	C420.728790,1024.156006 421.967560,995.354797 414.729828,964.736084 
	C412.676849,956.051270 410.773926,947.261475 409.777496,938.410095 
	C407.319183,916.573059 414.417053,896.948914 425.823669,878.895935 
	C430.890228,870.877258 432.343658,862.832458 432.546753,853.579468 
	C433.062836,830.061707 433.404297,806.307007 442.104675,783.978760 
	C445.557770,775.117004 450.937103,766.993896 455.570770,758.607056 
	C461.019073,748.745728 466.662018,738.992004 472.129547,729.141113 
	C489.347809,698.118652 510.483185,669.931885 535.738647,645.139954 
	C550.877991,630.278320 567.954956,617.410950 583.797363,603.240662 
	C615.308472,575.055359 645.989136,546.039673 671.522400,512.076660 
	C698.151367,476.656067 715.472778,437.130676 723.652649,393.632080 
	C727.496948,373.189453 726.678467,352.735718 722.984802,332.293823 
	C720.261414,317.221985 719.088562,302.096497 724.099609,287.143555 
	C727.803406,276.091492 734.034302,267.309570 743.968994,260.659729 
	C769.128418,243.819046 793.736267,226.186630 815.023071,204.422211 
	C822.671448,196.602295 830.243042,188.704956 837.734802,180.734940 
	C845.534180,172.437592 854.935730,171.520889 865.063721,174.866440 
	C883.467102,180.945572 900.962830,188.830505 916.147644,201.238113 
	C927.954468,210.885544 933.740295,223.211075 934.402710,238.417480 
	C935.527283,264.234161 927.978455,287.515686 914.990906,309.437866 
	C911.956787,314.559326 909.396973,320.003754 907.064636,325.489136 
	C903.602661,333.631409 903.526062,341.630646 905.508667,350.643707 
	C907.896667,361.500061 907.861511,373.090240 907.457520,384.311737 
	C906.886108,400.186127 905.440857,416.062805 903.617004,431.851593 
	C899.476440,467.695221 895.043457,503.507507 890.377014,539.286621 
	C888.664185,552.419495 886.465637,565.538879 883.517151,578.442383 
	C881.700439,586.392944 877.173340,593.738403 875.483276,601.699524 
	C874.010498,608.636841 873.088379,616.553955 874.996643,623.148804 
	C878.038086,633.660339 878.261963,644.059021 878.392151,654.683105 
	C878.440430,658.626648 879.194153,662.558289 879.556702,666.501831 
	C880.284302,674.416138 881.502014,682.329895 881.574463,690.252563 
	C881.982361,734.895569 881.927063,779.542969 882.405518,824.184875 
	C882.672607,849.111206 883.242798,874.050232 884.449402,898.946106 
	C885.764954,926.089966 887.228210,953.267822 890.031067,980.285217 
	C892.267456,1001.843018 899.614441,1022.344971 908.044617,1042.255981 
	C912.566711,1052.936401 918.517700,1063.004272 923.522644,1073.492188 
	C925.340637,1077.302002 927.119690,1081.455444 927.485168,1085.578857 
	C929.358582,1106.715210 930.523438,1127.914062 932.386963,1149.051270 
	C935.925781,1189.191162 935.940002,1229.414429 935.598328,1269.643555 
	C935.471497,1284.570068 934.603760,1299.490112 934.043579,1315.265015 
	C927.524902,1317.839844 920.888000,1320.674561 914.106445,1323.105713 
	C870.617737,1338.696411 826.517517,1352.214844 780.723145,1359.068481 
	C765.689575,1361.318481 750.317810,1361.495972 735.080017,1362.113647 
	C727.488647,1362.421387 725.538696,1362.665161 723.366516,1369.882935 
	C720.603149,1379.065430 717.934204,1388.418701 716.708374,1397.890381 
	C714.455017,1415.301392 712.777649,1432.823730 711.777588,1450.352051 
	C710.037903,1480.841553 708.903931,1511.367188 707.692017,1541.884766 
	C706.861450,1562.800659 706.203430,1583.725342 705.692810,1604.651489 
	C704.914001,1636.569946 704.371765,1668.494019 703.648926,1700.413940 
	C703.046814,1727.003662 702.295410,1753.589966 701.674316,1780.179443 
	C701.177429,1801.451538 700.320496,1822.728760 700.453125,1843.998535 
	C700.606384,1868.590210 701.202820,1893.200073 702.457092,1917.758545 
	C703.944885,1946.889404 705.798035,1976.024170 708.481506,2005.065674 
	C711.618469,2039.013794 715.409912,2072.915039 719.663147,2106.742920 
	C725.530151,2153.406250 731.743530,2200.032227 738.460449,2246.580078 
	C745.034668,2292.140137 752.732483,2337.537842 759.324463,2383.095459 
	C762.406006,2404.392334 764.158508,2425.886963 766.287170,2447.314453 
	C767.365234,2458.166748 767.940491,2469.068848 768.837769,2481.232178 
	C776.580933,2483.311035 784.373474,2486.145020 792.413391,2487.423340 
	C817.274109,2491.375977 842.183777,2495.096924 867.158875,2498.236572 
	C900.001404,2502.365479 932.903442,2506.051758 965.820435,2509.545898 
	C984.605042,2511.539795 1003.514404,2512.376465 1022.286743,2514.461670 
	C1040.122070,2516.442383 1057.927368,2517.859619 1075.890259,2517.797852 
	C1083.711670,2517.770996 1090.997803,2517.184814 1097.585205,2512.478027 
	C1099.687500,2510.975830 1102.380127,2510.299805 1105.095947,2509.118164 
	C1105.349243,2510.307861 1105.918701,2511.313721 1105.656128,2512.001221 
	C1102.103271,2521.298096 1106.348877,2527.170654 1113.363770,2533.002930 
	C1146.161011,2560.269287 1176.448730,2590.247803 1206.123901,2620.817871 
	C1219.077026,2634.161621 1231.410278,2648.144287 1243.429932,2662.340332 
	C1248.789673,2668.670654 1254.943726,2673.050293 1262.413208,2676.301025 
	C1269.714722,2679.478760 1276.642212,2683.506104 1283.800781,2687.024170 
	C1298.765015,2694.377930 1308.657593,2705.626709 1311.528931,2723.339111 
z"/>
<path fill="#010101" opacity="1.000000" stroke="none" 
	d="
M2513.664062,1347.979736 
	C2512.996826,1382.228760 2512.641602,1415.492432 2511.562256,1448.732422 
	C2510.733398,1474.261475 2509.904053,1499.854980 2507.285400,1525.235229 
	C2505.900146,1538.662354 2507.975830,1550.692383 2512.070801,1563.151855 
	C2524.818604,1601.937500 2535.673340,1641.164185 2543.035889,1681.468506 
	C2549.345703,1716.011841 2558.359131,1750.074707 2566.582275,1784.252563 
	C2579.228271,1836.814819 2591.489990,1889.522583 2599.184570,1943.007690 
	C2604.498535,1979.946899 2615.268311,2015.459961 2622.785645,2051.784668 
	C2627.960938,2076.792969 2632.636475,2101.876953 2634.277832,2127.399414 
	C2635.257812,2142.635498 2635.151611,2157.952881 2636.454102,2173.154785 
	C2638.447021,2196.416260 2635.525879,2219.551025 2635.557861,2242.755127 
	C2635.588379,2264.693848 2634.135010,2286.645508 2634.537842,2308.569580 
	C2634.854980,2325.841064 2637.395752,2342.794189 2647.832764,2357.743164 
	C2664.616699,2381.783691 2669.220459,2409.354736 2670.506592,2438.028564 
	C2671.461182,2459.321289 2667.201172,2479.527832 2661.641846,2499.788574 
	C2653.401611,2529.820801 2651.523438,2560.596924 2652.363037,2591.588623 
	C2652.632812,2601.533936 2652.899414,2611.501221 2653.831299,2621.395996 
	C2654.179932,2625.098145 2655.535645,2629.432617 2657.960693,2632.076660 
	C2665.295654,2640.072998 2668.573975,2649.536621 2670.235596,2659.878174 
	C2670.760498,2663.146240 2671.410645,2666.394531 2672.022217,2669.648193 
	C2673.345703,2676.689697 2676.865479,2681.727783 2684.017822,2684.148193 
	C2695.326416,2687.974365 2698.864746,2695.858154 2698.024902,2707.264648 
	C2697.118408,2719.569336 2693.468018,2729.244385 2684.096191,2737.591797 
	C2650.814941,2767.233887 2616.468750,2795.556641 2580.244873,2821.490723 
	C2570.100098,2828.753906 2558.414795,2833.955078 2547.165039,2839.557373 
	C2537.559814,2844.340576 2527.394043,2844.108887 2517.274902,2840.829590 
	C2502.031006,2835.888916 2489.307861,2827.607910 2479.628418,2814.451416 
	C2458.905762,2786.285156 2436.207520,2759.757812 2410.944580,2735.544434 
	C2369.193359,2695.527832 2322.617432,2663.086182 2266.934326,2645.242676 
	C2244.754395,2638.135254 2222.165039,2633.064697 2198.839600,2631.606445 
	C2196.081543,2631.434082 2193.375000,2630.438477 2189.066650,2629.469727 
	C2225.700439,2615.770752 2258.467529,2598.700928 2287.671875,2573.675293 
	C2286.360352,2572.144531 2285.356934,2571.004395 2284.389648,2569.834229 
	C2283.537598,2568.803711 2282.725830,2567.739014 2281.978027,2566.792480 
	C2280.521240,2567.371094 2279.471924,2567.532715 2278.756104,2568.108643 
	C2242.178955,2597.536377 2200.804932,2617.264648 2155.502441,2628.992920 
	C2151.369629,2630.062988 2146.997559,2630.173828 2142.769775,2630.917236 
	C2125.489014,2633.954834 2108.127197,2636.622803 2090.972900,2640.264648 
	C2070.597168,2644.590332 2050.049316,2644.767822 2029.444824,2644.117432 
	C2025.159058,2643.982422 2022.215576,2644.647949 2018.819092,2647.527100 
	C1978.222168,2681.940918 1936.539062,2715.008057 1891.574219,2743.572754 
	C1863.814819,2761.207764 1835.182007,2777.471680 1806.877563,2794.243408 
	C1794.017090,2801.863281 1781.209473,2809.620117 1767.967285,2816.527344 
	C1761.593628,2819.852539 1754.341309,2821.607666 1747.354492,2823.612793 
	C1739.306274,2825.922363 1732.513672,2822.892822 1728.395996,2816.137939 
	C1723.594849,2808.262207 1719.631104,2799.802490 1716.027832,2791.289551 
	C1711.768311,2781.226562 1708.525391,2770.737305 1704.405396,2760.610352 
	C1697.760376,2744.277344 1696.194458,2728.046631 1703.009521,2711.271973 
	C1705.605225,2704.882812 1708.676758,2699.118164 1714.637817,2695.622314 
	C1726.355103,2688.750977 1738.166504,2682.019043 1750.171387,2675.669189 
	C1756.094727,2672.536377 1761.559692,2669.370117 1766.024170,2664.036865 
	C1792.331177,2632.610596 1821.091919,2603.456055 1850.607300,2575.092041 
	C1867.843262,2558.528809 1886.223999,2543.160645 1903.996948,2527.151855 
	C1912.618652,2519.385742 1920.622070,2510.885986 1929.599854,2503.571045 
	C1977.473511,2464.563965 2031.941284,2438.456055 2091.127686,2421.631836 
	C2121.193115,2413.085449 2151.881348,2408.014404 2182.850342,2404.382568 
	C2185.803711,2404.036133 2188.811523,2404.695557 2190.197754,2400.816895 
	C2190.488770,2400.002930 2193.121582,2399.772461 2194.692871,2399.709473 
	C2207.627930,2399.190918 2220.564209,2398.600342 2233.505859,2398.378174 
	C2246.500732,2398.154541 2259.506104,2398.121338 2272.499268,2398.386230 
	C2286.106201,2398.663818 2299.783447,2398.655029 2313.284668,2400.116211 
	C2330.045410,2401.930420 2341.445557,2395.107666 2349.667969,2381.197754 
	C2362.132812,2360.110107 2370.010986,2337.259033 2375.772461,2313.603516 
	C2382.058838,2287.792969 2385.594482,2261.557861 2388.459473,2235.158936 
	C2393.607666,2187.722656 2392.635742,2140.148926 2392.106445,2092.620605 
	C2391.781738,2063.445557 2390.063232,2034.218872 2387.450928,2005.151733 
	C2383.568359,1961.953369 2378.938477,1918.801025 2373.538330,1875.765625 
	C2366.318115,1818.223755 2356.511475,1761.091919 2344.718262,1704.277466 
	C2337.429932,1669.165039 2333.978027,1633.599976 2333.353760,1597.575684 
	C2332.461670,1546.106689 2327.232666,1494.949463 2312.037109,1445.406250 
	C2308.452881,1433.720947 2303.185059,1422.521484 2298.254395,1411.290405 
	C2294.826416,1403.482788 2289.093262,1397.802368 2281.255859,1393.812012 
	C2228.519775,1366.962036 2175.946777,1339.792236 2123.230225,1312.904053 
	C2107.569336,1304.916382 2091.616943,1297.500000 2076.201416,1290.017578 
	C2076.201416,1256.847778 2075.981201,1224.548340 2076.297852,1192.254272 
	C2076.447266,1176.994141 2077.289307,1161.719116 2078.416504,1146.495239 
	C2080.006348,1125.027466 2081.846680,1103.566162 2084.284668,1082.182495 
	C2084.855225,1077.176636 2087.827637,1072.249634 2090.423096,1067.702026 
	C2105.908936,1040.571045 2115.879639,1011.418640 2120.994873,980.781311 
	C2123.441650,966.127563 2123.633301,951.056213 2124.270020,936.149414 
	C2125.801025,900.313477 2126.992920,864.463135 2128.315918,828.618347 
	C2128.352783,827.619629 2128.326172,826.618713 2128.335693,825.618896 
	C2128.778809,778.682373 2129.033691,731.742798 2129.771973,684.810913 
	C2130.022461,668.892639 2131.221680,652.970581 2132.556885,637.098206 
	C2133.021973,631.567932 2135.267334,626.197571 2136.584717,620.726562 
	C2138.507568,612.740417 2137.206543,605.709473 2133.731689,597.830566 
	C2128.989014,587.077698 2126.219482,575.140991 2124.485107,563.433105 
	C2119.050293,526.748230 2114.410156,489.944000 2109.630615,453.164154 
	C2105.822021,423.858887 2103.426758,394.439606 2103.715332,364.857666 
	C2103.760498,360.222351 2103.274658,355.068634 2105.064941,351.061951 
	C2110.008789,339.998566 2106.435059,330.205353 2101.902100,320.521179 
	C2097.395996,310.894653 2092.229980,301.576813 2087.338623,292.131073 
	C2081.453613,280.766022 2078.019043,268.768005 2077.635498,255.910553 
	C2077.428467,248.971283 2076.097412,241.969589 2076.700439,235.121735 
	C2078.017822,220.161713 2085.040039,208.130814 2097.319336,199.168701 
	C2113.886230,187.077454 2131.958984,178.358658 2151.958984,173.634109 
	C2158.981934,171.975113 2165.222900,173.650681 2170.360107,178.241608 
	C2177.033447,184.205200 2183.706543,190.313095 2189.455322,197.137451 
	C2203.080811,213.312302 2219.569824,226.168152 2236.209961,238.875214 
	C2244.926514,245.531464 2253.577637,252.439743 2262.999756,257.971313 
	C2285.104980,270.949005 2291.084717,291.193939 2290.068359,314.834656 
	C2289.756104,322.099854 2288.973389,329.421600 2287.559326,336.549408 
	C2281.581299,366.685120 2286.356934,395.747467 2295.023682,424.675385 
	C2308.276855,468.912537 2332.317627,506.613556 2363.031982,540.598694 
	C2395.467285,576.487732 2432.021484,607.909119 2468.772217,639.120850 
	C2483.087646,651.278687 2494.543945,665.908875 2506.225830,680.356567 
	C2522.808105,700.864441 2536.471436,723.269043 2548.185303,746.880737 
	C2549.658203,749.849915 2551.019775,753.013855 2553.119629,755.509705 
	C2567.374023,772.452148 2573.618896,792.557129 2575.783691,814.022034 
	C2577.280762,828.864868 2577.886963,843.827271 2578.156250,858.749451 
	C2578.263672,864.706787 2579.819580,869.568665 2582.791992,874.579834 
	C2590.764160,888.021851 2598.099121,901.746277 2600.528809,917.577271 
	C2602.418701,929.891357 2602.188965,941.943298 2598.889160,953.999878 
	C2594.941162,968.424316 2591.953125,982.997620 2592.282715,998.114624 
	C2592.619141,1013.535583 2596.828125,1027.534912 2606.287354,1039.831787 
	C2607.501221,1041.409790 2608.598389,1043.113403 2610.002197,1044.503662 
	C2619.693359,1054.100708 2620.177002,1064.560791 2613.802246,1076.235596 
	C2609.188232,1084.686035 2605.129150,1093.461060 2601.197266,1102.258789 
	C2589.809082,1127.741455 2573.840576,1149.959595 2554.593506,1170.094727 
	C2539.608887,1185.770508 2527.298584,1203.598267 2516.169922,1222.172485 
	C2514.067871,1225.680908 2512.615479,1230.124634 2512.503418,1234.181885 
	C2512.080322,1249.501831 2512.170654,1264.842407 2512.372314,1280.171265 
	C2512.665039,1302.444092 2513.220703,1324.713379 2513.664062,1347.979736 
z"/>
<path fill="#010101" opacity="1.000000" stroke="none" 
	d="
M2308.041504,431.794281 
	C2300.606689,411.292328 2295.870361,390.905945 2294.608887,369.988586 
	C2293.997803,359.855225 2295.718018,349.492676 2297.160400,339.344391 
	C2299.452881,323.218628 2301.772705,307.186462 2298.330566,290.934326 
	C2294.875977,274.624084 2286.880127,261.629486 2272.728516,252.172058 
	C2246.428955,234.596725 2220.808105,216.088577 2199.200928,192.675003 
	C2190.037354,182.745514 2181.451172,172.210281 2167.903076,164.272369 
	C2348.821533,164.272369 2527.815186,164.272369 2707.238525,164.272369 
	C2707.238525,1006.101868 2707.238525,1847.530151 2707.238525,2690.521729 
	C2702.062012,2682.114014 2695.563965,2677.497314 2687.703857,2674.340332 
	C2685.331299,2673.387207 2683.228027,2670.486572 2682.124023,2667.983154 
	C2680.825684,2665.037354 2680.653076,2661.567139 2680.159668,2658.299316 
	C2678.343262,2646.266357 2674.492920,2635.152588 2666.367920,2625.755859 
	C2664.980957,2624.151611 2663.893066,2621.761719 2663.776367,2619.672852 
	C2663.109375,2607.743408 2662.730225,2595.796875 2662.341553,2583.853271 
	C2661.329834,2552.748047 2665.020508,2522.139648 2674.013672,2492.406982 
	C2679.403809,2474.587158 2680.832031,2456.613525 2680.314453,2438.279785 
	C2679.645508,2414.566650 2676.766602,2391.264893 2666.241699,2369.582764 
	C2663.492432,2363.918701 2660.841797,2358.040527 2657.079590,2353.066650 
	C2647.312988,2340.154053 2644.946777,2325.155273 2644.476074,2309.822998 
	C2643.884277,2290.543457 2644.078369,2271.228027 2644.398926,2251.935547 
	C2644.791016,2228.340088 2645.726807,2204.753906 2646.319580,2181.161133 
	C2647.570068,2131.381836 2640.479248,2082.547852 2629.189209,2034.242188 
	C2624.585449,2014.544800 2618.541992,1995.158936 2614.548828,1975.350098 
	C2609.706299,1951.329834 2606.928223,1926.896240 2602.197998,1902.849854 
	C2595.093506,1866.733032 2587.445068,1830.712158 2579.324707,1794.809570 
	C2571.785889,1761.478149 2563.012207,1728.427002 2555.395752,1695.112061 
	C2551.264160,1677.038940 2549.439697,1658.404175 2544.751465,1640.500244 
	C2536.937256,1610.660034 2527.839355,1581.148193 2518.875977,1551.621460 
	C2516.490967,1543.766113 2515.776611,1536.173706 2517.035156,1528.120728 
	C2517.851562,1522.897217 2517.770996,1517.528809 2518.018799,1512.221924 
	C2518.808350,1495.308228 2519.803223,1478.399536 2520.280273,1461.476685 
	C2521.133545,1431.224854 2521.682129,1400.964233 2522.329102,1370.706665 
	C2522.798096,1348.765381 2523.560303,1326.823120 2523.565430,1304.881104 
	C2523.570312,1283.605957 2523.041504,1262.319824 2522.183105,1241.061279 
	C2521.895752,1233.949341 2524.116699,1228.288574 2527.736084,1222.500854 
	C2540.482666,1202.117310 2555.215820,1183.191528 2571.831055,1165.977417 
	C2588.329346,1148.884521 2599.453125,1128.685181 2609.821289,1107.810425 
	C2613.663818,1100.074463 2617.398438,1092.280884 2620.986328,1084.424072 
	C2623.046387,1079.912964 2624.753662,1075.237793 2626.548340,1070.608643 
	C2630.093750,1061.463867 2628.454102,1052.936646 2623.154297,1044.994995 
	C2620.945312,1041.685547 2618.475830,1038.530884 2615.928711,1035.469360 
	C2603.355713,1020.358154 2600.183350,1002.855469 2603.221680,984.007202 
	C2605.222656,971.593872 2608.021973,959.310608 2610.377930,946.952759 
	C2614.322266,926.264099 2610.229004,906.729797 2601.722168,887.854492 
	C2601.449463,887.249512 2601.164795,886.624817 2600.759766,886.107971 
	C2588.016357,869.846008 2588.193359,850.677551 2587.434570,831.332581 
	C2586.535400,808.406067 2583.936523,785.297913 2571.682861,765.189331 
	C2548.216553,726.681091 2528.065186,686.008606 2496.742432,652.577637 
	C2483.498779,638.442810 2468.727295,626.238892 2454.429199,613.377991 
	C2431.938965,593.148438 2409.131104,573.200928 2387.683838,551.899719 
	C2356.586182,521.014221 2330.084717,486.573090 2313.091553,445.637939 
	C2311.310303,441.346954 2309.850342,436.922516 2308.041504,431.794281 
z"/>
<path fill="#000000" opacity="1.000000" stroke="none" 
	d="
M303.666962,519.999817 
	C303.666962,401.034576 303.666962,283.069427 303.666962,164.385712 
	C482.908997,164.385712 661.894531,164.385712 842.920837,164.385712 
	C829.350830,172.346405 820.656921,183.078857 811.328857,193.173965 
	C790.404175,215.819260 765.727600,233.959961 740.192993,250.840561 
	C722.380554,262.616119 713.511963,278.587006 711.499329,299.492859 
	C710.341553,311.518677 711.317322,323.227966 713.471741,334.922760 
	C718.319153,361.235077 715.994446,386.979828 709.021301,412.689850 
	C697.198059,456.282532 674.911133,493.933472 645.639771,527.858582 
	C615.546082,562.736816 580.960693,592.917114 545.851501,622.439148 
	C511.251343,651.533325 484.624908,686.755859 462.314606,725.650696 
	C455.549652,737.444336 448.438507,749.039062 441.515503,760.742371 
	C428.802277,782.234070 424.853790,805.981750 423.671417,830.425842 
	C423.174622,840.696655 423.018860,850.992554 422.172302,861.232727 
	C421.915466,864.339539 420.013702,867.369080 418.608459,870.311279 
	C414.320160,879.289795 409.378906,887.994629 405.650116,897.194397 
	C397.491302,917.324158 397.468964,938.160889 402.918701,958.853027 
	C406.418640,972.141785 408.538788,985.395813 408.423584,999.141724 
	C408.322296,1011.222656 404.903412,1021.998535 397.829254,1031.682983 
	C395.087677,1035.436157 392.329315,1039.184570 389.408264,1042.797485 
	C381.773834,1052.240112 380.227783,1062.820312 385.183655,1073.596069 
	C397.119690,1099.548950 408.088135,1126.143066 425.027710,1149.359985 
	C434.195770,1161.925659 445.680634,1172.774536 455.397644,1184.973511 
	C465.323120,1197.434326 474.321899,1210.630981 483.814087,1223.440552 
	C487.333313,1228.189453 488.517059,1233.301758 488.440186,1239.250488 
	C487.997101,1273.557373 487.742218,1307.868286 487.711121,1342.178101 
	C487.688446,1367.155884 487.702026,1392.145752 488.437469,1417.108643 
	C489.336670,1447.631958 490.978241,1478.133911 492.379395,1508.641479 
	C492.560944,1512.594727 492.997009,1516.566650 493.701019,1520.460327 
	C497.308777,1540.413818 489.825653,1558.404175 483.913727,1576.673462 
	C471.433502,1615.240601 461.911438,1654.476196 455.741516,1694.586060 
	C453.581085,1708.630615 449.147919,1722.328125 445.706909,1736.172852 
	C430.266388,1798.296387 415.843170,1860.645142 404.605591,1923.686768 
	C402.047180,1938.039307 400.566406,1952.599487 397.615601,1966.862549 
	C393.859650,1985.017578 388.984283,2002.937988 384.820923,2021.012329 
	C377.453125,2052.998291 371.003754,2085.104736 367.444336,2117.835449 
	C363.654999,2152.680908 364.185486,2187.556641 364.501068,2222.437744 
	C364.683838,2242.641602 367.458649,2262.834229 367.369995,2283.024658 
	C367.294647,2300.192383 365.437439,2317.441650 363.017517,2334.462646 
	C362.134735,2340.672119 357.825256,2346.627441 354.272491,2352.183105 
	C339.766357,2374.867920 332.161774,2399.591064 331.706635,2426.460449 
	C331.460327,2441.002686 330.810120,2455.623291 331.986298,2470.074463 
	C332.782806,2479.861084 336.207245,2489.479248 338.861176,2499.060547 
	C348.016876,2532.114014 349.273224,2565.773438 348.042603,2599.826172 
	C347.557495,2613.250488 347.042175,2625.638916 337.789551,2636.712158 
	C331.737976,2643.954590 331.469421,2654.009277 330.152466,2663.185791 
	C329.275787,2669.294189 326.710388,2673.189453 320.769165,2675.969971 
	C314.772400,2678.776123 309.660492,2683.473389 303.666962,2687.689453 
	C303.666962,1965.748779 303.666962,1243.374390 303.666962,519.999817 
z"/>
<path fill="#030303" opacity="1.000000" stroke="none" 
	d="
M2707.678467,2738.128906 
	C2707.678467,2776.384033 2707.678467,2813.662598 2707.678467,2851.643066 
	C2653.884277,2851.643066 2600.636475,2851.643066 2545.513428,2851.643066 
	C2581.571289,2834.612549 2611.077637,2811.073975 2640.696045,2787.731934 
	C2660.019043,2772.503174 2679.320801,2757.217285 2696.216553,2739.202393 
	C2701.145020,2733.947510 2706.243408,2728.744873 2707.420654,2721.015869 
	C2706.849854,2720.926758 2707.185303,2720.949463 2707.186523,2720.983398 
	C2707.366211,2726.372559 2707.521729,2731.762451 2707.678467,2738.128906 
z"/>
<path fill="#020202" opacity="1.000000" stroke="none" 
	d="
M334.004517,2852.338379 
	C323.697266,2852.338379 314.389496,2852.338379 304.372070,2852.338379 
	C304.372070,2810.496338 304.372070,2768.927002 304.372070,2726.747314 
	C329.957550,2759.916748 425.501801,2834.156250 463.880951,2852.338379 
	C420.921936,2852.338379 377.962952,2852.338379 334.004517,2852.338379 
z"/>
</svg>