<svg version="1.1" id="Layer_1" xmlns="http://www.w3.org/2000/svg" xmlns:xlink="http://www.w3.org/1999/xlink" x="0px" y="0px"
	 width="100%" viewBox="0 0 3000 3000" enable-background="new 0 0 3000 3000" xml:space="preserve">
<path fill="#FEFEFE" opacity="1.000000" stroke="none" 
	d="
M3002.000000,1018.000000 
	C3002.000000,1679.945068 3002.000000,2340.890137 3002.000000,3001.917480 
	C2002.138062,3001.917480 1002.276245,3001.917480 2.207165,3001.917480 
	C2.207165,2002.221313 2.207165,1002.442566 2.207165,2.331888 
	C1001.999939,2.331888 2002.000000,2.331888 3002.000000,2.331888 
	C3002.000000,340.391144 3002.000000,678.695557 3002.000000,1018.000000 
M224.311203,2746.047119 
	C224.311203,2786.260742 224.311203,2826.474365 224.311203,2866.527832 
	C238.876617,2868.824951 376.787781,2868.144287 383.522034,2865.713623 
	C382.384521,2864.702637 381.570099,2863.715088 380.534912,2863.098145 
	C366.319092,2854.628662 351.860687,2846.545166 337.894989,2837.683838 
	C324.442932,2829.148926 311.375366,2819.989502 298.350281,2810.804932 
	C281.131073,2798.662109 266.695679,2783.397949 252.027344,2768.442139 
	C243.682404,2759.933594 235.702896,2751.066895 227.461914,2740.813721 
	C226.645950,2737.098877 225.829987,2733.384033 225.014023,2729.669189 
	C224.784790,2729.699707 224.555557,2729.730225 224.326324,2729.760742 
	C224.326324,2734.572754 224.326324,2739.385010 224.311203,2746.047119 
M2737.768555,2743.548096 
	C2724.653809,2756.689453 2712.307129,2770.724121 2698.272705,2782.796143 
	C2663.535645,2812.676025 2626.848877,2840.000488 2586.656006,2862.304443 
	C2585.058838,2863.191162 2583.321045,2863.824219 2581.648682,2864.575195 
	C2593.279297,2868.494141 2734.322021,2868.163818 2741.674072,2865.965332 
	C2741.674072,2825.447266 2741.674072,2784.827148 2742.204590,2742.540771 
	C2742.204590,2738.381836 2742.204590,2734.222656 2742.204590,2730.063721 
	C2741.702148,2730.082764 2741.199707,2730.102051 2740.697266,2730.121094 
	C2739.942139,2734.207031 2739.187012,2738.292969 2737.768555,2743.548096 
M1970.130737,1725.053589 
	C1980.450928,1692.113647 1990.758545,1659.169678 2001.094482,1626.234741 
	C2011.832031,1592.020508 2022.886230,1557.902222 2033.231812,1523.570068 
	C2038.682617,1505.481567 2041.652222,1486.576904 2047.958252,1468.828247 
	C2062.072510,1429.102173 2077.589844,1389.874756 2092.481445,1350.423950 
	C2093.630127,1347.380981 2095.250488,1344.143311 2095.129639,1341.055542 
	C2094.457275,1323.844727 2093.010010,1306.662842 2092.418701,1289.450684 
	C2091.812500,1271.815063 2091.551514,1254.152344 2091.736084,1236.507812 
	C2092.086670,1202.960938 2092.522461,1169.412598 2095.605225,1135.956421 
	C2097.460693,1115.819458 2098.754395,1095.630981 2100.342773,1075.469116 
	C2100.812744,1069.503174 2102.352783,1063.994385 2105.369385,1058.600586 
	C2110.877686,1048.751953 2115.958740,1038.613892 2120.477051,1028.272705 
	C2128.744385,1009.350098 2135.548096,989.705322 2137.988037,969.252686 
	C2141.007568,943.943787 2142.260010,918.396851 2143.543213,892.915894 
	C2144.746826,869.018738 2145.319092,845.077087 2145.592529,821.148438 
	C2146.071533,779.169250 2146.109619,737.184937 2146.333252,695.202820 
	C2146.342041,693.536255 2146.281494,691.865234 2146.380859,690.203857 
	C2147.684814,668.350464 2148.941650,646.493835 2150.386719,624.649658 
	C2150.712158,619.730774 2151.304199,614.754639 2152.492920,609.984192 
	C2154.577148,601.620850 2156.716553,593.578857 2151.604980,585.338440 
	C2149.574951,582.066040 2148.705566,577.902283 2147.982666,574.018677 
	C2143.316650,548.944763 2137.773926,523.972107 2134.541992,498.707397 
	C2129.500488,459.291016 2125.506348,419.715759 2122.196777,380.113495 
	C2120.608154,361.105286 2118.202393,341.786530 2123.990234,322.811737 
	C2124.786377,320.201874 2124.059326,316.744720 2123.052490,314.047546 
	C2120.971191,308.471985 2118.735596,302.835999 2115.668213,297.766418 
	C2100.324219,272.406799 2091.931885,245.423279 2093.474609,215.390244 
	C2094.250244,200.287186 2099.151367,187.662842 2109.588623,176.896698 
	C2120.459717,165.683136 2133.839844,158.385513 2147.810303,152.023224 
	C2155.093506,148.706482 2162.584473,145.847046 2171.632324,142.096863 
	C1711.867798,142.096863 1254.036499,142.096863 794.197083,142.096863 
	C796.815857,143.294144 797.575745,143.703156 798.377441,143.999039 
	C816.199890,150.576965 833.585754,158.027985 848.642944,169.931488 
	C860.745850,179.499420 870.238220,191.066620 871.653687,206.985275 
	C873.641357,229.339752 872.859741,251.565826 862.990784,272.395294 
	C858.587646,281.688568 853.479004,290.645111 848.939453,299.876892 
	C844.257446,309.398438 838.785400,318.854706 843.849548,330.114960 
	C844.492371,331.544373 844.310730,333.395508 844.316833,335.051971 
	C844.354431,345.266907 844.650757,355.493896 844.265869,365.694397 
	C843.627625,382.611389 843.436707,399.616974 841.462158,416.397552 
	C836.702576,456.846191 831.568542,497.269379 825.464783,537.532959 
	C822.651672,556.089355 820.311523,575.048401 811.362000,592.194397 
	C810.464233,593.914429 811.004089,596.655090 811.488770,598.782593 
	C814.596130,612.421692 816.811096,626.127319 815.710571,640.193420 
	C815.608704,641.496033 816.031067,642.831665 816.113586,644.157959 
	C817.307678,663.353882 819.104492,682.536743 819.543457,701.750427 
	C820.592407,747.665771 820.688232,793.603149 821.767334,839.517517 
	C822.594543,874.711609 824.126099,909.894104 825.793030,945.060486 
	C826.324402,956.270752 827.455139,967.590393 829.771912,978.551331 
	C835.717285,1006.679504 845.810852,1033.373169 860.403259,1058.215332 
	C863.705505,1063.837036 865.188843,1069.664917 865.717590,1076.016724 
	C867.614014,1098.797852 870.243164,1121.534180 871.505432,1144.347900 
	C873.029114,1171.886108 874.187500,1199.486938 874.142334,1227.058472 
	C874.089539,1259.299927 872.683533,1291.542603 871.629822,1323.776978 
	C871.185120,1337.380981 871.725403,1350.585449 878.289978,1363.072021 
	C881.825439,1369.796997 884.284302,1377.116089 886.921448,1384.280396 
	C898.504639,1415.747681 910.493286,1447.080811 921.263916,1478.825928 
	C926.468262,1494.165039 928.549072,1510.541504 933.350403,1526.043579 
	C951.524231,1584.722290 970.255127,1643.228149 988.725708,1701.815063 
	C993.317383,1716.379395 998.776978,1730.776855 1001.970093,1745.651978 
	C1007.826843,1772.935303 1014.170898,1800.049561 1023.079712,1826.492798 
	C1036.467773,1866.231689 1053.401855,1904.515747 1072.343994,1941.865723 
	C1080.381348,1957.713745 1086.945557,1973.803955 1089.589844,1991.409912 
	C1090.574585,1997.967651 1091.594849,2004.526367 1092.847900,2011.036621 
	C1099.243042,2044.263428 1103.600830,2077.830322 1105.303345,2111.540283 
	C1106.588501,2136.987793 1107.991577,2162.479980 1106.760498,2188.141602 
	C1105.329224,2217.980469 1104.530396,2247.843262 1102.545654,2277.682617 
	C1100.869995,2302.873047 1100.880371,2328.181641 1100.375244,2353.442383 
	C1099.962524,2374.087402 1100.558228,2394.775391 1099.442261,2415.375732 
	C1098.639648,2430.188232 1096.227783,2444.972656 1093.617554,2459.605957 
	C1092.086304,2468.190430 1087.602173,2475.851807 1080.790894,2481.631592 
	C1076.506348,2485.267334 1071.891968,2488.561035 1067.189209,2491.647705 
	C1055.723145,2499.174072 1048.871948,2509.635986 1046.198364,2523.029297 
	C1045.214233,2527.958984 1046.021484,2531.384033 1050.235718,2535.128906 
	C1071.354126,2553.895996 1092.749268,2572.450439 1112.632446,2592.483887 
	C1137.452148,2617.491455 1160.833862,2643.923584 1184.998779,2669.587646 
	C1188.088013,2672.868408 1191.868652,2675.751709 1195.823975,2677.913574 
	C1205.149658,2683.010254 1215.195679,2686.892334 1224.147705,2692.538330 
	C1231.620850,2697.251221 1239.956421,2702.540039 1244.385742,2709.741455 
	C1254.282837,2725.832764 1259.043579,2743.803223 1254.408203,2763.070557 
	C1248.772339,2786.497070 1238.578003,2808.168701 1228.011108,2829.600586 
	C1225.197266,2835.308105 1219.816895,2839.906982 1215.083252,2844.462402 
	C1211.161499,2848.237061 1206.214478,2848.835693 1200.493530,2848.590332 
	C1186.396729,2847.986084 1173.885376,2843.042725 1161.952515,2836.372559 
	C1148.622192,2828.921387 1135.794556,2820.573730 1122.497681,2813.059570 
	C1079.038696,2788.500977 1036.548462,2762.455322 996.349121,2732.770264 
	C972.592285,2715.227295 950.223755,2695.729980 923.651184,2682.141357 
	C909.368347,2674.836914 895.008667,2668.282959 878.885254,2666.294189 
	C866.070496,2664.713623 853.314392,2662.659668 840.504150,2661.038574 
	C827.046204,2659.335449 813.534546,2656.509033 800.083313,2656.705078 
	C784.276550,2656.936035 768.480225,2659.666260 752.730835,2661.708984 
	C707.794983,2667.537109 664.049255,2678.272949 621.732910,2694.530273 
	C611.210510,2698.572998 599.956482,2702.005371 590.939148,2708.398682 
	C572.822021,2721.243164 555.173767,2735.022461 538.852356,2750.065918 
	C510.686737,2776.025635 485.957062,2805.248291 462.765747,2835.747070 
	C455.024933,2845.927002 445.832336,2854.468994 433.979492,2859.861816 
	C430.235840,2861.565186 426.784790,2863.911377 423.199890,2865.963623 
	C423.385437,2866.361816 423.571014,2866.760254 423.756592,2867.158447 
	C1130.306763,2867.158447 1836.856934,2867.158447 2545.678955,2867.158447 
	C2526.713379,2859.011230 2511.565430,2848.855713 2498.150879,2836.498779 
	C2465.615723,2806.528320 2433.672363,2775.916260 2401.220703,2745.854248 
	C2381.963867,2728.015869 2362.229248,2710.691895 2342.642822,2693.211182 
	C2330.037598,2681.960938 2315.431152,2674.341797 2299.228760,2669.649902 
	C2294.765137,2668.357666 2290.466064,2666.496582 2286.000977,2665.210449 
	C2267.174316,2659.788086 2248.185059,2655.017334 2228.485352,2654.372070 
	C2213.177002,2653.870361 2197.851074,2653.705811 2182.534424,2653.764648 
	C2177.281250,2653.784912 2172.022705,2654.866943 2166.784424,2655.592041 
	C2160.888428,2656.408203 2155.012451,2657.369141 2149.127930,2658.267090 
	C2184.686523,2635.486816 2219.981445,2613.368652 2252.683105,2586.526123 
	C2249.911133,2583.213135 2247.621094,2580.476318 2245.475586,2577.912354 
	C2244.185547,2578.401367 2243.457764,2578.493896 2242.973633,2578.886719 
	C2210.326904,2605.368896 2174.974854,2627.812012 2138.410156,2648.363281 
	C2123.386963,2656.807373 2108.872314,2666.368652 2092.165527,2671.552979 
	C2088.096924,2672.815674 2084.143555,2674.606445 2080.346436,2676.560791 
	C2064.708008,2684.608887 2049.269043,2693.053955 2033.518188,2700.872559 
	C2023.760376,2705.716064 2013.573486,2709.695312 2002.899536,2714.359619 
	C2007.049561,2721.435791 2000.988403,2722.739990 1997.311646,2724.900879 
	C1945.736816,2755.213135 1894.243286,2785.669922 1842.362427,2815.451660 
	C1822.802490,2826.679443 1802.484497,2836.645996 1782.168823,2846.478516 
	C1766.258057,2854.179199 1749.870117,2848.225098 1741.246216,2834.891113 
	C1738.548706,2830.720459 1735.933350,2826.412842 1733.964844,2821.871338 
	C1728.424072,2809.087646 1723.124146,2796.195557 1717.959961,2783.254150 
	C1715.138306,2776.183105 1712.119141,2769.086670 1710.338745,2761.723389 
	C1703.952759,2735.313721 1712.322510,2714.031982 1733.829224,2697.738525 
	C1743.101318,2690.714355 1752.746460,2684.147705 1761.681641,2676.722656 
	C1774.963501,2665.685059 1788.227661,2654.550537 1800.667358,2642.592041 
	C1821.064941,2622.983154 1840.464111,2602.333008 1860.928223,2582.796387 
	C1873.401001,2570.889160 1887.074707,2560.239014 1900.219360,2549.036621 
	C1907.234619,2543.058105 1913.696411,2536.200439 1921.400757,2531.300537 
	C1952.826050,2511.315674 1985.166992,2492.940430 2018.991455,2477.196533 
	C2044.944702,2465.116211 2071.379395,2454.383057 2098.901611,2446.531738 
	C2121.876221,2439.977539 2145.267334,2435.510254 2169.792969,2435.483887 
	C2169.792969,2431.069092 2169.792969,2427.263916 2169.792969,2423.428711 
	C2129.541016,2425.873291 2110.662842,2429.439209 2081.795898,2438.830566 
	C2034.453857,2454.231934 1990.187866,2476.197754 1947.242065,2501.056641 
	C1937.874268,2506.479248 1928.551270,2511.979492 1919.816284,2517.088135 
	C1916.245728,2512.838867 1913.527344,2509.063721 1910.269775,2505.831787 
	C1901.766602,2497.395752 1892.530396,2489.642578 1884.564453,2480.741943 
	C1879.592651,2475.186768 1874.903076,2468.510986 1872.708862,2461.515625 
	C1867.937744,2446.304199 1866.785156,2430.284424 1866.396240,2414.364990 
	C1865.526855,2378.778809 1865.106812,2343.182129 1864.272583,2307.594971 
	C1863.969360,2294.662354 1862.923096,2281.748779 1862.364868,2268.820312 
	C1860.975464,2236.640137 1859.522827,2204.461182 1858.439087,2172.270264 
	C1858.172485,2164.352295 1859.621582,2156.388428 1859.587524,2148.448486 
	C1859.489258,2125.503906 1861.175537,2102.707520 1863.531128,2079.890869 
	C1867.040527,2045.897095 1871.992188,2012.159058 1879.394409,1978.805786 
	C1881.029419,1971.438354 1883.181519,1964.022949 1886.300537,1957.178711 
	C1894.707153,1938.732544 1904.079956,1920.726929 1912.498047,1902.285645 
	C1930.726929,1862.351685 1946.568115,1821.543213 1956.647583,1778.668579 
	C1960.742065,1761.251831 1965.359009,1743.958008 1970.130737,1725.053589 
M298.293457,2133.311768 
	C296.007172,2157.750000 295.227051,2182.222900 295.894745,2207.058594 
	C563.004639,2207.058594 829.421143,2207.058594 1096.101807,2207.058594 
	C1096.636597,2191.869141 1097.400146,2177.281006 1097.566895,2162.686035 
	C1097.661499,2154.417969 1096.779175,2146.138672 1096.333252,2137.864258 
	C1095.422241,2120.959717 1095.295166,2103.968018 1093.434937,2087.168457 
	C1089.388794,2050.626709 1084.365601,2014.194702 1076.220459,1978.286377 
	C1075.129639,1973.477417 1073.833130,1968.589478 1071.748779,1964.153076 
	C1062.845825,1945.203491 1053.316895,1926.545288 1044.559326,1907.530640 
	C1026.611328,1868.561768 1011.197021,1828.626953 1000.832092,1786.910034 
	C997.154236,1772.107056 995.217407,1756.811646 990.746460,1742.276001 
	C972.786804,1683.888062 954.007385,1625.752686 935.831055,1567.430542 
	C929.420471,1546.860840 923.848389,1526.029297 917.932068,1505.306396 
	C914.197327,1492.224854 911.400574,1478.800781 906.676941,1466.090088 
	C892.220764,1427.191040 877.018066,1388.569336 862.178955,1349.811890 
	C861.252563,1347.392334 860.336670,1344.699951 860.464966,1342.188232 
	C861.377869,1324.324951 863.424194,1306.478638 863.486267,1288.621338 
	C863.620361,1250.055176 863.472351,1211.461304 862.120850,1172.925171 
	C861.040955,1142.133301 857.772400,1111.423462 856.016663,1080.646362 
	C855.581848,1073.023560 853.219177,1066.503784 849.823730,1059.968384 
	C844.772522,1050.245850 839.379150,1040.631470 835.249634,1030.514648 
	C827.462646,1011.437500 820.308594,991.896851 818.070435,971.376038 
	C815.197998,945.040100 813.847656,918.520630 812.433777,892.048645 
	C811.282166,870.486206 810.840149,848.880737 810.381104,827.288025 
	C809.942261,806.646484 809.900513,785.996582 809.661255,765.350647 
	C809.183594,724.143250 810.639038,682.934082 806.114746,641.762634 
	C804.563354,627.644775 803.921204,613.463379 801.191101,599.432007 
	C800.371826,595.221069 801.641663,590.324280 802.946533,586.044189 
	C804.950623,579.470276 808.683044,573.352783 810.171936,566.703491 
	C821.340454,516.823364 826.547424,466.067596 831.613220,415.311829 
	C833.291138,398.499359 834.875488,381.641937 835.470764,364.768616 
	C835.924133,351.917816 836.934875,338.945282 832.482544,326.215912 
	C830.980408,321.920990 831.870361,316.199768 833.267151,311.618256 
	C835.377197,304.697540 838.205872,297.792999 841.928711,291.602997 
	C855.972900,268.251221 864.036682,243.522339 862.453796,215.902725 
	C861.753601,203.685532 857.958984,193.331177 849.235046,184.640182 
	C832.453979,167.922379 811.513489,158.856049 789.367859,152.324982 
	C779.864258,149.522232 770.921021,152.144852 763.850403,159.612579 
	C757.447754,166.374771 751.021729,173.114944 744.638916,179.895798 
	C722.597168,203.312271 696.791260,222.087982 670.244141,239.890381 
	C657.199646,248.638000 650.664246,260.948364 647.667114,275.960144 
	C645.130371,288.665924 646.864746,301.065979 649.050781,313.455750 
	C651.835876,329.241119 653.362061,345.229797 651.376343,361.011108 
	C645.375305,408.701324 627.998413,452.096802 599.593811,490.970734 
	C572.553894,527.977051 539.483704,559.201721 505.511108,589.633240 
	C486.479034,606.681519 465.529755,621.609070 448.535614,640.923462 
	C432.711151,658.908447 417.499390,677.361023 405.194733,698.007202 
	C393.807556,717.113770 382.410553,736.216797 371.293823,755.480713 
	C368.327881,760.620361 365.952362,766.200012 364.032166,771.825623 
	C357.748230,790.235229 355.989929,809.378662 355.687347,828.688477 
	C355.438354,844.581543 353.377472,859.382446 344.523926,873.755798 
	C330.538818,896.460083 327.504364,921.603455 335.623505,947.590027 
	C337.199280,952.633545 338.483643,957.852783 339.134186,963.086426 
	C342.369537,989.114075 342.184937,1014.475525 322.540802,1035.239136 
	C313.190216,1045.122803 313.384705,1055.610229 319.341827,1067.124390 
	C330.634338,1088.950928 339.954620,1111.822632 353.921326,1132.220581 
	C356.345795,1135.761597 358.978333,1139.214355 361.893951,1142.355957 
	C380.919220,1162.855713 398.737854,1184.271484 414.107574,1207.723999 
	C419.779755,1216.379272 422.276550,1224.857178 421.999939,1235.533447 
	C421.105499,1270.053955 421.406372,1304.614502 421.736633,1339.155029 
	C422.089661,1376.077515 422.678467,1413.004150 423.776917,1449.910767 
	C424.526794,1475.106934 426.327301,1500.271606 427.658051,1525.450439 
	C428.184937,1535.419434 427.496429,1544.953491 424.160278,1554.758911 
	C412.616730,1588.686890 401.864990,1622.904541 395.140076,1658.201538 
	C392.349426,1672.848755 390.703522,1687.743774 387.325256,1702.243774 
	C378.140442,1741.666382 367.780701,1780.819458 358.891998,1820.305542 
	C351.103149,1854.905640 344.203522,1889.725464 337.779358,1924.608032 
	C330.877808,1962.082520 324.733368,1999.632446 314.677551,2036.513428 
	C306.223053,2067.520996 301.185028,2099.354248 298.293457,2133.311768 
M2544.333496,1351.139160 
	C2544.776855,1340.533325 2545.652832,1329.924438 2545.578857,1319.322266 
	C2545.392822,1292.712646 2544.777588,1266.106201 2544.331543,1239.498413 
	C2544.281250,1236.503174 2544.632324,1233.424072 2544.058105,1230.530518 
	C2542.868408,1224.534424 2544.642334,1219.564941 2547.743652,1214.519531 
	C2561.375732,1192.342163 2577.032471,1171.693237 2594.854980,1152.773315 
	C2606.572510,1140.333862 2616.740723,1126.954712 2624.364990,1111.648560 
	C2631.327148,1097.671753 2638.156982,1083.621826 2645.461426,1069.824585 
	C2652.538574,1056.456299 2653.512695,1044.104004 2641.548828,1032.856079 
	C2639.885742,1031.292480 2638.829102,1029.093384 2637.440430,1027.226685 
	C2629.202148,1016.151306 2625.784912,1003.705811 2625.536133,989.926941 
	C2625.245361,973.818481 2627.023926,958.161621 2631.678955,942.716980 
	C2635.687988,929.415894 2635.315918,915.863464 2632.578857,902.305359 
	C2629.637451,887.734985 2622.735596,874.911377 2615.470703,862.188904 
	C2613.735596,859.150940 2612.065674,855.670593 2611.784912,852.276245 
	C2610.363037,835.102966 2609.780518,817.856689 2608.197998,800.701111 
	C2606.208496,779.132385 2599.725586,759.109680 2585.697266,742.045959 
	C2584.245361,740.280029 2583.407715,738.018860 2582.212646,736.030884 
	C2570.234375,716.106995 2559.171387,695.550720 2545.997803,676.450317 
	C2532.066895,656.252502 2516.226318,637.456421 2497.326172,621.339600 
	C2460.657959,590.071533 2424.082275,558.681702 2391.929199,522.543213 
	C2361.969971,488.870483 2337.856445,451.884735 2324.930176,408.280701 
	C2319.262939,389.162323 2314.722900,369.933380 2314.099609,349.773773 
	C2313.561279,332.351410 2317.661621,315.557251 2318.985840,298.423096 
	C2320.885742,273.842560 2315.638184,252.672714 2293.091064,237.988953 
	C2267.156250,221.099030 2242.447510,202.446518 2221.158936,179.698532 
	C2215.022949,173.141953 2208.770264,166.694168 2202.656982,160.116760 
	C2195.085938,151.970825 2185.603027,149.522751 2175.362305,152.551086 
	C2156.457031,158.141754 2138.505371,166.128799 2123.066406,178.649963 
	C2112.472412,187.241577 2104.493408,197.766663 2103.769287,212.211105 
	C2102.548828,236.553436 2105.929932,259.782562 2118.631592,281.282501 
	C2124.167969,290.653564 2128.145752,300.964020 2132.583740,310.957886 
	C2135.106445,316.638702 2134.617188,322.463623 2133.121338,328.506592 
	C2131.623047,334.559753 2130.588379,340.873505 2130.486084,347.091644 
	C2130.339844,356.023804 2131.061768,364.984314 2131.699707,373.912262 
	C2132.903809,390.769196 2134.312012,407.611572 2135.635498,424.460022 
	C2138.906494,466.108734 2144.431641,507.474701 2151.942627,548.553040 
	C2154.309326,561.497864 2156.046143,574.696045 2163.129883,586.489014 
	C2165.247803,590.015076 2165.460938,595.535400 2164.676514,599.797913 
	C2162.152100,613.517151 2159.077148,627.104797 2160.281494,641.209534 
	C2160.420166,642.834045 2159.884766,644.506226 2159.768555,646.163757 
	C2158.611572,662.695007 2156.813477,679.213623 2156.460938,695.762756 
	C2155.440186,743.678040 2155.319336,791.612915 2154.231201,839.526184 
	C2153.432129,874.719421 2151.864746,909.900024 2150.218018,945.066528 
	C2149.677246,956.611938 2148.700684,968.277039 2146.385010,979.572021 
	C2140.410645,1008.713318 2130.158936,1036.362183 2115.254639,1062.233521 
	C2112.991699,1066.161743 2110.880127,1070.706543 2110.516357,1075.116211 
	C2107.545654,1111.120850 2103.565430,1147.126831 2102.702148,1183.199707 
	C2101.628418,1228.068237 2102.447510,1273.029419 2104.062256,1317.892456 
	C2104.741699,1336.768066 2102.772705,1353.945190 2095.460693,1371.651489 
	C2080.771729,1407.221191 2067.786865,1443.527100 2055.125488,1479.886719 
	C2049.692871,1495.487793 2047.549194,1512.206055 2042.658081,1528.029297 
	C2025.106323,1584.812378 2006.889404,1641.389404 1989.197021,1698.129639 
	C1981.894287,1721.549561 1974.535889,1744.907471 1969.123047,1768.954102 
	C1963.307251,1794.791260 1955.520752,1820.298340 1946.886841,1845.361328 
	C1933.016235,1885.626221 1914.419678,1923.927979 1895.359619,1961.972290 
	C1893.148682,1966.385254 1891.171387,1971.069946 1890.076538,1975.855347 
	C1887.638428,1986.513306 1885.475952,1997.261230 1883.830566,2008.068115 
	C1879.844238,2034.251831 1875.904541,2060.450928 1872.582153,2086.723877 
	C1870.980347,2099.390625 1870.814209,2112.239258 1869.955444,2125.671143 
	C1874.439575,2125.671143 1877.721069,2125.707764 1881.001343,2125.665527 
	C1914.941895,2125.229004 1948.880981,2124.596680 1982.822876,2124.374268 
	C2039.469360,2124.003174 2096.117920,2123.978027 2152.764648,2123.647461 
	C2210.705078,2123.309326 2268.643799,2122.687500 2326.584229,2122.358887 
	C2385.897461,2122.022461 2445.211670,2121.820312 2504.525879,2121.693359 
	C2554.524170,2121.586182 2604.522705,2121.691162 2654.521240,2121.630859 
	C2658.302979,2121.626221 2662.084229,2121.052979 2666.230469,2120.714111 
	C2666.112549,2118.204346 2666.136963,2116.913086 2665.979492,2115.644287 
	C2662.012451,2083.680664 2655.692383,2052.170166 2647.685059,2020.987793 
	C2644.551758,2008.786377 2640.239258,1996.771606 2638.362549,1984.384033 
	C2630.861084,1934.868530 2621.547852,1885.713257 2611.140381,1836.739746 
	C2598.456543,1777.052002 2580.760742,1718.523438 2570.719971,1658.205444 
	C2564.766357,1622.439819 2553.203125,1588.016113 2541.549561,1553.772949 
	C2538.187988,1543.894531 2537.881836,1534.314209 2538.422119,1524.421509 
	C2540.031494,1494.956421 2542.455566,1465.525269 2543.501709,1436.043213 
	C2544.482178,1408.422119 2544.110352,1380.752930 2544.333496,1351.139160 
M639.365234,266.863983 
	C643.629333,251.597458 651.641907,239.351425 665.475830,230.663223 
	C677.557800,223.075317 689.025635,214.426102 700.280518,205.626450 
	C713.873535,194.998749 727.285889,184.184326 738.751953,171.028564 
	C746.562195,162.067337 755.854248,154.393173 764.542419,146.205765 
	C765.955200,144.874374 767.673035,143.866623 769.914673,142.221344 
	C587.483521,142.221344 406.293274,142.221344 224.912079,142.221344 
	C224.912079,995.735474 224.912079,1848.689819 224.912079,2702.222900 
	C232.823654,2694.341309 238.811630,2686.273682 242.419998,2676.341309 
	C247.776840,2661.596191 255.332428,2647.950195 264.906464,2635.451660 
	C267.270233,2632.365967 268.895966,2629.352539 268.637299,2624.749023 
	C268.138031,2615.864014 269.103394,2606.879395 269.706787,2597.952637 
	C271.512970,2571.230469 268.691254,2544.941406 262.496368,2518.965088 
	C259.652039,2507.038330 254.977509,2495.282227 254.053223,2483.224854 
	C252.614532,2464.457031 253.100189,2445.477051 253.808395,2426.625977 
	C254.660675,2403.940430 261.513824,2382.686035 274.073303,2363.842285 
	C284.921265,2347.566406 288.650208,2329.861816 288.292694,2310.910400 
	C287.809937,2285.317139 287.081543,2259.727783 286.320801,2234.140869 
	C285.331879,2200.881592 285.210968,2167.641357 287.996735,2134.450195 
	C291.249237,2095.698486 298.460175,2057.637939 308.076874,2019.999634 
	C311.525116,2006.503906 315.619629,1993.126953 318.207153,1979.466187 
	C327.272552,1931.605103 335.063873,1883.493042 344.735077,1835.759155 
	C356.980804,1775.318359 375.306671,1716.240601 385.544250,1655.301147 
	C391.221741,1621.505615 402.246826,1589.047485 412.660950,1556.486694 
	C415.696655,1546.995239 418.692261,1537.621826 417.731323,1527.377686 
	C416.370392,1512.870117 415.075043,1498.337524 414.434509,1483.785400 
	C413.250763,1456.893311 411.989655,1429.983643 411.788818,1403.073730 
	C411.383942,1348.828735 411.667206,1294.578857 411.671173,1240.330933 
	C411.671387,1237.332275 411.251160,1234.239014 411.841217,1231.356567 
	C412.792908,1226.707397 411.290863,1223.131104 408.917786,1219.248535 
	C398.313110,1201.898193 386.449554,1185.495361 372.869507,1170.370728 
	C357.094208,1152.801270 341.157379,1135.384033 330.714600,1113.841431 
	C324.623596,1101.276245 318.855011,1088.530884 312.203735,1076.266602 
	C302.059265,1057.561157 301.738922,1040.363647 317.779175,1024.620972 
	C319.879517,1022.559448 321.513123,1019.913269 322.956970,1017.312622 
	C327.186554,1009.694214 330.021027,1001.662415 330.384827,992.788513 
	C331.002716,977.715210 329.506042,962.944214 325.336639,948.420410 
	C317.082672,919.668213 321.266907,892.192627 336.319641,866.911499 
	C343.137756,855.460449 345.070312,843.766663 345.720734,831.159546 
	C346.370087,818.572937 346.806488,805.922546 348.479584,793.453491 
	C351.205933,773.135071 357.577698,754.050110 370.624115,737.687134 
	C372.673340,735.116943 374.036530,732.000488 375.723175,729.140259 
	C385.849213,711.968018 395.235382,694.302002 406.283752,677.745117 
	C421.611908,654.774780 439.097198,633.402710 460.062683,615.184875 
	C498.204041,582.042175 537.028015,549.647644 570.251221,511.274048 
	C600.709290,476.094360 623.718201,436.980042 635.414612,391.560974 
	C641.701599,367.147400 644.175049,342.603394 639.548035,317.710968 
	C636.488647,301.252228 635.116516,284.886627 639.365234,266.863983 
M2199.524414,144.991608 
	C2206.229736,150.897446 2213.192627,156.540115 2219.572266,162.779053 
	C2226.696777,169.746765 2232.614502,178.079376 2240.254150,184.362823 
	C2257.689697,198.702820 2275.866211,212.141129 2293.720215,225.973892 
	C2300.522949,231.244537 2308.285645,235.704208 2313.837158,242.078339 
	C2328.018066,258.360809 2331.055420,278.264191 2329.066162,299.082123 
	C2327.870605,311.594116 2325.227783,323.992371 2324.466309,336.516571 
	C2322.314453,371.905457 2332.446777,404.844604 2346.604492,436.618561 
	C2363.063232,473.556549 2387.656494,505.020782 2416.118896,533.270264 
	C2438.524414,555.508301 2461.508301,577.341980 2485.817139,597.442383 
	C2522.677979,627.921814 2552.988770,663.503601 2577.000000,704.683533 
	C2585.357910,719.017212 2593.925537,733.229858 2602.170898,747.627319 
	C2605.129639,752.793152 2607.816162,758.188965 2609.949951,763.740051 
	C2618.048828,784.807556 2620.104004,806.894958 2620.316650,829.235046 
	C2620.447266,842.931885 2622.991943,855.487183 2630.218262,867.844666 
	C2644.874268,892.907593 2648.777832,920.100403 2640.692871,948.515869 
	C2639.152100,953.930603 2637.533447,959.418030 2636.903564,964.979858 
	C2634.720459,984.255188 2633.014160,1003.578491 2645.320312,1020.696350 
	C2648.229004,1024.741699 2651.206543,1028.742310 2654.282227,1032.661621 
	C2661.920898,1042.395508 2663.856201,1052.926270 2658.640625,1064.346436 
	C2653.948975,1074.619263 2648.748047,1084.666382 2644.267822,1095.027466 
	C2633.070312,1120.923462 2617.881348,1143.977417 2598.333008,1164.458618 
	C2582.486084,1181.061768 2568.715088,1199.477661 2557.180420,1219.418579 
	C2555.593994,1222.161011 2553.983643,1225.433838 2553.978760,1228.463745 
	C2553.920654,1264.322510 2554.494385,1300.184082 2554.242188,1336.040283 
	C2553.972900,1374.299561 2553.320312,1412.562988 2552.217773,1450.806885 
	C2551.491211,1476.005127 2549.595459,1501.168213 2548.392822,1526.355103 
	C2548.046387,1533.607666 2548.294434,1540.692871 2550.567627,1547.934326 
	C2559.014893,1574.846436 2567.536377,1601.778931 2574.543213,1629.085327 
	C2579.967529,1650.225220 2582.637695,1672.056396 2587.488525,1693.362671 
	C2595.075684,1726.688843 2603.674805,1759.783325 2611.476318,1793.062500 
	C2623.361084,1843.757446 2634.230957,1894.659180 2642.421387,1946.115601 
	C2645.385254,1964.736206 2648.314209,1983.495850 2653.274414,2001.640991 
	C2670.697266,2065.374023 2681.158936,2129.979980 2680.264404,2196.184082 
	C2680.048828,2212.114014 2678.470459,2228.032715 2678.480957,2243.956299 
	C2678.491943,2260.547363 2679.878906,2277.132812 2680.271484,2293.730225 
	C2680.667236,2310.476562 2683.135254,2326.728760 2689.839600,2342.194824 
	C2694.988770,2354.074463 2700.161621,2365.944580 2705.157471,2377.888672 
	C2706.273926,2380.557861 2707.988281,2383.974365 2707.183350,2386.255371 
	C2705.079590,2392.220947 2707.605713,2397.410156 2708.469482,2402.869629 
	C2709.607910,2410.062744 2711.808838,2417.172363 2712.170654,2424.387451 
	C2713.252197,2445.956543 2713.906982,2467.555664 2714.252197,2489.150391 
	C2714.525879,2506.269043 2712.028320,2522.804443 2702.424316,2537.699951 
	C2697.225342,2545.763184 2696.661377,2555.317139 2696.437988,2564.572266 
	C2696.053223,2580.527588 2696.242676,2596.499512 2696.364258,2612.463135 
	C2696.438477,2622.200195 2698.342529,2631.261963 2704.289062,2639.568359 
	C2713.771484,2652.813965 2722.716309,2666.522217 2727.032471,2682.533203 
	C2729.286865,2690.895996 2735.412354,2696.035889 2741.231934,2702.034668 
	C2741.231934,1848.417603 2741.231934,995.535339 2741.231934,141.661652 
	C2737.572021,141.661652 2734.336914,141.661652 2731.102051,141.661652 
	C2556.107178,141.661652 2381.112061,141.659393 2206.117188,141.680817 
	C2203.157227,141.681183 2200.197510,141.968536 2197.237549,142.122009 
	C2197.548096,142.831085 2197.858887,143.540161 2199.524414,144.991608 
M390.734711,2867.576172 
	C386.181580,2864.775635 386.181580,2864.775635 380.283051,2867.073975 
	C384.730652,2867.551758 386.994171,2867.794922 390.734711,2867.576172 
M2579.027588,2864.916260 
	C2577.653564,2865.603760 2576.279541,2866.291260 2574.905518,2866.978760 
	C2574.998047,2867.359863 2575.090332,2867.740967 2575.182617,2868.122070 
	C2577.921631,2867.974121 2580.660889,2867.826172 2583.399902,2867.678223 
	C2583.541016,2867.135986 2583.682129,2866.593750 2583.823242,2866.051514 
	C2582.744141,2865.430420 2581.665039,2864.809326 2579.027588,2864.916260 
z"/>
<path fill="#000000" opacity="1.000000" stroke="none" 
	d="
M1969.934448,1725.830933 
	C1965.359009,1743.958008 1960.742065,1761.251831 1956.647583,1778.668579 
	C1946.568115,1821.543213 1930.726929,1862.351685 1912.498047,1902.285645 
	C1904.079956,1920.726929 1894.707153,1938.732544 1886.300537,1957.178711 
	C1883.181519,1964.022949 1881.029419,1971.438354 1879.394409,1978.805786 
	C1871.992188,2012.159058 1867.040527,2045.897095 1863.531128,2079.890869 
	C1861.175537,2102.707520 1859.489258,2125.503906 1859.587524,2148.448486 
	C1859.621582,2156.388428 1858.172485,2164.352295 1858.439087,2172.270264 
	C1859.522827,2204.461182 1860.975464,2236.640137 1862.364868,2268.820312 
	C1862.923096,2281.748779 1863.969360,2294.662354 1864.272583,2307.594971 
	C1865.106812,2343.182129 1865.526855,2378.778809 1866.396240,2414.364990 
	C1866.785156,2430.284424 1867.937744,2446.304199 1872.708862,2461.515625 
	C1874.903076,2468.510986 1879.592651,2475.186768 1884.564453,2480.741943 
	C1892.530396,2489.642578 1901.766602,2497.395752 1910.269775,2505.831787 
	C1913.527344,2509.063721 1916.245728,2512.838867 1919.816284,2517.088135 
	C1928.551270,2511.979492 1937.874268,2506.479248 1947.242065,2501.056641 
	C1990.187866,2476.197754 2034.453857,2454.231934 2081.795898,2438.830566 
	C2110.662842,2429.439209 2129.541016,2425.873291 2169.792969,2423.428711 
	C2169.792969,2427.263916 2169.792969,2431.069092 2169.792969,2435.483887 
	C2145.267334,2435.510254 2121.876221,2439.977539 2098.901611,2446.531738 
	C2071.379395,2454.383057 2044.944702,2465.116211 2018.991455,2477.196533 
	C1985.166992,2492.940430 1952.826050,2511.315674 1921.400757,2531.300537 
	C1913.696411,2536.200439 1907.234619,2543.058105 1900.219360,2549.036621 
	C1887.074707,2560.239014 1873.401001,2570.889160 1860.928223,2582.796387 
	C1840.464111,2602.333008 1821.064941,2622.983154 1800.667358,2642.592041 
	C1788.227661,2654.550537 1774.963501,2665.685059 1761.681641,2676.722656 
	C1752.746460,2684.147705 1743.101318,2690.714355 1733.829224,2697.738525 
	C1712.322510,2714.031982 1703.952759,2735.313721 1710.338745,2761.723389 
	C1712.119141,2769.086670 1715.138306,2776.183105 1717.959961,2783.254150 
	C1723.124146,2796.195557 1728.424072,2809.087646 1733.964844,2821.871338 
	C1735.933350,2826.412842 1738.548706,2830.720459 1741.246216,2834.891113 
	C1749.870117,2848.225098 1766.258057,2854.179199 1782.168823,2846.478516 
	C1802.484497,2836.645996 1822.802490,2826.679443 1842.362427,2815.451660 
	C1894.243286,2785.669922 1945.736816,2755.213135 1997.311646,2724.900879 
	C2000.988403,2722.739990 2007.049561,2721.435791 2002.899536,2714.359619 
	C2013.573486,2709.695312 2023.760376,2705.716064 2033.518188,2700.872559 
	C2049.269043,2693.053955 2064.708008,2684.608887 2080.346436,2676.560791 
	C2084.143555,2674.606445 2088.096924,2672.815674 2092.165527,2671.552979 
	C2108.872314,2666.368652 2123.386963,2656.807373 2138.410156,2648.363281 
	C2174.974854,2627.812012 2210.326904,2605.368896 2242.973633,2578.886719 
	C2243.457764,2578.493896 2244.185547,2578.401367 2245.475586,2577.912354 
	C2247.621094,2580.476318 2249.911133,2583.213135 2252.683105,2586.526123 
	C2219.981445,2613.368652 2184.686523,2635.486816 2149.127930,2658.267090 
	C2155.012451,2657.369141 2160.888428,2656.408203 2166.784424,2655.592041 
	C2172.022705,2654.866943 2177.281250,2653.784912 2182.534424,2653.764648 
	C2197.851074,2653.705811 2213.177002,2653.870361 2228.485352,2654.372070 
	C2248.185059,2655.017334 2267.174316,2659.788086 2286.000977,2665.210449 
	C2290.466064,2666.496582 2294.765137,2668.357666 2299.228760,2669.649902 
	C2315.431152,2674.341797 2330.037598,2681.960938 2342.642822,2693.211182 
	C2362.229248,2710.691895 2381.963867,2728.015869 2401.220703,2745.854248 
	C2433.672363,2775.916260 2465.615723,2806.528320 2498.150879,2836.498779 
	C2511.565430,2848.855713 2526.713379,2859.011230 2545.678955,2867.158447 
	C1836.856934,2867.158447 1130.306763,2867.158447 423.756592,2867.158447 
	C423.571014,2866.760254 423.385437,2866.361816 423.199890,2865.963623 
	C426.784790,2863.911377 430.235840,2861.565186 433.979492,2859.861816 
	C445.832336,2854.468994 455.024933,2845.927002 462.765747,2835.747070 
	C485.957062,2805.248291 510.686737,2776.025635 538.852356,2750.065918 
	C555.173767,2735.022461 572.822021,2721.243164 590.939148,2708.398682 
	C599.956482,2702.005371 611.210510,2698.572998 621.732910,2694.530273 
	C664.049255,2678.272949 707.794983,2667.537109 752.730835,2661.708984 
	C768.480225,2659.666260 784.276550,2656.936035 800.083313,2656.705078 
	C813.534546,2656.509033 827.046204,2659.335449 840.504150,2661.038574 
	C853.314392,2662.659668 866.070496,2664.713623 878.885254,2666.294189 
	C895.008667,2668.282959 909.368347,2674.836914 923.651184,2682.141357 
	C950.223755,2695.729980 972.592285,2715.227295 996.349121,2732.770264 
	C1036.548462,2762.455322 1079.038696,2788.500977 1122.497681,2813.059570 
	C1135.794556,2820.573730 1148.622192,2828.921387 1161.952515,2836.372559 
	C1173.885376,2843.042725 1186.396729,2847.986084 1200.493530,2848.590332 
	C1206.214478,2848.835693 1211.161499,2848.237061 1215.083252,2844.462402 
	C1219.816895,2839.906982 1225.197266,2835.308105 1228.011108,2829.600586 
	C1238.578003,2808.168701 1248.772339,2786.497070 1254.408203,2763.070557 
	C1259.043579,2743.803223 1254.282837,2725.832764 1244.385742,2709.741455 
	C1239.956421,2702.540039 1231.620850,2697.251221 1224.147705,2692.538330 
	C1215.195679,2686.892334 1205.149658,2683.010254 1195.823975,2677.913574 
	C1191.868652,2675.751709 1188.088013,2672.868408 1184.998779,2669.587646 
	C1160.833862,2643.923584 1137.452148,2617.491455 1112.632446,2592.483887 
	C1092.749268,2572.450439 1071.354126,2553.895996 1050.235718,2535.128906 
	C1046.021484,2531.384033 1045.214233,2527.958984 1046.198364,2523.029297 
	C1048.871948,2509.635986 1055.723145,2499.174072 1067.189209,2491.647705 
	C1071.891968,2488.561035 1076.506348,2485.267334 1080.790894,2481.631592 
	C1087.602173,2475.851807 1092.086304,2468.190430 1093.617554,2459.605957 
	C1096.227783,2444.972656 1098.639648,2430.188232 1099.442261,2415.375732 
	C1100.558228,2394.775391 1099.962524,2374.087402 1100.375244,2353.442383 
	C1100.880371,2328.181641 1100.869995,2302.873047 1102.545654,2277.682617 
	C1104.530396,2247.843262 1105.329224,2217.980469 1106.760498,2188.141602 
	C1107.991577,2162.479980 1106.588501,2136.987793 1105.303345,2111.540283 
	C1103.600830,2077.830322 1099.243042,2044.263428 1092.847900,2011.036621 
	C1091.594849,2004.526367 1090.574585,1997.967651 1089.589844,1991.409912 
	C1086.945557,1973.803955 1080.381348,1957.713745 1072.343994,1941.865723 
	C1053.401855,1904.515747 1036.467773,1866.231689 1023.079712,1826.492798 
	C1014.170898,1800.049561 1007.826843,1772.935303 1001.970093,1745.651978 
	C998.776978,1730.776855 993.317383,1716.379395 988.725708,1701.815063 
	C970.255127,1643.228149 951.524231,1584.722290 933.350403,1526.043579 
	C928.549072,1510.541504 926.468262,1494.165039 921.263916,1478.825928 
	C910.493286,1447.080811 898.504639,1415.747681 886.921448,1384.280396 
	C884.284302,1377.116089 881.825439,1369.796997 878.289978,1363.072021 
	C871.725403,1350.585449 871.185120,1337.380981 871.629822,1323.776978 
	C872.683533,1291.542603 874.089539,1259.299927 874.142334,1227.058472 
	C874.187500,1199.486938 873.029114,1171.886108 871.505432,1144.347900 
	C870.243164,1121.534180 867.614014,1098.797852 865.717590,1076.016724 
	C865.188843,1069.664917 863.705505,1063.837036 860.403259,1058.215332 
	C845.810852,1033.373169 835.717285,1006.679504 829.771912,978.551331 
	C827.455139,967.590393 826.324402,956.270752 825.793030,945.060486 
	C824.126099,909.894104 822.594543,874.711609 821.767334,839.517517 
	C820.688232,793.603149 820.592407,747.665771 819.543457,701.750427 
	C819.104492,682.536743 817.307678,663.353882 816.113586,644.157959 
	C816.031067,642.831665 815.608704,641.496033 815.710571,640.193420 
	C816.811096,626.127319 814.596130,612.421692 811.488770,598.782593 
	C811.004089,596.655090 810.464233,593.914429 811.362000,592.194397 
	C820.311523,575.048401 822.651672,556.089355 825.464783,537.532959 
	C831.568542,497.269379 836.702576,456.846191 841.462158,416.397552 
	C843.436707,399.616974 843.627625,382.611389 844.265869,365.694397 
	C844.650757,355.493896 844.354431,345.266907 844.316833,335.051971 
	C844.310730,333.395508 844.492371,331.544373 843.849548,330.114960 
	C838.785400,318.854706 844.257446,309.398438 848.939453,299.876892 
	C853.479004,290.645111 858.587646,281.688568 862.990784,272.395294 
	C872.859741,251.565826 873.641357,229.339752 871.653687,206.985275 
	C870.238220,191.066620 860.745850,179.499420 848.642944,169.931488 
	C833.585754,158.027985 816.199890,150.576965 798.377441,143.999039 
	C797.575745,143.703156 796.815857,143.294144 794.197083,142.096863 
	C1254.036499,142.096863 1711.867798,142.096863 2171.632324,142.096863 
	C2162.584473,145.847046 2155.093506,148.706482 2147.810303,152.023224 
	C2133.839844,158.385513 2120.459717,165.683136 2109.588623,176.896698 
	C2099.151367,187.662842 2094.250244,200.287186 2093.474609,215.390244 
	C2091.931885,245.423279 2100.324219,272.406799 2115.668213,297.766418 
	C2118.735596,302.835999 2120.971191,308.471985 2123.052490,314.047546 
	C2124.059326,316.744720 2124.786377,320.201874 2123.990234,322.811737 
	C2118.202393,341.786530 2120.608154,361.105286 2122.196777,380.113495 
	C2125.506348,419.715759 2129.500488,459.291016 2134.541992,498.707397 
	C2137.773926,523.972107 2143.316650,548.944763 2147.982666,574.018677 
	C2148.705566,577.902283 2149.574951,582.066040 2151.604980,585.338440 
	C2156.716553,593.578857 2154.577148,601.620850 2152.492920,609.984192 
	C2151.304199,614.754639 2150.712158,619.730774 2150.386719,624.649658 
	C2148.941650,646.493835 2147.684814,668.350464 2146.380859,690.203857 
	C2146.281494,691.865234 2146.342041,693.536255 2146.333252,695.202820 
	C2146.109619,737.184937 2146.071533,779.169250 2145.592529,821.148438 
	C2145.319092,845.077087 2144.746826,869.018738 2143.543213,892.915894 
	C2142.260010,918.396851 2141.007568,943.943787 2137.988037,969.252686 
	C2135.548096,989.705322 2128.744385,1009.350098 2120.477051,1028.272705 
	C2115.958740,1038.613892 2110.877686,1048.751953 2105.369385,1058.600586 
	C2102.352783,1063.994385 2100.812744,1069.503174 2100.342773,1075.469116 
	C2098.754395,1095.630981 2097.460693,1115.819458 2095.605225,1135.956421 
	C2092.522461,1169.412598 2092.086670,1202.960938 2091.736084,1236.507812 
	C2091.551514,1254.152344 2091.812500,1271.815063 2092.418701,1289.450684 
	C2093.010010,1306.662842 2094.457275,1323.844727 2095.129639,1341.055542 
	C2095.250488,1344.143311 2093.630127,1347.380981 2092.481445,1350.423950 
	C2077.589844,1389.874756 2062.072510,1429.102173 2047.958252,1468.828247 
	C2041.652222,1486.576904 2038.682617,1505.481567 2033.231812,1523.570068 
	C2022.886230,1557.902222 2011.832031,1592.020508 2001.094482,1626.234741 
	C1990.758545,1659.169678 1980.450928,1692.113647 1969.934448,1725.830933 
z"/>
<path fill="#000000" opacity="1.000000" stroke="none" 
	d="
M298.312836,2132.379639 
	C301.185028,2099.354248 306.223053,2067.520996 314.677551,2036.513428 
	C324.733368,1999.632446 330.877808,1962.082520 337.779358,1924.608032 
	C344.203522,1889.725464 351.103149,1854.905640 358.891998,1820.305542 
	C367.780701,1780.819458 378.140442,1741.666382 387.325256,1702.243774 
	C390.703522,1687.743774 392.349426,1672.848755 395.140076,1658.201538 
	C401.864990,1622.904541 412.616730,1588.686890 424.160278,1554.758911 
	C427.496429,1544.953491 428.184937,1535.419434 427.658051,1525.450439 
	C426.327301,1500.271606 424.526794,1475.106934 423.776917,1449.910767 
	C422.678467,1413.004150 422.089661,1376.077515 421.736633,1339.155029 
	C421.406372,1304.614502 421.105499,1270.053955 421.999939,1235.533447 
	C422.276550,1224.857178 419.779755,1216.379272 414.107574,1207.723999 
	C398.737854,1184.271484 380.919220,1162.855713 361.893951,1142.355957 
	C358.978333,1139.214355 356.345795,1135.761597 353.921326,1132.220581 
	C339.954620,1111.822632 330.634338,1088.950928 319.341827,1067.124390 
	C313.384705,1055.610229 313.190216,1045.122803 322.540802,1035.239136 
	C342.184937,1014.475525 342.369537,989.114075 339.134186,963.086426 
	C338.483643,957.852783 337.199280,952.633545 335.623505,947.590027 
	C327.504364,921.603455 330.538818,896.460083 344.523926,873.755798 
	C353.377472,859.382446 355.438354,844.581543 355.687347,828.688477 
	C355.989929,809.378662 357.748230,790.235229 364.032166,771.825623 
	C365.952362,766.200012 368.327881,760.620361 371.293823,755.480713 
	C382.410553,736.216797 393.807556,717.113770 405.194733,698.007202 
	C417.499390,677.361023 432.711151,658.908447 448.535614,640.923462 
	C465.529755,621.609070 486.479034,606.681519 505.511108,589.633240 
	C539.483704,559.201721 572.553894,527.977051 599.593811,490.970734 
	C627.998413,452.096802 645.375305,408.701324 651.376343,361.011108 
	C653.362061,345.229797 651.835876,329.241119 649.050781,313.455750 
	C646.864746,301.065979 645.130371,288.665924 647.667114,275.960144 
	C650.664246,260.948364 657.199646,248.638000 670.244141,239.890381 
	C696.791260,222.087982 722.597168,203.312271 744.638916,179.895798 
	C751.021729,173.114944 757.447754,166.374771 763.850403,159.612579 
	C770.921021,152.144852 779.864258,149.522232 789.367859,152.324982 
	C811.513489,158.856049 832.453979,167.922379 849.235046,184.640182 
	C857.958984,193.331177 861.753601,203.685532 862.453796,215.902725 
	C864.036682,243.522339 855.972900,268.251221 841.928711,291.602997 
	C838.205872,297.792999 835.377197,304.697540 833.267151,311.618256 
	C831.870361,316.199768 830.980408,321.920990 832.482544,326.215912 
	C836.934875,338.945282 835.924133,351.917816 835.470764,364.768616 
	C834.875488,381.641937 833.291138,398.499359 831.613220,415.311829 
	C826.547424,466.067596 821.340454,516.823364 810.171936,566.703491 
	C808.683044,573.352783 804.950623,579.470276 802.946533,586.044189 
	C801.641663,590.324280 800.371826,595.221069 801.191101,599.432007 
	C803.921204,613.463379 804.563354,627.644775 806.114746,641.762634 
	C810.639038,682.934082 809.183594,724.143250 809.661255,765.350647 
	C809.900513,785.996582 809.942261,806.646484 810.381104,827.288025 
	C810.840149,848.880737 811.282166,870.486206 812.433777,892.048645 
	C813.847656,918.520630 815.197998,945.040100 818.070435,971.376038 
	C820.308594,991.896851 827.462646,1011.437500 835.249634,1030.514648 
	C839.379150,1040.631470 844.772522,1050.245850 849.823730,1059.968384 
	C853.219177,1066.503784 855.581848,1073.023560 856.016663,1080.646362 
	C857.772400,1111.423462 861.040955,1142.133301 862.120850,1172.925171 
	C863.472351,1211.461304 863.620361,1250.055176 863.486267,1288.621338 
	C863.424194,1306.478638 861.377869,1324.324951 860.464966,1342.188232 
	C860.336670,1344.699951 861.252563,1347.392334 862.178955,1349.811890 
	C877.018066,1388.569336 892.220764,1427.191040 906.676941,1466.090088 
	C911.400574,1478.800781 914.197327,1492.224854 917.932068,1505.306396 
	C923.848389,1526.029297 929.420471,1546.860840 935.831055,1567.430542 
	C954.007385,1625.752686 972.786804,1683.888062 990.746460,1742.276001 
	C995.217407,1756.811646 997.154236,1772.107056 1000.832092,1786.910034 
	C1011.197021,1828.626953 1026.611328,1868.561768 1044.559326,1907.530640 
	C1053.316895,1926.545288 1062.845825,1945.203491 1071.748779,1964.153076 
	C1073.833130,1968.589478 1075.129639,1973.477417 1076.220459,1978.286377 
	C1084.365601,2014.194702 1089.388794,2050.626709 1093.434937,2087.168457 
	C1095.295166,2103.968018 1095.422241,2120.959717 1096.333252,2137.864258 
	C1096.779175,2146.138672 1097.661499,2154.417969 1097.566895,2162.686035 
	C1097.400146,2177.281006 1096.636597,2191.869141 1096.101807,2207.058594 
	C829.421143,2207.058594 563.004639,2207.058594 295.894745,2207.058594 
	C295.227051,2182.222900 296.007172,2157.750000 298.312836,2132.379639 
z"/>
<path fill="#000000" opacity="1.000000" stroke="none" 
	d="
M2544.333496,1352.122070 
	C2544.110352,1380.752930 2544.482178,1408.422119 2543.501709,1436.043213 
	C2542.455566,1465.525269 2540.031494,1494.956421 2538.422119,1524.421509 
	C2537.881836,1534.314209 2538.187988,1543.894531 2541.549561,1553.772949 
	C2553.203125,1588.016113 2564.766357,1622.439819 2570.719971,1658.205444 
	C2580.760742,1718.523438 2598.456543,1777.052002 2611.140381,1836.739746 
	C2621.547852,1885.713257 2630.861084,1934.868530 2638.362549,1984.384033 
	C2640.239258,1996.771606 2644.551758,2008.786377 2647.685059,2020.987793 
	C2655.692383,2052.170166 2662.012451,2083.680664 2665.979492,2115.644287 
	C2666.136963,2116.913086 2666.112549,2118.204346 2666.230469,2120.714111 
	C2662.084229,2121.052979 2658.302979,2121.626221 2654.521240,2121.630859 
	C2604.522705,2121.691162 2554.524170,2121.586182 2504.525879,2121.693359 
	C2445.211670,2121.820312 2385.897461,2122.022461 2326.584229,2122.358887 
	C2268.643799,2122.687500 2210.705078,2123.309326 2152.764648,2123.647461 
	C2096.117920,2123.978027 2039.469360,2124.003174 1982.822876,2124.374268 
	C1948.880981,2124.596680 1914.941895,2125.229004 1881.001343,2125.665527 
	C1877.721069,2125.707764 1874.439575,2125.671143 1869.955444,2125.671143 
	C1870.814209,2112.239258 1870.980347,2099.390625 1872.582153,2086.723877 
	C1875.904541,2060.450928 1879.844238,2034.251831 1883.830566,2008.068115 
	C1885.475952,1997.261230 1887.638428,1986.513306 1890.076538,1975.855347 
	C1891.171387,1971.069946 1893.148682,1966.385254 1895.359619,1961.972290 
	C1914.419678,1923.927979 1933.016235,1885.626221 1946.886841,1845.361328 
	C1955.520752,1820.298340 1963.307251,1794.791260 1969.123047,1768.954102 
	C1974.535889,1744.907471 1981.894287,1721.549561 1989.197021,1698.129639 
	C2006.889404,1641.389404 2025.106323,1584.812378 2042.658081,1528.029297 
	C2047.549194,1512.206055 2049.692871,1495.487793 2055.125488,1479.886719 
	C2067.786865,1443.527100 2080.771729,1407.221191 2095.460693,1371.651489 
	C2102.772705,1353.945190 2104.741699,1336.768066 2104.062256,1317.892456 
	C2102.447510,1273.029419 2101.628418,1228.068237 2102.702148,1183.199707 
	C2103.565430,1147.126831 2107.545654,1111.120850 2110.516357,1075.116211 
	C2110.880127,1070.706543 2112.991699,1066.161743 2115.254639,1062.233521 
	C2130.158936,1036.362183 2140.410645,1008.713318 2146.385010,979.572021 
	C2148.700684,968.277039 2149.677246,956.611938 2150.218018,945.066528 
	C2151.864746,909.900024 2153.432129,874.719421 2154.231201,839.526184 
	C2155.319336,791.612915 2155.440186,743.678040 2156.460938,695.762756 
	C2156.813477,679.213623 2158.611572,662.695007 2159.768555,646.163757 
	C2159.884766,644.506226 2160.420166,642.834045 2160.281494,641.209534 
	C2159.077148,627.104797 2162.152100,613.517151 2164.676514,599.797913 
	C2165.460938,595.535400 2165.247803,590.015076 2163.129883,586.489014 
	C2156.046143,574.696045 2154.309326,561.497864 2151.942627,548.553040 
	C2144.431641,507.474701 2138.906494,466.108734 2135.635498,424.460022 
	C2134.312012,407.611572 2132.903809,390.769196 2131.699707,373.912262 
	C2131.061768,364.984314 2130.339844,356.023804 2130.486084,347.091644 
	C2130.588379,340.873505 2131.623047,334.559753 2133.121338,328.506592 
	C2134.617188,322.463623 2135.106445,316.638702 2132.583740,310.957886 
	C2128.145752,300.964020 2124.167969,290.653564 2118.631592,281.282501 
	C2105.929932,259.782562 2102.548828,236.553436 2103.769287,212.211105 
	C2104.493408,197.766663 2112.472412,187.241577 2123.066406,178.649963 
	C2138.505371,166.128799 2156.457031,158.141754 2175.362305,152.551086 
	C2185.603027,149.522751 2195.085938,151.970825 2202.656982,160.116760 
	C2208.770264,166.694168 2215.022949,173.141953 2221.158936,179.698532 
	C2242.447510,202.446518 2267.156250,221.099030 2293.091064,237.988953 
	C2315.638184,252.672714 2320.885742,273.842560 2318.985840,298.423096 
	C2317.661621,315.557251 2313.561279,332.351410 2314.099609,349.773773 
	C2314.722900,369.933380 2319.262939,389.162323 2324.930176,408.280701 
	C2337.856445,451.884735 2361.969971,488.870483 2391.929199,522.543213 
	C2424.082275,558.681702 2460.657959,590.071533 2497.326172,621.339600 
	C2516.226318,637.456421 2532.066895,656.252502 2545.997803,676.450317 
	C2559.171387,695.550720 2570.234375,716.106995 2582.212646,736.030884 
	C2583.407715,738.018860 2584.245361,740.280029 2585.697266,742.045959 
	C2599.725586,759.109680 2606.208496,779.132385 2608.197998,800.701111 
	C2609.780518,817.856689 2610.363037,835.102966 2611.784912,852.276245 
	C2612.065674,855.670593 2613.735596,859.150940 2615.470703,862.188904 
	C2622.735596,874.911377 2629.637451,887.734985 2632.578857,902.305359 
	C2635.315918,915.863464 2635.687988,929.415894 2631.678955,942.716980 
	C2627.023926,958.161621 2625.245361,973.818481 2625.536133,989.926941 
	C2625.784912,1003.705811 2629.202148,1016.151306 2637.440430,1027.226685 
	C2638.829102,1029.093384 2639.885742,1031.292480 2641.548828,1032.856079 
	C2653.512695,1044.104004 2652.538574,1056.456299 2645.461426,1069.824585 
	C2638.156982,1083.621826 2631.327148,1097.671753 2624.364990,1111.648560 
	C2616.740723,1126.954712 2606.572510,1140.333862 2594.854980,1152.773315 
	C2577.032471,1171.693237 2561.375732,1192.342163 2547.743652,1214.519531 
	C2544.642334,1219.564941 2542.868408,1224.534424 2544.058105,1230.530518 
	C2544.632324,1233.424072 2544.281250,1236.503174 2544.331543,1239.498413 
	C2544.777588,1266.106201 2545.392822,1292.712646 2545.578857,1319.322266 
	C2545.652832,1329.924438 2544.776855,1340.533325 2544.333496,1352.122070 
z"/>
<path fill="#010101" opacity="1.000000" stroke="none" 
	d="
M639.009399,267.615723 
	C635.116516,284.886627 636.488647,301.252228 639.548035,317.710968 
	C644.175049,342.603394 641.701599,367.147400 635.414612,391.560974 
	C623.718201,436.980042 600.709290,476.094360 570.251221,511.274048 
	C537.028015,549.647644 498.204041,582.042175 460.062683,615.184875 
	C439.097198,633.402710 421.611908,654.774780 406.283752,677.745117 
	C395.235382,694.302002 385.849213,711.968018 375.723175,729.140259 
	C374.036530,732.000488 372.673340,735.116943 370.624115,737.687134 
	C357.577698,754.050110 351.205933,773.135071 348.479584,793.453491 
	C346.806488,805.922546 346.370087,818.572937 345.720734,831.159546 
	C345.070312,843.766663 343.137756,855.460449 336.319641,866.911499 
	C321.266907,892.192627 317.082672,919.668213 325.336639,948.420410 
	C329.506042,962.944214 331.002716,977.715210 330.384827,992.788513 
	C330.021027,1001.662415 327.186554,1009.694214 322.956970,1017.312622 
	C321.513123,1019.913269 319.879517,1022.559448 317.779175,1024.620972 
	C301.738922,1040.363647 302.059265,1057.561157 312.203735,1076.266602 
	C318.855011,1088.530884 324.623596,1101.276245 330.714600,1113.841431 
	C341.157379,1135.384033 357.094208,1152.801270 372.869507,1170.370728 
	C386.449554,1185.495361 398.313110,1201.898193 408.917786,1219.248535 
	C411.290863,1223.131104 412.792908,1226.707397 411.841217,1231.356567 
	C411.251160,1234.239014 411.671387,1237.332275 411.671173,1240.330933 
	C411.667206,1294.578857 411.383942,1348.828735 411.788818,1403.073730 
	C411.989655,1429.983643 413.250763,1456.893311 414.434509,1483.785400 
	C415.075043,1498.337524 416.370392,1512.870117 417.731323,1527.377686 
	C418.692261,1537.621826 415.696655,1546.995239 412.660950,1556.486694 
	C402.246826,1589.047485 391.221741,1621.505615 385.544250,1655.301147 
	C375.306671,1716.240601 356.980804,1775.318359 344.735077,1835.759155 
	C335.063873,1883.493042 327.272552,1931.605103 318.207153,1979.466187 
	C315.619629,1993.126953 311.525116,2006.503906 308.076874,2019.999634 
	C298.460175,2057.637939 291.249237,2095.698486 287.996735,2134.450195 
	C285.210968,2167.641357 285.331879,2200.881592 286.320801,2234.140869 
	C287.081543,2259.727783 287.809937,2285.317139 288.292694,2310.910400 
	C288.650208,2329.861816 284.921265,2347.566406 274.073303,2363.842285 
	C261.513824,2382.686035 254.660675,2403.940430 253.808395,2426.625977 
	C253.100189,2445.477051 252.614532,2464.457031 254.053223,2483.224854 
	C254.977509,2495.282227 259.652039,2507.038330 262.496368,2518.965088 
	C268.691254,2544.941406 271.512970,2571.230469 269.706787,2597.952637 
	C269.103394,2606.879395 268.138031,2615.864014 268.637299,2624.749023 
	C268.895966,2629.352539 267.270233,2632.365967 264.906464,2635.451660 
	C255.332428,2647.950195 247.776840,2661.596191 242.419998,2676.341309 
	C238.811630,2686.273682 232.823654,2694.341309 224.912079,2702.222900 
	C224.912079,1848.689819 224.912079,995.735474 224.912079,142.221344 
	C406.293274,142.221344 587.483521,142.221344 769.914673,142.221344 
	C767.673035,143.866623 765.955200,144.874374 764.542419,146.205765 
	C755.854248,154.393173 746.562195,162.067337 738.751953,171.028564 
	C727.285889,184.184326 713.873535,194.998749 700.280518,205.626450 
	C689.025635,214.426102 677.557800,223.075317 665.475830,230.663223 
	C651.641907,239.351425 643.629333,251.597458 639.009399,267.615723 
z"/>
<path fill="#010101" opacity="1.000000" stroke="none" 
	d="
M2198.847168,144.620422 
	C2197.858887,143.540161 2197.548096,142.831085 2197.237549,142.121994 
	C2200.197510,141.968536 2203.157227,141.681183 2206.117188,141.680817 
	C2381.112061,141.659393 2556.107178,141.661652 2731.102051,141.661652 
	C2734.336914,141.661652 2737.572021,141.661652 2741.231934,141.661652 
	C2741.231934,995.535339 2741.231934,1848.417603 2741.231934,2702.034668 
	C2735.412354,2696.035889 2729.286865,2690.895996 2727.032471,2682.533203 
	C2722.716309,2666.522217 2713.771484,2652.813965 2704.289062,2639.568359 
	C2698.342529,2631.261963 2696.438477,2622.200195 2696.364258,2612.463135 
	C2696.242676,2596.499512 2696.053223,2580.527588 2696.437988,2564.572266 
	C2696.661377,2555.317139 2697.225342,2545.763184 2702.424316,2537.699951 
	C2712.028320,2522.804443 2714.525879,2506.269043 2714.252197,2489.150391 
	C2713.906982,2467.555664 2713.252197,2445.956543 2712.170654,2424.387451 
	C2711.808838,2417.172363 2709.607910,2410.062744 2708.469482,2402.869629 
	C2707.605713,2397.410156 2705.079590,2392.220947 2707.183350,2386.255371 
	C2707.988281,2383.974365 2706.273926,2380.557861 2705.157471,2377.888672 
	C2700.161621,2365.944580 2694.988770,2354.074463 2689.839600,2342.194824 
	C2683.135254,2326.728760 2680.667236,2310.476562 2680.271484,2293.730225 
	C2679.878906,2277.132812 2678.491943,2260.547363 2678.480957,2243.956299 
	C2678.470459,2228.032715 2680.048828,2212.114014 2680.264404,2196.184082 
	C2681.158936,2129.979980 2670.697266,2065.374023 2653.274414,2001.640991 
	C2648.314209,1983.495850 2645.385254,1964.736206 2642.421387,1946.115601 
	C2634.230957,1894.659180 2623.361084,1843.757446 2611.476318,1793.062500 
	C2603.674805,1759.783325 2595.075684,1726.688843 2587.488525,1693.362671 
	C2582.637695,1672.056396 2579.967529,1650.225220 2574.543213,1629.085327 
	C2567.536377,1601.778931 2559.014893,1574.846436 2550.567627,1547.934326 
	C2548.294434,1540.692871 2548.046387,1533.607666 2548.392822,1526.355103 
	C2549.595459,1501.168213 2551.491211,1476.005127 2552.217773,1450.806885 
	C2553.320312,1412.562988 2553.972900,1374.299561 2554.242188,1336.040283 
	C2554.494385,1300.184082 2553.920654,1264.322510 2553.978760,1228.463745 
	C2553.983643,1225.433838 2555.593994,1222.161011 2557.180420,1219.418579 
	C2568.715088,1199.477661 2582.486084,1181.061768 2598.333008,1164.458618 
	C2617.881348,1143.977417 2633.070312,1120.923462 2644.267822,1095.027466 
	C2648.748047,1084.666382 2653.948975,1074.619263 2658.640625,1064.346436 
	C2663.856201,1052.926270 2661.920898,1042.395508 2654.282227,1032.661621 
	C2651.206543,1028.742310 2648.229004,1024.741699 2645.320312,1020.696350 
	C2633.014160,1003.578491 2634.720459,984.255188 2636.903564,964.979858 
	C2637.533447,959.418030 2639.152100,953.930603 2640.692871,948.515869 
	C2648.777832,920.100403 2644.874268,892.907593 2630.218262,867.844666 
	C2622.991943,855.487183 2620.447266,842.931885 2620.316650,829.235046 
	C2620.104004,806.894958 2618.048828,784.807556 2609.949951,763.740051 
	C2607.816162,758.188965 2605.129639,752.793152 2602.170898,747.627319 
	C2593.925537,733.229858 2585.357910,719.017212 2577.000000,704.683533 
	C2552.988770,663.503601 2522.677979,627.921814 2485.817139,597.442383 
	C2461.508301,577.341980 2438.524414,555.508301 2416.118896,533.270264 
	C2387.656494,505.020782 2363.063232,473.556549 2346.604492,436.618561 
	C2332.446777,404.844604 2322.314453,371.905457 2324.466309,336.516571 
	C2325.227783,323.992371 2327.870605,311.594116 2329.066162,299.082123 
	C2331.055420,278.264191 2328.018066,258.360809 2313.837158,242.078339 
	C2308.285645,235.704208 2300.522949,231.244537 2293.720215,225.973892 
	C2275.866211,212.141129 2257.689697,198.702820 2240.254150,184.362823 
	C2232.614502,178.079376 2226.696777,169.746765 2219.572266,162.779053 
	C2213.192627,156.540115 2206.229736,150.897446 2198.847168,144.620422 
z"/>
<path fill="#050505" opacity="1.000000" stroke="none" 
	d="
M2741.674072,2744.206787 
	C2741.674072,2784.827148 2741.674072,2825.447266 2741.674072,2865.965332 
	C2734.322021,2868.163818 2593.279297,2868.494141 2581.648682,2864.575195 
	C2583.321045,2863.824219 2585.058838,2863.191162 2586.656006,2862.304443 
	C2626.848877,2840.000488 2663.535645,2812.676025 2698.272705,2782.796143 
	C2712.307129,2770.724121 2724.653809,2756.689453 2738.546875,2743.114746 
	C2740.108154,2743.189697 2740.891113,2743.698242 2741.674072,2744.206787 
z"/>
<path fill="#050505" opacity="1.000000" stroke="none" 
	d="
M227.558823,2742.361328 
	C235.702896,2751.066895 243.682404,2759.933594 252.027344,2768.442139 
	C266.695679,2783.397949 281.131073,2798.662109 298.350281,2810.804932 
	C311.375366,2819.989502 324.442932,2829.148926 337.894989,2837.683838 
	C351.860687,2846.545166 366.319092,2854.628662 380.534912,2863.098145 
	C381.570099,2863.715088 382.384521,2864.702637 383.522034,2865.713623 
	C376.787781,2868.144287 238.876617,2868.824951 224.311203,2866.527832 
	C224.311203,2826.474365 224.311203,2786.260742 224.688751,2744.831543 
	C225.897141,2743.197510 226.727982,2742.779541 227.558823,2742.361328 
z"/>
<path fill="#7D7D7D" opacity="1.000000" stroke="none" 
	d="
M227.510361,2741.587402 
	C226.727982,2742.779541 225.897141,2743.197510 224.696320,2743.906494 
	C224.326324,2739.385010 224.326324,2734.572754 224.326324,2729.760742 
	C224.555557,2729.730225 224.784790,2729.699707 225.014023,2729.669189 
	C225.829987,2733.384033 226.645950,2737.098877 227.510361,2741.587402 
z"/>
<path fill="#7D7D7D" opacity="1.000000" stroke="none" 
	d="
M2741.939453,2743.373779 
	C2740.891113,2743.698242 2740.108154,2743.189697 2738.878418,2742.529785 
	C2739.187012,2738.292969 2739.942139,2734.207031 2740.697266,2730.121094 
	C2741.199707,2730.102051 2741.702148,2730.082764 2742.204590,2730.063721 
	C2742.204590,2734.222656 2742.204590,2738.381836 2741.939453,2743.373779 
z"/>
<path fill="#7D7D7D" opacity="1.000000" stroke="none" 
	d="
M389.996185,2867.807129 
	C386.994171,2867.794922 384.730652,2867.551758 380.283051,2867.073975 
	C386.181580,2864.775635 386.181580,2864.775635 389.996185,2867.807129 
z"/>
<path fill="#7D7D7D" opacity="1.000000" stroke="none" 
	d="
M2579.806885,2864.552246 
	C2581.665039,2864.809326 2582.744141,2865.430420 2583.823242,2866.051514 
	C2583.682129,2866.593750 2583.541016,2867.135986 2583.399902,2867.678223 
	C2580.660889,2867.826172 2577.921631,2867.974121 2575.182617,2868.122070 
	C2575.090332,2867.740967 2574.998047,2867.359863 2574.905518,2866.978760 
	C2576.279541,2866.291260 2577.653564,2865.603760 2579.806885,2864.552246 
z"/>
</svg>