<svg version="1.1" id="Layer_1" xmlns="http://www.w3.org/2000/svg" xmlns:xlink="http://www.w3.org/1999/xlink" x="0px" y="0px"
	 width="100%" viewBox="0 0 3000 3000" enable-background="new 0 0 3000 3000" xml:space="preserve">
<path fill="#FFFFFF" opacity="1.000000" stroke="none" 
	d="
M2.000000,1068.000000 
	C2.000000,712.000061 2.000000,357.000122 2.000000,2.000143 
	C1001.999756,2.000095 2001.999512,2.000095 3001.999512,2.000048 
	C3001.999512,1001.999573 3001.999512,2001.999146 3001.999756,3001.999023 
	C2002.000610,3001.999512 1002.001221,3001.999512 2.000900,3001.999756 
	C2.000000,2357.666748 2.000000,1713.333374 2.000000,1068.000000 
M1255.000122,181.665710 
	C1124.680908,181.761093 994.361694,181.856262 864.042480,181.970444 
	C863.824524,181.970627 863.476624,182.215073 863.419250,182.412292 
	C863.332458,182.710403 863.448242,183.067474 863.482239,183.447830 
	C880.221985,189.831650 896.774414,196.624481 911.206238,207.630249 
	C923.466919,216.980301 933.565002,228.155991 935.420959,243.961517 
	C937.924744,265.284943 936.634888,286.541901 927.858826,306.545471 
	C922.794067,318.089600 916.764709,329.217773 910.986938,340.439209 
	C907.215698,347.763489 905.047913,354.958740 908.146606,363.300049 
	C909.594543,367.197571 909.543091,371.768158 909.612915,376.042786 
	C910.074402,404.299133 907.181641,432.337433 904.516052,460.429596 
	C901.007812,497.402405 896.350586,534.189270 889.706665,570.715271 
	C886.805542,586.664856 884.642456,602.832214 877.330933,617.695190 
	C876.163696,620.067871 876.520325,623.546631 877.072510,626.335754 
	C878.292969,632.499878 880.968018,638.477783 881.477112,644.661194 
	C882.865967,661.530640 883.806702,678.457520 884.253052,695.379456 
	C884.998657,723.646545 885.571594,751.927246 885.589294,780.202637 
	C885.622620,833.422424 886.459595,886.613403 889.704163,939.742676 
	C890.653564,955.288757 890.900635,971.004883 893.507385,986.295654 
	C898.626404,1016.322815 909.835876,1044.352295 924.585449,1071.012329 
	C927.069763,1075.502686 928.525085,1080.745483 929.530518,1085.823730 
	C930.747437,1091.970093 931.180115,1098.297852 931.604858,1104.570679 
	C933.687927,1135.338623 936.826172,1166.093628 937.374695,1196.892700 
	C938.097534,1237.479614 936.788269,1278.104004 936.267151,1318.711060 
	C936.177612,1325.686890 935.472290,1332.655640 935.413330,1339.630737 
	C935.378296,1343.776978 935.136780,1348.276123 936.558960,1352.020020 
	C943.633728,1370.644165 951.550049,1388.950073 958.561401,1407.596802 
	C967.207031,1430.590332 975.777283,1453.639038 983.366638,1476.993286 
	C988.173401,1491.784912 990.532104,1507.358521 995.040771,1522.263184 
	C1005.422485,1556.582886 1016.426331,1590.714478 1027.215576,1624.910522 
	C1037.906982,1658.795776 1049.123535,1692.525146 1059.174683,1726.598755 
	C1064.797119,1745.658936 1068.051514,1765.404907 1073.192627,1784.622559 
	C1085.346069,1830.053589 1104.010986,1872.986816 1124.317139,1915.262207 
	C1133.775757,1934.954102 1144.804443,1954.080811 1147.040649,1976.480713 
	C1147.401733,1980.098877 1148.221069,1983.675903 1148.909058,1987.256348 
	C1156.801392,2028.326782 1161.861084,2069.802490 1163.375366,2111.535645 
	C1164.435669,2140.756104 1163.138794,2170.085938 1162.235229,2199.346680 
	C1161.385010,2226.878174 1159.297363,2254.371338 1158.432251,2281.902588 
	C1157.366577,2315.813721 1157.164917,2349.751221 1156.243896,2383.667969 
	C1155.938110,2394.923340 1155.178467,2406.240479 1153.537109,2417.368896 
	C1150.861938,2435.507812 1143.456543,2450.598389 1125.972900,2459.749756 
	C1111.142822,2467.512451 1105.440918,2481.575439 1103.918091,2497.464355 
	C1123.093750,2514.953613 1142.341064,2531.845947 1160.831543,2549.530029 
	C1187.776733,2575.299805 1213.312622,2602.446777 1237.770142,2630.614502 
	C1241.568604,2634.989502 1246.612793,2638.564453 1251.664795,2641.506592 
	C1260.544312,2646.677246 1269.837769,2651.147705 1279.024048,2655.779785 
	C1304.670410,2668.712158 1310.670410,2698.425537 1306.494751,2718.740479 
	C1302.065186,2740.292725 1292.170288,2760.027832 1284.965332,2780.662354 
	C1282.253174,2788.429688 1277.229126,2794.500244 1271.396729,2800.087158 
	C1266.535767,2804.743408 1260.941895,2806.935791 1254.182251,2806.345947 
	C1244.499146,2805.501221 1235.023926,2803.682861 1226.494263,2798.913330 
	C1211.416382,2790.482178 1196.729614,2781.341309 1181.549561,2773.104980 
	C1109.359741,2733.936035 1042.718994,2686.779541 980.329895,2633.526855 
	C976.546692,2630.297607 973.065491,2629.318359 968.654602,2629.737305 
	C948.259277,2631.674805 928.248352,2628.727539 908.325439,2624.915771 
	C896.600464,2622.672607 885.028076,2619.412354 873.222656,2617.855225 
	C849.443481,2614.717773 825.585022,2614.912842 801.692261,2617.574219 
	C780.138733,2619.974365 759.172546,2624.732910 738.728333,2631.755859 
	C687.745544,2649.270264 644.693665,2679.316650 606.172546,2716.377930 
	C581.429993,2740.182861 559.194458,2766.193848 538.678833,2793.698730 
	C529.502625,2806.001221 517.927124,2815.117188 503.361206,2820.286377 
	C501.214722,2821.048340 499.193390,2822.162842 495.895874,2823.671875 
	C1231.408813,2823.671875 1965.231445,2823.671875 2699.198730,2823.671875 
	C2699.198730,2781.239990 2699.198730,2739.471924 2699.198730,2698.545410 
	C2687.344727,2709.645996 2675.866211,2721.551025 2663.205322,2732.027832 
	C2629.231201,2760.142090 2596.159424,2789.502686 2556.809082,2810.431641 
	C2544.184082,2817.146484 2531.723633,2820.015625 2517.644775,2816.318115 
	C2499.458008,2811.541992 2485.394531,2801.311035 2474.272217,2786.383057 
	C2447.364014,2750.267578 2417.445312,2716.946533 2382.685303,2688.117432 
	C2342.218750,2654.555176 2297.409912,2629.250732 2245.888184,2617.325439 
	C2227.706543,2613.117188 2209.026367,2611.062256 2189.929932,2607.917969 
	C2225.804932,2592.439453 2260.527344,2574.987549 2291.163574,2549.399170 
	C2288.332520,2546.131348 2286.235840,2543.710938 2284.349121,2541.533203 
	C2282.986084,2541.922607 2282.226318,2541.932373 2281.751221,2542.305176 
	C2247.106934,2569.475098 2208.090088,2588.458252 2167.004150,2603.538818 
	C2160.463135,2605.939697 2153.888428,2608.527100 2147.102051,2609.927490 
	C2129.920898,2613.472168 2112.679443,2616.855225 2095.333008,2619.433350 
	C2077.035645,2622.152344 2058.721436,2625.692627 2039.987305,2622.552979 
	C2037.265259,2622.096680 2033.570190,2623.776611 2031.192871,2625.599365 
	C2023.026978,2631.859863 2015.324707,2638.720215 2007.305908,2645.178223 
	C1974.409546,2671.671143 1941.256104,2697.877441 1905.296143,2720.138916 
	C1869.978149,2742.003174 1834.137695,2763.022705 1798.546631,2784.446777 
	C1787.076538,2791.351318 1775.076782,2796.866455 1761.788940,2799.261475 
	C1754.103882,2800.646973 1746.991333,2799.731201 1741.917236,2793.267334 
	C1737.654663,2787.836670 1733.044556,2782.330566 1730.340820,2776.097656 
	C1724.810181,2763.348877 1720.739624,2749.975098 1715.536621,2737.072998 
	C1710.753662,2725.213379 1707.150024,2713.222900 1708.368652,2700.302979 
	C1709.959717,2683.435547 1715.177612,2668.355713 1730.952881,2659.383057 
	C1741.331665,2653.479248 1751.813354,2647.690918 1762.603882,2642.603516 
	C1768.524414,2639.812256 1772.977173,2635.819580 1777.218994,2631.110840 
	C1793.232910,2613.333496 1809.061279,2595.371094 1825.590820,2578.082031 
	C1839.158081,2563.891357 1853.280884,2550.184814 1867.770630,2536.934082 
	C1887.847290,2518.574219 1907.588257,2499.931152 1930.791870,2485.115234 
	C1974.593262,2457.147461 2019.438721,2431.246094 2067.445557,2411.226807 
	C2099.986328,2397.657227 2133.294678,2386.439697 2168.828613,2383.590332 
	C2175.310791,2383.070557 2181.766113,2382.213867 2188.448486,2381.489258 
	C2188.257080,2377.679199 2188.094238,2374.433838 2187.902588,2370.618896 
	C2185.518555,2370.508057 2183.593506,2370.289551 2181.676514,2370.348633 
	C2159.660645,2371.025391 2138.217773,2375.278809 2117.117432,2381.249023 
	C2069.501709,2394.721680 2024.949097,2415.376465 1982.249512,2440.075928 
	C1958.091309,2454.049805 1934.444702,2468.907715 1910.068848,2483.669434 
	C1906.268188,2467.775391 1895.744629,2456.991943 1881.217651,2449.430420 
	C1878.113647,2447.814697 1875.680054,2444.725586 1873.251709,2442.031982 
	C1866.280762,2434.299072 1863.316040,2424.687988 1862.348755,2414.715576 
	C1860.589111,2396.577393 1859.017456,2378.379883 1858.463135,2360.174072 
	C1857.359619,2323.930420 1857.002319,2287.664062 1856.318726,2251.407471 
	C1856.293823,2250.083496 1856.025269,2248.766113 1855.959106,2247.440918 
	C1854.519897,2218.597656 1852.520386,2189.767578 1851.818237,2160.906006 
	C1851.042236,2129.015137 1851.657593,2097.080566 1855.732544,2065.377930 
	C1859.617188,2035.155151 1863.913330,2004.979858 1868.520630,1974.858887 
	C1869.960693,1965.445312 1871.865723,1955.796143 1875.547607,1947.096924 
	C1882.793823,1929.976318 1891.690552,1913.563354 1899.442139,1896.645630 
	C1915.359253,1861.907349 1930.583984,1826.856445 1940.360229,1789.785889 
	C1945.516113,1770.235474 1948.890747,1750.181885 1954.692383,1730.842285 
	C1967.571167,1687.910400 1981.644165,1645.338257 1994.902954,1602.518188 
	C2005.305542,1568.922607 2015.286011,1535.195435 2025.312012,1501.484619 
	C2029.282471,1488.134277 2032.000610,1474.350220 2036.797852,1461.319092 
	C2050.103027,1425.176880 2064.183105,1389.319702 2078.008545,1353.369751 
	C2079.802002,1348.706665 2080.950195,1344.251709 2080.529785,1338.969482 
	C2079.318604,1323.755127 2078.412598,1308.468262 2078.450195,1293.212402 
	C2078.546143,1254.305786 2078.762695,1215.388184 2079.826416,1176.499390 
	C2080.515381,1151.310913 2082.427490,1126.136597 2084.485352,1101.012817 
	C2085.552734,1087.979980 2085.471436,1074.485229 2094.022705,1063.087769 
	C2097.175049,1058.886353 2099.295654,1053.852905 2101.537842,1049.036377 
	C2116.133057,1017.682800 2124.275391,984.749451 2125.680908,950.151306 
	C2126.920898,919.632385 2128.737793,889.131470 2129.563477,858.602600 
	C2130.642822,818.690186 2130.891113,778.756104 2131.703369,738.835449 
	C2132.209961,713.915222 2130.878662,689.025085 2133.840576,664.047668 
	C2135.471436,650.297058 2135.536865,636.354553 2138.739746,622.714844 
	C2139.438965,619.737061 2139.465332,615.649780 2137.938477,613.266968 
	C2131.611328,603.391846 2129.935791,592.109192 2128.084229,581.124023 
	C2123.406494,553.368591 2119.655273,525.456116 2115.605469,497.595978 
	C2110.260498,460.826813 2107.074951,423.842407 2105.871582,386.729828 
	C2105.542236,376.574219 2107.775146,366.342804 2108.698975,356.134125 
	C2108.927979,353.603882 2109.340088,350.747711 2108.458984,348.519287 
	C2104.812256,339.295258 2101.557861,329.754852 2096.591064,321.246094 
	C2084.691895,300.861694 2079.719971,279.240906 2079.328369,255.654770 
	C2078.954102,233.092621 2088.962646,217.651535 2106.652832,205.782913 
	C2122.687256,195.025131 2140.207764,187.486755 2158.773438,181.665726 
	C1858.182373,181.665726 1557.591309,181.665726 1255.000122,181.665710 
M2699.670166,1055.000122 
	C2699.670166,764.130432 2699.670166,473.260803 2699.670166,182.226654 
	C2522.243652,182.226654 2345.894287,182.226654 2169.063721,182.226654 
	C2173.998535,185.404129 2178.616943,187.843689 2182.584473,191.081161 
	C2186.659180,194.406082 2190.132812,198.476837 2193.807373,202.280991 
	C2200.975098,209.701172 2207.412354,218.014771 2215.377930,224.438583 
	C2234.765137,240.072922 2254.588379,255.203690 2274.767334,269.802979 
	C2285.225830,277.369598 2292.534668,286.574554 2296.315918,298.781830 
	C2299.913818,310.395599 2300.476807,322.239502 2299.085205,334.225616 
	C2296.800293,353.909454 2292.583252,373.303040 2295.450684,393.499207 
	C2299.699463,423.429657 2308.635742,451.643463 2322.330078,478.482208 
	C2340.089111,513.287292 2365.166504,542.581177 2392.629395,569.779175 
	C2411.736084,588.701782 2431.755615,606.833130 2452.509033,623.932129 
	C2484.111572,649.969543 2511.123047,679.831177 2532.746826,714.497864 
	C2544.335205,733.076721 2555.501953,751.950317 2566.022461,771.149170 
	C2570.591309,779.486084 2573.752930,788.781982 2576.323730,797.985840 
	C2581.263184,815.668213 2582.671875,833.948853 2582.143555,852.216797 
	C2581.834229,862.913025 2583.339600,872.589294 2589.938232,881.173340 
	C2590.343994,881.701233 2590.757568,882.236816 2591.068848,882.821228 
	C2602.079102,903.473328 2608.914307,924.998169 2604.291748,948.750061 
	C2602.710693,956.873779 2600.540527,964.881042 2598.827881,972.981323 
	C2593.425293,998.535645 2595.107178,1022.620178 2613.839600,1043.003052 
	C2623.824707,1053.867798 2623.277100,1065.688232 2617.241211,1078.086792 
	C2613.169678,1086.449951 2609.213379,1094.870117 2605.085449,1103.205200 
	C2594.742676,1124.090332 2583.682861,1144.335205 2567.314941,1161.527954 
	C2549.896973,1179.823364 2534.286377,1199.729004 2521.316406,1221.573120 
	C2518.836670,1225.749023 2517.408203,1229.797852 2517.594482,1234.690186 
	C2518.024658,1245.996948 2518.394043,1257.319824 2518.281250,1268.631226 
	C2517.720947,1324.885864 2517.107910,1381.140625 2516.267578,1437.391479 
	C2515.984863,1456.320312 2515.084473,1475.243286 2514.248047,1494.159058 
	C2513.926758,1501.430908 2512.768066,1508.664062 2512.398438,1515.935669 
	C2511.809082,1527.528687 2512.327881,1538.765137 2516.145264,1550.207520 
	C2524.541260,1575.375610 2532.263672,1600.833130 2538.744873,1626.554565 
	C2543.836426,1646.761597 2546.015137,1667.686523 2550.632568,1688.032715 
	C2557.608154,1718.771606 2565.787354,1749.234985 2573.081543,1779.904297 
	C2585.206055,1830.882690 2596.029785,1882.132446 2604.246094,1933.909058 
	C2606.373291,1947.312134 2608.332275,1960.777344 2611.314453,1974.000610 
	C2615.472412,1992.437500 2620.839600,2010.599365 2625.117920,2029.011719 
	C2633.086426,2063.306396 2638.163574,2098.131592 2639.377197,2133.266113 
	C2640.327881,2160.789551 2638.709717,2188.398193 2638.352783,2215.970459 
	C2638.037842,2240.283691 2637.650879,2264.599854 2637.748047,2288.913086 
	C2637.814209,2305.492432 2642.107666,2320.794678 2651.496338,2334.944092 
	C2662.073242,2350.883545 2668.916504,2368.619385 2670.274902,2387.918213 
	C2671.393555,2403.809326 2672.107910,2419.758301 2672.140869,2435.683594 
	C2672.156494,2443.201660 2671.020264,2450.975098 2668.919922,2458.201172 
	C2659.964111,2489.017090 2654.466064,2520.230469 2655.625244,2552.452637 
	C2656.067871,2564.759766 2656.420166,2577.087402 2656.190674,2589.393799 
	C2656.084717,2595.096191 2658.057861,2599.337646 2661.103760,2603.929199 
	C2664.885010,2609.628662 2668.019775,2615.928711 2670.359375,2622.360107 
	C2672.373291,2627.896484 2672.884033,2633.980713 2674.052490,2639.823975 
	C2675.002930,2644.577148 2676.926025,2648.361084 2681.707031,2650.710449 
	C2687.776123,2653.692871 2693.473389,2657.431641 2699.670166,2661.042236 
	C2699.670166,2126.659668 2699.670166,1591.829956 2699.670166,1055.000122 
M481.578552,704.591797 
	C487.029541,697.046082 491.989227,689.077942 498.037018,682.045471 
	C509.492249,668.725220 520.554016,654.802917 533.588074,643.154846 
	C568.786072,611.699646 605.272156,581.705261 637.039551,546.546387 
	C667.998840,512.281982 692.242249,474.360138 704.648560,429.389191 
	C711.443176,404.759796 714.954224,380.066467 710.322266,354.627655 
	C707.752136,340.512726 706.448303,326.252777 708.297852,311.959351 
	C710.666382,293.655151 718.660156,278.793121 734.603394,268.297119 
	C760.475891,251.264328 785.267090,232.817642 806.576843,210.056671 
	C815.528381,200.495438 825.034485,191.453384 834.181885,182.282227 
	C659.364380,182.282227 483.744202,182.282227 308.250793,182.282227 
	C308.250793,1009.591309 308.250793,1836.282349 308.250793,2662.624756 
	C312.996857,2658.899170 317.043945,2654.008301 322.201050,2652.067871 
	C330.318207,2649.014404 333.098969,2643.703857 334.073975,2635.809326 
	C335.596100,2623.484131 339.103729,2611.825439 347.402496,2602.001953 
	C349.122162,2599.966553 349.910980,2596.768555 350.232025,2594.002441 
	C350.994476,2587.431885 351.461884,2580.804688 351.620361,2574.190186 
	C352.313873,2545.243164 351.817017,2516.361572 344.813232,2488.032227 
	C342.028076,2476.766602 337.697266,2465.768311 336.041656,2454.362061 
	C332.785187,2431.926758 333.545258,2409.300293 336.644775,2386.840820 
	C339.655243,2365.026123 349.192627,2345.807129 360.368652,2327.100342 
	C364.147583,2320.774902 366.432159,2313.096191 367.554688,2305.754150 
	C369.151306,2295.311523 369.544556,2284.608887 369.548553,2274.016846 
	C369.554596,2258.076172 368.375824,2242.133301 368.429474,2226.194092 
	C368.512054,2201.656006 365.234131,2177.184814 367.555542,2152.590576 
	C368.832855,2139.057861 368.900513,2125.414551 369.669556,2111.829834 
	C371.494415,2079.595215 378.133484,2048.158691 385.206116,2016.760498 
	C390.665436,1992.524536 398.352386,1968.853271 401.826996,1944.095093 
	C410.222504,1884.273926 423.502228,1825.399780 437.567841,1766.693481 
	C444.831482,1736.377075 452.665588,1706.140625 458.354004,1675.517334 
	C466.376495,1632.328613 477.574677,1590.099609 491.756531,1548.595337 
	C494.220612,1541.383911 495.351593,1534.370117 494.632019,1526.415527 
	C492.481415,1502.641846 491.420807,1478.757202 490.412842,1454.895752 
	C489.416962,1431.320190 488.433197,1407.719238 488.455109,1384.130371 
	C488.499908,1335.857910 489.219666,1287.586182 489.670105,1239.314087 
	C489.710419,1234.995483 489.670319,1230.946289 486.805573,1227.061523 
	C476.756683,1213.434204 467.523895,1199.183838 457.088013,1185.869995 
	C448.702942,1175.172729 438.144165,1166.138550 430.096558,1155.225830 
	C411.650818,1130.212769 398.608582,1102.081299 386.927063,1073.467529 
	C383.095551,1064.082275 384.629028,1053.747803 392.075287,1045.371338 
	C394.940002,1042.148682 397.569672,1038.682983 400.012939,1035.126465 
	C406.759857,1025.305298 410.393494,1014.592834 410.462006,1002.450317 
	C410.537781,989.016602 408.444366,976.086731 404.988129,963.149170 
	C399.911652,944.147034 399.487885,924.896790 406.504211,906.282471 
	C410.467010,895.769165 416.244873,885.952209 420.844025,875.660156 
	C422.541016,871.862427 423.884918,867.655090 424.205475,863.542236 
	C425.107422,851.968750 425.055542,840.319885 425.991852,828.750305 
	C428.083344,802.907166 433.543243,778.150879 450.774536,757.513184 
	C452.027161,756.012939 452.685486,754.026245 453.684082,752.302734 
	C462.679810,736.776917 471.689850,721.259460 481.578552,704.591797 
M368.117462,2756.875977 
	C346.941956,2739.730225 325.161865,2723.239014 308.217102,2700.650635 
	C308.217102,2742.279785 308.217102,2783.023193 308.217102,2823.793701 
	C360.718933,2823.793701 412.660370,2823.793701 465.633789,2823.793701 
	C452.631500,2816.468506 439.987671,2810.654785 428.810699,2802.763184 
	C408.492279,2788.417480 389.045624,2772.836914 368.117462,2756.875977 
z"/>
<path fill="#000000" opacity="1.000000" stroke="none" 
	d="
M1256.000244,181.665710 
	C1557.591309,181.665726 1858.182373,181.665726 2158.773438,181.665726 
	C2140.207764,187.486755 2122.687256,195.025131 2106.652832,205.782913 
	C2088.962646,217.651535 2078.954102,233.092621 2079.328369,255.654770 
	C2079.719971,279.240906 2084.691895,300.861694 2096.591064,321.246094 
	C2101.557861,329.754852 2104.812256,339.295258 2108.458984,348.519287 
	C2109.340088,350.747711 2108.927979,353.603882 2108.698975,356.134125 
	C2107.775146,366.342804 2105.542236,376.574219 2105.871582,386.729828 
	C2107.074951,423.842407 2110.260498,460.826813 2115.605469,497.595978 
	C2119.655273,525.456116 2123.406494,553.368591 2128.084229,581.124023 
	C2129.935791,592.109192 2131.611328,603.391846 2137.938477,613.266968 
	C2139.465332,615.649780 2139.438965,619.737061 2138.739746,622.714844 
	C2135.536865,636.354553 2135.471436,650.297058 2133.840576,664.047668 
	C2130.878662,689.025085 2132.209961,713.915222 2131.703369,738.835449 
	C2130.891113,778.756104 2130.642822,818.690186 2129.563477,858.602600 
	C2128.737793,889.131470 2126.920898,919.632385 2125.680908,950.151306 
	C2124.275391,984.749451 2116.133057,1017.682800 2101.537842,1049.036377 
	C2099.295654,1053.852905 2097.175049,1058.886353 2094.022705,1063.087769 
	C2085.471436,1074.485229 2085.552734,1087.979980 2084.485352,1101.012817 
	C2082.427490,1126.136597 2080.515381,1151.310913 2079.826416,1176.499390 
	C2078.762695,1215.388184 2078.546143,1254.305786 2078.450195,1293.212402 
	C2078.412598,1308.468262 2079.318604,1323.755127 2080.529785,1338.969482 
	C2080.950195,1344.251709 2079.802002,1348.706665 2078.008545,1353.369751 
	C2064.183105,1389.319702 2050.103027,1425.176880 2036.797852,1461.319092 
	C2032.000610,1474.350220 2029.282471,1488.134277 2025.312012,1501.484619 
	C2015.286011,1535.195435 2005.305542,1568.922607 1994.902954,1602.518188 
	C1981.644165,1645.338257 1967.571167,1687.910400 1954.692383,1730.842285 
	C1948.890747,1750.181885 1945.516113,1770.235474 1940.360229,1789.785889 
	C1930.583984,1826.856445 1915.359253,1861.907349 1899.442139,1896.645630 
	C1891.690552,1913.563354 1882.793823,1929.976318 1875.547607,1947.096924 
	C1871.865723,1955.796143 1869.960693,1965.445312 1868.520630,1974.858887 
	C1863.913330,2004.979858 1859.617188,2035.155151 1855.732544,2065.377930 
	C1851.657593,2097.080566 1851.042236,2129.015137 1851.818237,2160.906006 
	C1852.520386,2189.767578 1854.519897,2218.597656 1855.959106,2247.440918 
	C1856.025269,2248.766113 1856.293823,2250.083496 1856.318726,2251.407471 
	C1857.002319,2287.664062 1857.359619,2323.930420 1858.463135,2360.174072 
	C1859.017456,2378.379883 1860.589111,2396.577393 1862.348755,2414.715576 
	C1863.316040,2424.687988 1866.280762,2434.299072 1873.251709,2442.031982 
	C1875.680054,2444.725586 1878.113647,2447.814697 1881.217651,2449.430420 
	C1895.744629,2456.991943 1906.268188,2467.775391 1910.068848,2483.669434 
	C1934.444702,2468.907715 1958.091309,2454.049805 1982.249512,2440.075928 
	C2024.949097,2415.376465 2069.501709,2394.721680 2117.117432,2381.249023 
	C2138.217773,2375.278809 2159.660645,2371.025391 2181.676514,2370.348633 
	C2183.593506,2370.289551 2185.518555,2370.508057 2187.902588,2370.618896 
	C2188.094238,2374.433838 2188.257080,2377.679199 2188.448486,2381.489258 
	C2181.766113,2382.213867 2175.310791,2383.070557 2168.828613,2383.590332 
	C2133.294678,2386.439697 2099.986328,2397.657227 2067.445557,2411.226807 
	C2019.438721,2431.246094 1974.593262,2457.147461 1930.791870,2485.115234 
	C1907.588257,2499.931152 1887.847290,2518.574219 1867.770630,2536.934082 
	C1853.280884,2550.184814 1839.158081,2563.891357 1825.590820,2578.082031 
	C1809.061279,2595.371094 1793.232910,2613.333496 1777.218994,2631.110840 
	C1772.977173,2635.819580 1768.524414,2639.812256 1762.603882,2642.603516 
	C1751.813354,2647.690918 1741.331665,2653.479248 1730.952881,2659.383057 
	C1715.177612,2668.355713 1709.959717,2683.435547 1708.368652,2700.302979 
	C1707.150024,2713.222900 1710.753662,2725.213379 1715.536621,2737.072998 
	C1720.739624,2749.975098 1724.810181,2763.348877 1730.340820,2776.097656 
	C1733.044556,2782.330566 1737.654663,2787.836670 1741.917236,2793.267334 
	C1746.991333,2799.731201 1754.103882,2800.646973 1761.788940,2799.261475 
	C1775.076782,2796.866455 1787.076538,2791.351318 1798.546631,2784.446777 
	C1834.137695,2763.022705 1869.978149,2742.003174 1905.296143,2720.138916 
	C1941.256104,2697.877441 1974.409546,2671.671143 2007.305908,2645.178223 
	C2015.324707,2638.720215 2023.026978,2631.859863 2031.192871,2625.599365 
	C2033.570190,2623.776611 2037.265259,2622.096680 2039.987305,2622.552979 
	C2058.721436,2625.692627 2077.035645,2622.152344 2095.333008,2619.433350 
	C2112.679443,2616.855225 2129.920898,2613.472168 2147.102051,2609.927490 
	C2153.888428,2608.527100 2160.463135,2605.939697 2167.004150,2603.538818 
	C2208.090088,2588.458252 2247.106934,2569.475098 2281.751221,2542.305176 
	C2282.226318,2541.932373 2282.986084,2541.922607 2284.349121,2541.533203 
	C2286.235840,2543.710938 2288.332520,2546.131348 2291.163574,2549.399170 
	C2260.527344,2574.987549 2225.804932,2592.439453 2189.929932,2607.917969 
	C2209.026367,2611.062256 2227.706543,2613.117188 2245.888184,2617.325439 
	C2297.409912,2629.250732 2342.218750,2654.555176 2382.685303,2688.117432 
	C2417.445312,2716.946533 2447.364014,2750.267578 2474.272217,2786.383057 
	C2485.394531,2801.311035 2499.458008,2811.541992 2517.644775,2816.318115 
	C2531.723633,2820.015625 2544.184082,2817.146484 2556.809082,2810.431641 
	C2596.159424,2789.502686 2629.231201,2760.142090 2663.205322,2732.027832 
	C2675.866211,2721.551025 2687.344727,2709.645996 2699.198730,2698.545410 
	C2699.198730,2739.471924 2699.198730,2781.239990 2699.198730,2823.671875 
	C1965.231445,2823.671875 1231.408813,2823.671875 495.895874,2823.671875 
	C499.193390,2822.162842 501.214722,2821.048340 503.361206,2820.286377 
	C517.927124,2815.117188 529.502625,2806.001221 538.678833,2793.698730 
	C559.194458,2766.193848 581.429993,2740.182861 606.172546,2716.377930 
	C644.693665,2679.316650 687.745544,2649.270264 738.728333,2631.755859 
	C759.172546,2624.732910 780.138733,2619.974365 801.692261,2617.574219 
	C825.585022,2614.912842 849.443481,2614.717773 873.222656,2617.855225 
	C885.028076,2619.412354 896.600464,2622.672607 908.325439,2624.915771 
	C928.248352,2628.727539 948.259277,2631.674805 968.654602,2629.737305 
	C973.065491,2629.318359 976.546692,2630.297607 980.329895,2633.526855 
	C1042.718994,2686.779541 1109.359741,2733.936035 1181.549561,2773.104980 
	C1196.729614,2781.341309 1211.416382,2790.482178 1226.494263,2798.913330 
	C1235.023926,2803.682861 1244.499146,2805.501221 1254.182251,2806.345947 
	C1260.941895,2806.935791 1266.535767,2804.743408 1271.396729,2800.087158 
	C1277.229126,2794.500244 1282.253174,2788.429688 1284.965332,2780.662354 
	C1292.170288,2760.027832 1302.065186,2740.292725 1306.494751,2718.740479 
	C1310.670410,2698.425537 1304.670410,2668.712158 1279.024048,2655.779785 
	C1269.837769,2651.147705 1260.544312,2646.677246 1251.664795,2641.506592 
	C1246.612793,2638.564453 1241.568604,2634.989502 1237.770142,2630.614502 
	C1213.312622,2602.446777 1187.776733,2575.299805 1160.831543,2549.530029 
	C1142.341064,2531.845947 1123.093750,2514.953613 1103.918091,2497.464355 
	C1105.440918,2481.575439 1111.142822,2467.512451 1125.972900,2459.749756 
	C1143.456543,2450.598389 1150.861938,2435.507812 1153.537109,2417.368896 
	C1155.178467,2406.240479 1155.938110,2394.923340 1156.243896,2383.667969 
	C1157.164917,2349.751221 1157.366577,2315.813721 1158.432251,2281.902588 
	C1159.297363,2254.371338 1161.385010,2226.878174 1162.235229,2199.346680 
	C1163.138794,2170.085938 1164.435669,2140.756104 1163.375366,2111.535645 
	C1161.861084,2069.802490 1156.801392,2028.326782 1148.909058,1987.256348 
	C1148.221069,1983.675903 1147.401733,1980.098877 1147.040649,1976.480713 
	C1144.804443,1954.080811 1133.775757,1934.954102 1124.317139,1915.262207 
	C1104.010986,1872.986816 1085.346069,1830.053589 1073.192627,1784.622559 
	C1068.051514,1765.404907 1064.797119,1745.658936 1059.174683,1726.598755 
	C1049.123535,1692.525146 1037.906982,1658.795776 1027.215576,1624.910522 
	C1016.426331,1590.714478 1005.422485,1556.582886 995.040771,1522.263184 
	C990.532104,1507.358521 988.173401,1491.784912 983.366638,1476.993286 
	C975.777283,1453.639038 967.207031,1430.590332 958.561401,1407.596802 
	C951.550049,1388.950073 943.633728,1370.644165 936.558960,1352.020020 
	C935.136780,1348.276123 935.378296,1343.776978 935.413330,1339.630737 
	C935.472290,1332.655640 936.177612,1325.686890 936.267151,1318.711060 
	C936.788269,1278.104004 938.097534,1237.479614 937.374695,1196.892700 
	C936.826172,1166.093628 933.687927,1135.338623 931.604858,1104.570679 
	C931.180115,1098.297852 930.747437,1091.970093 929.530518,1085.823730 
	C928.525085,1080.745483 927.069763,1075.502686 924.585449,1071.012329 
	C909.835876,1044.352295 898.626404,1016.322815 893.507385,986.295654 
	C890.900635,971.004883 890.653564,955.288757 889.704163,939.742676 
	C886.459595,886.613403 885.622620,833.422424 885.589294,780.202637 
	C885.571594,751.927246 884.998657,723.646545 884.253052,695.379456 
	C883.806702,678.457520 882.865967,661.530640 881.477112,644.661194 
	C880.968018,638.477783 878.292969,632.499878 877.072510,626.335754 
	C876.520325,623.546631 876.163696,620.067871 877.330933,617.695190 
	C884.642456,602.832214 886.805542,586.664856 889.706665,570.715271 
	C896.350586,534.189270 901.007812,497.402405 904.516052,460.429596 
	C907.181641,432.337433 910.074402,404.299133 909.612915,376.042786 
	C909.543091,371.768158 909.594543,367.197571 908.146606,363.300049 
	C905.047913,354.958740 907.215698,347.763489 910.986938,340.439209 
	C916.764709,329.217773 922.794067,318.089600 927.858826,306.545471 
	C936.634888,286.541901 937.924744,265.284943 935.420959,243.961517 
	C933.565002,228.155991 923.466919,216.980301 911.206238,207.630249 
	C896.774414,196.624481 880.221985,189.831650 863.482239,183.447830 
	C863.448242,183.067474 863.332458,182.710403 863.419250,182.412292 
	C863.476624,182.215073 863.824524,181.970627 864.042480,181.970444 
	C994.361694,181.856262 1124.680908,181.761093 1256.000244,181.665710 
z"/>
<path fill="#010101" opacity="1.000000" stroke="none" 
	d="
M2699.670166,1056.000244 
	C2699.670166,1591.829956 2699.670166,2126.659668 2699.670166,2661.042236 
	C2693.473389,2657.431641 2687.776123,2653.692871 2681.707031,2650.710449 
	C2676.926025,2648.361084 2675.002930,2644.577148 2674.052490,2639.823975 
	C2672.884033,2633.980713 2672.373291,2627.896484 2670.359375,2622.360107 
	C2668.019775,2615.928711 2664.885010,2609.628662 2661.103760,2603.929199 
	C2658.057861,2599.337646 2656.084717,2595.096191 2656.190674,2589.393799 
	C2656.420166,2577.087402 2656.067871,2564.759766 2655.625244,2552.452637 
	C2654.466064,2520.230469 2659.964111,2489.017090 2668.919922,2458.201172 
	C2671.020264,2450.975098 2672.156494,2443.201660 2672.140869,2435.683594 
	C2672.107910,2419.758301 2671.393555,2403.809326 2670.274902,2387.918213 
	C2668.916504,2368.619385 2662.073242,2350.883545 2651.496338,2334.944092 
	C2642.107666,2320.794678 2637.814209,2305.492432 2637.748047,2288.913086 
	C2637.650879,2264.599854 2638.037842,2240.283691 2638.352783,2215.970459 
	C2638.709717,2188.398193 2640.327881,2160.789551 2639.377197,2133.266113 
	C2638.163574,2098.131592 2633.086426,2063.306396 2625.117920,2029.011719 
	C2620.839600,2010.599365 2615.472412,1992.437500 2611.314453,1974.000610 
	C2608.332275,1960.777344 2606.373291,1947.312134 2604.246094,1933.909058 
	C2596.029785,1882.132446 2585.206055,1830.882690 2573.081543,1779.904297 
	C2565.787354,1749.234985 2557.608154,1718.771606 2550.632568,1688.032715 
	C2546.015137,1667.686523 2543.836426,1646.761597 2538.744873,1626.554565 
	C2532.263672,1600.833130 2524.541260,1575.375610 2516.145264,1550.207520 
	C2512.327881,1538.765137 2511.809082,1527.528687 2512.398438,1515.935669 
	C2512.768066,1508.664062 2513.926758,1501.430908 2514.248047,1494.159058 
	C2515.084473,1475.243286 2515.984863,1456.320312 2516.267578,1437.391479 
	C2517.107910,1381.140625 2517.720947,1324.885864 2518.281250,1268.631226 
	C2518.394043,1257.319824 2518.024658,1245.996948 2517.594482,1234.690186 
	C2517.408203,1229.797852 2518.836670,1225.749023 2521.316406,1221.573120 
	C2534.286377,1199.729004 2549.896973,1179.823364 2567.314941,1161.527954 
	C2583.682861,1144.335205 2594.742676,1124.090332 2605.085449,1103.205200 
	C2609.213379,1094.870117 2613.169678,1086.449951 2617.241211,1078.086792 
	C2623.277100,1065.688232 2623.824707,1053.867798 2613.839600,1043.003052 
	C2595.107178,1022.620178 2593.425293,998.535645 2598.827881,972.981323 
	C2600.540527,964.881042 2602.710693,956.873779 2604.291748,948.750061 
	C2608.914307,924.998169 2602.079102,903.473328 2591.068848,882.821228 
	C2590.757568,882.236816 2590.343994,881.701233 2589.938232,881.173340 
	C2583.339600,872.589294 2581.834229,862.913025 2582.143555,852.216797 
	C2582.671875,833.948853 2581.263184,815.668213 2576.323730,797.985840 
	C2573.752930,788.781982 2570.591309,779.486084 2566.022461,771.149170 
	C2555.501953,751.950317 2544.335205,733.076721 2532.746826,714.497864 
	C2511.123047,679.831177 2484.111572,649.969543 2452.509033,623.932129 
	C2431.755615,606.833130 2411.736084,588.701782 2392.629395,569.779175 
	C2365.166504,542.581177 2340.089111,513.287292 2322.330078,478.482208 
	C2308.635742,451.643463 2299.699463,423.429657 2295.450684,393.499207 
	C2292.583252,373.303040 2296.800293,353.909454 2299.085205,334.225616 
	C2300.476807,322.239502 2299.913818,310.395599 2296.315918,298.781830 
	C2292.534668,286.574554 2285.225830,277.369598 2274.767334,269.802979 
	C2254.588379,255.203690 2234.765137,240.072922 2215.377930,224.438583 
	C2207.412354,218.014771 2200.975098,209.701172 2193.807373,202.280991 
	C2190.132812,198.476837 2186.659180,194.406082 2182.584473,191.081161 
	C2178.616943,187.843689 2173.998535,185.404129 2169.063721,182.226654 
	C2345.894287,182.226654 2522.243652,182.226654 2699.670166,182.226654 
	C2699.670166,473.260803 2699.670166,764.130432 2699.670166,1056.000244 
z"/>
<path fill="#000000" opacity="1.000000" stroke="none" 
	d="
M481.137115,705.165649 
	C471.689850,721.259460 462.679810,736.776917 453.684082,752.302734 
	C452.685486,754.026245 452.027161,756.012939 450.774536,757.513184 
	C433.543243,778.150879 428.083344,802.907166 425.991852,828.750305 
	C425.055542,840.319885 425.107422,851.968750 424.205475,863.542236 
	C423.884918,867.655090 422.541016,871.862427 420.844025,875.660156 
	C416.244873,885.952209 410.467010,895.769165 406.504211,906.282471 
	C399.487885,924.896790 399.911652,944.147034 404.988129,963.149170 
	C408.444366,976.086731 410.537781,989.016602 410.462006,1002.450317 
	C410.393494,1014.592834 406.759857,1025.305298 400.012939,1035.126465 
	C397.569672,1038.682983 394.940002,1042.148682 392.075287,1045.371338 
	C384.629028,1053.747803 383.095551,1064.082275 386.927063,1073.467529 
	C398.608582,1102.081299 411.650818,1130.212769 430.096558,1155.225830 
	C438.144165,1166.138550 448.702942,1175.172729 457.088013,1185.869995 
	C467.523895,1199.183838 476.756683,1213.434204 486.805573,1227.061523 
	C489.670319,1230.946289 489.710419,1234.995483 489.670105,1239.314087 
	C489.219666,1287.586182 488.499908,1335.857910 488.455109,1384.130371 
	C488.433197,1407.719238 489.416962,1431.320190 490.412842,1454.895752 
	C491.420807,1478.757202 492.481415,1502.641846 494.632019,1526.415527 
	C495.351593,1534.370117 494.220612,1541.383911 491.756531,1548.595337 
	C477.574677,1590.099609 466.376495,1632.328613 458.354004,1675.517334 
	C452.665588,1706.140625 444.831482,1736.377075 437.567841,1766.693481 
	C423.502228,1825.399780 410.222504,1884.273926 401.826996,1944.095093 
	C398.352386,1968.853271 390.665436,1992.524536 385.206116,2016.760498 
	C378.133484,2048.158691 371.494415,2079.595215 369.669556,2111.829834 
	C368.900513,2125.414551 368.832855,2139.057861 367.555542,2152.590576 
	C365.234131,2177.184814 368.512054,2201.656006 368.429474,2226.194092 
	C368.375824,2242.133301 369.554596,2258.076172 369.548553,2274.016846 
	C369.544556,2284.608887 369.151306,2295.311523 367.554688,2305.754150 
	C366.432159,2313.096191 364.147583,2320.774902 360.368652,2327.100342 
	C349.192627,2345.807129 339.655243,2365.026123 336.644775,2386.840820 
	C333.545258,2409.300293 332.785187,2431.926758 336.041656,2454.362061 
	C337.697266,2465.768311 342.028076,2476.766602 344.813232,2488.032227 
	C351.817017,2516.361572 352.313873,2545.243164 351.620361,2574.190186 
	C351.461884,2580.804688 350.994476,2587.431885 350.232025,2594.002441 
	C349.910980,2596.768555 349.122162,2599.966553 347.402496,2602.001953 
	C339.103729,2611.825439 335.596100,2623.484131 334.073975,2635.809326 
	C333.098969,2643.703857 330.318207,2649.014404 322.201050,2652.067871 
	C317.043945,2654.008301 312.996857,2658.899170 308.250793,2662.624756 
	C308.250793,1836.282349 308.250793,1009.591309 308.250793,182.282227 
	C483.744202,182.282227 659.364380,182.282227 834.181885,182.282227 
	C825.034485,191.453384 815.528381,200.495438 806.576843,210.056671 
	C785.267090,232.817642 760.475891,251.264328 734.603394,268.297119 
	C718.660156,278.793121 710.666382,293.655151 708.297852,311.959351 
	C706.448303,326.252777 707.752136,340.512726 710.322266,354.627655 
	C714.954224,380.066467 711.443176,404.759796 704.648560,429.389191 
	C692.242249,474.360138 667.998840,512.281982 637.039551,546.546387 
	C605.272156,581.705261 568.786072,611.699646 533.588074,643.154846 
	C520.554016,654.802917 509.492249,668.725220 498.037018,682.045471 
	C491.989227,689.077942 487.029541,697.046082 481.137115,705.165649 
z"/>
<path fill="#020202" opacity="1.000000" stroke="none" 
	d="
M368.676270,2757.323730 
	C389.045624,2772.836914 408.492279,2788.417480 428.810699,2802.763184 
	C439.987671,2810.654785 452.631500,2816.468506 465.633789,2823.793701 
	C412.660370,2823.793701 360.718933,2823.793701 308.217102,2823.793701 
	C308.217102,2783.023193 308.217102,2742.279785 308.217102,2700.650635 
	C325.161865,2723.239014 346.941956,2739.730225 368.676270,2757.323730 
z"/>
</svg>