<svg version="1.1" id="Layer_1" xmlns="http://www.w3.org/2000/svg" xmlns:xlink="http://www.w3.org/1999/xlink" x="0px" y="0px"
	 width="100%" viewBox="0 0 3000 3000" enable-background="new 0 0 3000 3000" xml:space="preserve">
<path fill="#FEFEFE" opacity="1.000000" stroke="none" 
	d="
M2.000000,1066.000000 
	C2.000000,710.666748 2.000000,356.333466 2.000000,2.000143 
	C1001.999756,2.000095 2001.999512,2.000095 3001.999512,2.000048 
	C3001.999512,1001.999573 3001.999512,2001.999146 3001.999756,3001.999023 
	C2002.000610,3001.999512 1002.001221,3001.999512 2.000900,3001.999756 
	C2.000000,2357.000000 2.000000,1712.000000 2.000000,1066.000000 
M2209.765381,2638.200195 
	C2234.348145,2640.079102 2258.370117,2644.906494 2281.711182,2652.749756 
	C2334.701172,2670.554932 2379.688477,2701.279297 2419.917969,2739.443848 
	C2446.521484,2764.681885 2470.296875,2792.450439 2492.222656,2821.810791 
	C2499.147461,2831.083740 2507.808105,2838.207031 2518.321289,2842.844482 
	C2530.612549,2848.265625 2543.468750,2852.413574 2556.550293,2846.239990 
	C2568.818359,2840.450195 2581.262207,2834.525635 2592.336426,2826.806885 
	C2626.158691,2803.233643 2657.729736,2776.739502 2688.840820,2749.712891 
	C2700.604248,2739.493896 2710.482178,2728.751953 2709.472900,2711.252197 
	C2708.981689,2702.734619 2707.413574,2695.291504 2699.387695,2692.701904 
	C2686.887939,2688.668457 2682.764160,2680.044189 2681.532959,2668.079834 
	C2680.399658,2657.065918 2676.923340,2646.632324 2668.866943,2638.406738 
	C2665.077881,2634.537842 2664.129883,2629.928711 2664.279541,2624.711914 
	C2664.488770,2617.408691 2664.707520,2610.068115 2664.229492,2602.789062 
	C2662.081055,2570.052002 2664.791992,2537.784180 2672.809570,2505.960449 
	C2675.394775,2495.699219 2679.144531,2485.511230 2680.019775,2475.093018 
	C2681.260986,2460.317871 2680.788818,2445.343750 2680.229248,2430.485352 
	C2679.361816,2407.439941 2672.543945,2385.988525 2659.839600,2366.763428 
	C2651.322021,2353.874023 2647.081055,2340.012207 2646.286621,2324.754639 
	C2644.364258,2287.814941 2646.593262,2250.955566 2647.989258,2214.071289 
	C2648.437988,2202.215576 2648.059326,2190.328369 2648.059326,2177.979004 
	C2645.619141,2177.979004 2644.030273,2177.930420 2642.445068,2177.986328 
	C2620.535156,2178.758301 2598.624268,2180.218262 2576.716553,2180.171631 
	C2543.130615,2180.100098 2509.535645,2179.318359 2475.966797,2178.183594 
	C2460.088623,2177.646973 2444.416992,2175.060791 2428.920898,2170.943359 
	C2415.866943,2167.474609 2409.078613,2159.786133 2407.846924,2146.733154 
	C2405.949707,2126.625000 2403.445312,2106.539307 2402.508057,2086.383301 
	C2401.165039,2057.495850 2400.636719,2028.556396 2400.422607,1999.634277 
	C2400.124756,1959.416748 2399.424561,1919.224854 2396.312256,1879.114380 
	C2394.390137,1854.339233 2392.736816,1829.523438 2389.948242,1804.840576 
	C2387.080566,1779.455444 2382.416260,1754.332397 2373.928223,1730.090698 
	C2360.696289,1692.302490 2337.634766,1662.515503 2302.838379,1642.095337 
	C2279.287109,1628.274170 2253.704102,1620.284058 2226.994385,1616.049316 
	C2211.647949,1613.616089 2196.040771,1612.590210 2180.507324,1611.642212 
	C2165.598389,1610.732544 2150.611084,1610.042725 2135.697998,1610.514282 
	C2114.831299,1611.174316 2093.985840,1612.793457 2073.160889,1614.387695 
	C2053.191650,1615.916260 2039.320801,1606.989258 2029.889160,1590.114136 
	C2026.660034,1584.336792 2023.930786,1578.279785 2020.421875,1571.245117 
	C2019.036743,1574.986572 2018.022827,1577.408813 2017.234375,1579.902588 
	C2003.421509,1623.587769 1989.524902,1667.246826 1975.890991,1710.987915 
	C1968.984863,1733.144409 1961.076660,1755.017700 1957.066895,1778.020020 
	C1955.532349,1786.823486 1953.017944,1795.467163 1950.736206,1804.127319 
	C1937.039917,1856.108521 1915.346313,1904.950439 1891.655273,1952.944702 
	C1884.121582,1968.207031 1876.749756,1983.314331 1874.958740,2000.509277 
	C1874.615356,2003.805298 1874.056152,2007.088867 1873.416138,2010.342651 
	C1863.015869,2063.212402 1857.530029,2116.619629 1857.871582,2170.466309 
	C1858.071533,2201.983154 1860.479492,2233.481445 1861.610840,2264.998291 
	C1862.517212,2290.243652 1863.012817,2315.504150 1863.661133,2340.758545 
	C1864.352173,2367.677246 1864.681885,2394.610840 1865.846436,2421.508545 
	C1866.287964,2431.706055 1868.125488,2441.923828 1870.213623,2451.947510 
	C1872.692871,2463.849609 1879.225098,2473.022705 1890.299316,2479.010742 
	C1903.785278,2486.302490 1912.849609,2497.375244 1916.415527,2512.583008 
	C1916.785889,2514.162354 1917.662109,2515.623291 1918.440308,2517.462402 
	C1999.317261,2445.997803 2094.975098,2411.692871 2201.324219,2401.504395 
	C2201.324219,2405.479004 2201.324219,2408.266846 2201.324219,2410.477783 
	C2178.328125,2414.314209 2155.659180,2417.287354 2133.350098,2421.974609 
	C2074.889160,2434.258301 2020.416992,2456.440918 1970.622314,2489.737793 
	C1951.484619,2502.534912 1934.566650,2517.863037 1917.561523,2533.333740 
	C1887.567139,2560.621826 1856.830811,2587.098145 1828.962524,2616.614502 
	C1811.626099,2634.975830 1794.924194,2653.935059 1777.726685,2672.429932 
	C1774.884644,2675.486572 1771.191162,2677.966797 1767.487427,2679.965576 
	C1756.959717,2685.646484 1746.060303,2690.647705 1735.611450,2696.463379 
	C1723.342896,2703.291992 1716.251343,2713.695801 1713.273804,2727.767334 
	C1710.667603,2740.084473 1712.210693,2751.491943 1716.262207,2762.911865 
	C1720.142456,2773.848633 1723.932617,2784.838867 1728.403076,2795.538086 
	C1732.097900,2804.380859 1736.235352,2813.123047 1741.088623,2821.373291 
	C1745.547607,2828.953369 1752.957153,2832.303955 1761.608276,2829.540039 
	C1771.039185,2826.527100 1780.547363,2823.281250 1789.304810,2818.751221 
	C1801.087524,2812.656006 1812.016113,2804.934814 1823.605469,2798.436523 
	C1863.355591,2776.148438 1902.833862,2753.354492 1939.375732,2726.050049 
	C1970.233521,2702.993164 2000.186768,2678.724365 2030.483643,2654.919678 
	C2033.665039,2652.420410 2036.532715,2649.708252 2041.056641,2650.457031 
	C2058.308105,2653.312256 2075.441895,2651.710205 2092.465088,2648.653320 
	C2109.095459,2645.667480 2125.623291,2642.106934 2142.259033,2639.153076 
	C2150.056885,2637.768311 2158.185791,2637.983398 2165.848877,2636.151611 
	C2194.416260,2629.322754 2221.748779,2618.965820 2247.154053,2604.188965 
	C2262.895752,2595.032715 2277.895020,2584.600342 2293.863525,2574.331543 
	C2295.373535,2576.051514 2297.426025,2578.389160 2300.028564,2581.353516 
	C2289.619385,2588.764648 2280.045166,2595.918213 2270.132324,2602.567139 
	C2250.726318,2615.583496 2229.504883,2625.093506 2206.625488,2633.839355 
	C2204.397461,2634.842529 2202.169434,2635.845703 2197.830566,2637.799316 
	C2202.866211,2637.799316 2205.484131,2637.799316 2209.765381,2638.200195 
M335.664062,2571.405273 
	C334.244446,2543.125977 329.333099,2515.468262 321.025421,2488.397705 
	C319.866119,2484.620117 318.641266,2480.713135 318.448944,2476.816895 
	C317.907593,2465.849121 317.538422,2454.849609 317.731079,2443.873535 
	C318.271454,2413.088867 324.751648,2383.975342 342.409119,2358.023193 
	C347.680176,2350.276367 351.207520,2341.642334 351.871185,2332.117676 
	C352.539429,2322.527344 353.595490,2312.925049 353.555023,2303.332031 
	C353.470978,2283.389404 352.774628,2263.449219 352.329346,2243.508057 
	C352.098999,2233.192627 351.779938,2222.877930 351.660675,2212.561279 
	C351.538727,2202.012939 351.656830,2191.462402 351.580383,2180.913330 
	C351.544342,2175.937012 352.348938,2170.646729 350.963745,2166.042969 
	C345.448029,2147.710693 343.871429,2129.324463 345.364777,2110.153076 
	C346.914886,2090.252441 349.610352,2070.625000 353.462189,2051.105469 
	C361.574127,2009.997192 373.597717,1969.961792 386.687866,1930.215088 
	C391.249298,1916.364502 396.278717,1902.592651 399.649902,1888.440674 
	C407.873230,1853.919800 415.148041,1819.173950 423.001465,1784.563354 
	C430.193024,1752.869995 438.194275,1721.350220 444.828491,1689.543335 
	C451.999908,1655.161133 457.880554,1620.511841 464.543518,1586.021362 
	C472.245880,1546.150635 474.022491,1505.704102 475.373932,1465.329468 
	C476.395660,1434.804199 474.388641,1404.190186 474.429901,1373.616455 
	C474.484711,1333.009644 475.137451,1292.402344 475.761047,1251.798706 
	C475.846741,1246.218384 474.818329,1241.388062 471.480682,1236.932861 
	C459.740997,1221.262207 448.517883,1205.180054 436.254761,1189.932861 
	C423.579590,1174.173462 408.552185,1160.315430 399.287201,1141.868774 
	C394.071808,1131.484741 387.691223,1121.684814 382.501892,1111.289185 
	C378.213501,1102.698242 374.862183,1093.636108 371.171112,1084.751587 
	C367.331848,1075.510010 368.259613,1066.676147 373.740448,1058.330078 
	C377.570831,1052.497192 380.980255,1046.303223 385.421478,1040.973633 
	C395.139160,1029.312134 396.777069,1015.590027 395.325989,1001.557434 
	C394.174652,990.423950 390.921967,979.509583 388.633362,968.491455 
	C385.771820,954.714783 385.225433,940.887329 387.640961,926.971252 
	C390.298615,911.660156 396.678833,897.810852 404.799896,884.802673 
	C408.505371,878.867371 409.661133,872.915771 409.825165,866.066956 
	C410.166626,851.813965 411.044922,837.548340 412.368439,823.349976 
	C414.688080,798.465515 422.174957,775.397583 437.166779,754.969727 
	C444.435486,745.065308 451.115234,734.706604 457.684784,724.315308 
	C478.768829,690.965942 503.103088,660.572388 533.691284,635.192139 
	C566.202209,608.216553 597.520264,579.876831 626.048828,548.569763 
	C656.936890,514.673462 680.856384,476.815308 693.758484,432.491150 
	C701.357727,406.384338 704.777100,379.951263 699.747437,352.873932 
	C697.327881,339.848297 696.435669,326.680145 697.732971,313.500336 
	C699.574097,294.795593 707.036194,279.228424 723.156372,268.256531 
	C737.443298,258.532379 751.694214,248.651260 765.122925,237.802063 
	C776.699890,228.448914 787.112122,217.651398 798.009277,207.460342 
	C806.481995,199.536652 814.547485,191.125916 823.477600,183.760376 
	C829.833252,178.518204 837.750305,177.151215 846.073059,179.158737 
	C870.005554,184.931519 891.206421,195.658035 910.819153,210.799591 
	C926.746094,223.095673 929.377502,240.233887 931.186218,257.448181 
	C932.222290,267.308624 929.430725,277.925354 926.688354,287.733521 
	C923.679993,298.492493 919.142822,308.890869 914.556030,319.125580 
	C908.046265,333.651093 900.641235,347.562927 901.423035,364.444763 
	C902.299316,383.365997 902.623474,402.422668 901.399658,421.304504 
	C899.730103,447.063446 896.698303,472.752075 893.632446,498.396942 
	C891.118347,519.427307 888.098206,540.416321 884.592773,561.304565 
	C879.201416,593.431641 874.981567,625.628418 875.682739,658.287842 
	C876.267944,685.545654 877.143494,712.797668 877.633118,740.056885 
	C878.422058,783.976501 878.895142,827.901855 879.707825,871.820923 
	C880.138306,895.081909 880.832336,918.341492 881.735535,941.588989 
	C882.289307,955.842285 883.300781,970.084534 884.442322,984.304871 
	C884.890076,989.882202 886.056274,995.428467 887.233704,1000.916260 
	C893.416931,1029.734619 904.099976,1056.805908 918.829773,1082.333374 
	C920.591736,1085.386841 921.835815,1089.042358 922.216431,1092.539062 
	C924.222656,1110.967041 926.431152,1129.400757 927.524109,1147.894287 
	C929.325928,1178.381592 930.664185,1208.906738 931.519409,1239.434937 
	C931.927979,1254.018921 930.607666,1268.643799 930.375549,1283.255005 
	C930.005188,1306.566895 930.164490,1329.890625 929.517761,1353.192993 
	C929.289185,1361.428467 930.879700,1368.861572 934.089844,1376.306519 
	C938.690247,1386.975708 943.052002,1397.761963 947.096497,1408.653809 
	C957.380188,1436.348022 968.034485,1463.927856 977.347473,1491.950073 
	C982.877441,1508.589600 985.374084,1526.220337 990.575500,1542.989502 
	C1007.691406,1598.171143 1025.496460,1653.138672 1042.874146,1708.239868 
	C1049.856079,1730.378540 1057.044067,1752.434326 1061.869507,1775.238037 
	C1065.571655,1792.734619 1070.478394,1810.026978 1075.758301,1827.129395 
	C1088.930054,1869.793457 1107.432129,1910.289429 1127.449219,1950.087402 
	C1134.653931,1964.411743 1140.360474,1978.961792 1143.315063,1994.861084 
	C1150.828979,2035.295776 1156.868164,2075.927979 1159.451904,2116.951172 
	C1160.865845,2139.399658 1160.092407,2161.985107 1160.340698,2184.508301 
	C1160.685425,2215.762207 1158.684204,2246.894531 1156.577026,2278.068115 
	C1154.762451,2304.913330 1155.027100,2331.898193 1154.328613,2358.820312 
	C1153.690796,2383.410645 1153.575439,2408.032471 1152.157471,2432.578857 
	C1150.787231,2456.299316 1144.302490,2477.501221 1120.844482,2489.892334 
	C1106.334473,2497.556641 1101.475464,2511.786377 1099.947510,2526.849609 
	C1120.095215,2545.158447 1140.140869,2562.628662 1159.332153,2580.992188 
	C1186.744385,2607.221680 1212.864624,2634.725342 1237.464355,2663.654541 
	C1240.340942,2667.037598 1244.420410,2669.615234 1248.352295,2671.842529 
	C1260.492432,2678.720215 1273.167358,2684.703857 1285.016113,2692.034180 
	C1303.713257,2703.601807 1306.868652,2723.192383 1307.116821,2742.564453 
	C1307.247681,2752.771973 1302.583374,2763.137939 1299.510010,2773.258057 
	C1297.107666,2781.168701 1294.101562,2788.929932 1290.857422,2796.541992 
	C1286.573853,2806.592773 1282.622192,2816.930420 1277.020386,2826.237549 
	C1270.041992,2837.831787 1259.115234,2842.980713 1245.450684,2839.230713 
	C1237.486938,2837.044922 1229.289307,2834.872314 1222.045654,2831.075195 
	C1206.756592,2823.060303 1192.104736,2813.840332 1177.050049,2805.365967 
	C1131.520508,2779.737305 1086.837524,2752.766602 1045.329590,2720.911621 
	C1021.351624,2702.510010 997.857666,2683.476807 974.203918,2664.654541 
	C971.021362,2662.121826 968.123352,2659.657471 963.554382,2660.535156 
	C948.293823,2663.466309 933.134399,2661.068604 918.117615,2658.738037 
	C903.391357,2656.452393 888.912292,2652.584717 874.192017,2650.247559 
	C852.553467,2646.812256 830.870789,2645.783203 808.821045,2647.362305 
	C777.388794,2649.613770 747.122620,2655.930420 717.813721,2667.249268 
	C667.919312,2686.517578 625.847107,2717.528564 588.042908,2754.645508 
	C565.965637,2776.321533 545.737549,2799.738770 527.513306,2824.777588 
	C518.050171,2837.779297 506.131500,2847.378174 491.374115,2853.556641 
	C488.287933,2854.848877 485.124969,2855.957520 481.997375,2857.150879 
	C1161.945679,2858.332520 1841.565674,2858.332275 2521.185547,2858.319336 
	C2522.510742,2858.319336 2523.837891,2858.139893 2525.159912,2858.003906 
	C2525.421631,2857.977051 2525.816406,2857.816650 2525.880615,2857.627197 
	C2525.976562,2857.342529 2525.834961,2856.977539 2525.765381,2856.408447 
	C2507.009766,2850.961426 2492.675293,2839.798340 2480.839844,2823.939941 
	C2456.152344,2790.861572 2428.862793,2760.002686 2397.501465,2732.927979 
	C2359.338867,2699.981445 2317.451416,2673.437256 2268.588135,2659.573486 
	C2230.089844,2648.650391 2191.123047,2642.064209 2150.834229,2649.970215 
	C2129.414551,2654.173096 2107.659424,2656.705322 2086.018799,2659.727783 
	C2070.900146,2661.839355 2055.703857,2662.754883 2040.158203,2660.677246 
	C2037.757690,2662.634033 2035.177612,2664.713867 2032.622070,2666.823486 
	C1995.436401,2697.522705 1957.994507,2727.984131 1917.201294,2753.778076 
	C1878.159912,2778.463379 1838.322510,2801.906494 1798.529175,2825.376953 
	C1786.279175,2832.602051 1773.335327,2838.672607 1758.629272,2840.107666 
	C1749.863770,2840.962646 1742.429321,2838.869385 1737.148071,2832.316650 
	C1732.006226,2825.937256 1727.233032,2818.907715 1723.981934,2811.431396 
	C1717.504517,2796.536377 1711.790649,2781.273438 1706.516724,2765.903076 
	C1702.856445,2755.235107 1700.646851,2744.186279 1702.234741,2732.628906 
	C1704.850830,2713.587891 1711.884521,2697.463379 1729.830322,2688.001221 
	C1739.533936,2682.884521 1749.025024,2677.265381 1759.068726,2672.930664 
	C1764.862671,2670.430176 1769.005005,2666.660400 1773.043945,2662.242188 
	C1790.764404,2642.859131 1807.873657,2622.853516 1826.491211,2604.369873 
	C1853.124146,2577.928711 1880.880127,2552.618896 1908.765259,2526.250244 
	C1907.613647,2509.468750 1899.933350,2495.876953 1883.934937,2487.049072 
	C1870.618286,2479.700928 1863.391602,2467.813232 1859.843506,2453.176758 
	C1853.901367,2428.664551 1856.175903,2403.599609 1854.575806,2378.815918 
	C1852.842163,2351.961914 1853.258667,2324.976074 1852.263062,2298.065430 
	C1851.256958,2270.871338 1848.811523,2243.707275 1848.551147,2216.515137 
	C1848.216675,2181.596191 1848.611572,2146.625000 1850.206787,2111.745605 
	C1851.872925,2075.315430 1857.783813,2039.295166 1864.153687,2003.386841 
	C1867.474731,1984.665039 1871.966675,1966.502563 1881.702393,1949.827637 
	C1887.048096,1940.671875 1891.203857,1930.806274 1895.677612,1921.159302 
	C1912.598633,1884.672241 1928.384399,1847.731079 1938.850342,1808.773682 
	C1945.816650,1782.842285 1951.655762,1756.580444 1959.433472,1730.900635 
	C1975.987183,1676.244995 1993.255371,1621.802124 2010.657227,1567.408325 
	C2022.399048,1530.706665 2031.783203,1493.405884 2039.663940,1455.748169 
	C2049.987793,1406.416870 2059.585693,1356.932373 2069.260498,1307.467529 
	C2072.438477,1291.218628 2076.715576,1274.890015 2077.285156,1258.486572 
	C2078.495361,1223.630005 2078.620117,1188.744141 2081.625732,1153.954102 
	C2083.394531,1133.477173 2084.677734,1112.958130 2086.468506,1092.483398 
	C2086.744873,1089.321899 2088.359619,1086.194458 2089.746338,1083.234375 
	C2091.434082,1079.631592 2093.777588,1076.332031 2095.417725,1072.711304 
	C2102.820068,1056.369263 2109.552002,1039.860718 2112.623291,1021.959473 
	C2116.992920,996.489441 2122.924561,971.266418 2126.642822,945.712952 
	C2129.068604,929.042297 2129.247803,911.981995 2129.570068,895.079834 
	C2130.502197,846.163147 2131.005859,797.238281 2131.660400,748.316345 
	C2131.909668,729.668823 2132.073730,711.020081 2132.376221,692.373474 
	C2132.418945,689.755249 2133.126709,687.154846 2133.368164,684.531616 
	C2134.822510,668.718506 2137.085205,652.915527 2137.352539,637.080139 
	C2137.529297,626.608826 2135.664795,615.890930 2133.259521,605.624268 
	C2121.360107,554.832642 2115.759521,503.134613 2110.389648,451.399841 
	C2108.679688,434.924408 2107.299072,418.394257 2106.481445,401.853912 
	C2105.940186,390.907196 2106.822021,379.896790 2106.759033,368.916687 
	C2106.730957,364.085022 2106.977051,358.851379 2105.281494,354.509918 
	C2101.301758,344.319366 2096.090332,334.617462 2091.628662,324.605774 
	C2085.591553,311.058167 2077.344238,298.326599 2076.669922,282.787140 
	C2076.355469,275.537170 2074.189209,268.241028 2074.738281,261.110321 
	C2075.522949,250.925873 2077.822021,240.830276 2079.938477,230.794632 
	C2080.505615,228.105438 2082.303223,225.301895 2084.313721,223.354172 
	C2094.343018,213.637817 2104.690430,204.251068 2114.811523,194.627792 
	C2123.670898,186.204025 2133.579834,179.899323 2145.895508,177.897247 
	C2148.720459,177.438049 2151.448242,176.382050 2154.220703,175.600708 
	C2154.086670,175.354401 2153.952637,175.108093 2153.818848,174.861786 
	C1532.960938,174.861786 912.103149,174.861786 290.869934,174.861786 
	C290.869934,1015.059692 290.869934,1854.724731 290.869934,2694.324219 
	C296.085236,2690.346924 300.483337,2685.245117 306.011230,2683.205078 
	C313.456116,2680.457275 316.435272,2675.782471 317.308563,2668.683838 
	C317.592499,2666.375732 317.760834,2664.032715 318.295685,2661.780029 
	C320.757141,2651.413574 323.283783,2641.141113 331.217194,2633.111816 
	C333.057861,2631.248779 334.097015,2627.870361 334.206146,2625.137451 
	C334.895721,2607.872803 335.219513,2590.593262 335.664062,2571.405273 
M779.547180,2640.327637 
	C806.574097,2636.516357 833.716309,2634.807617 860.843384,2638.437744 
	C876.578369,2640.543457 892.125488,2644.084473 907.731873,2647.110352 
	C925.395813,2650.534424 943.281433,2653.218994 961.145081,2651.264893 
	C969.670044,2650.332031 975.982483,2651.161377 981.490479,2657.573486 
	C982.553467,2658.811035 984.026489,2659.694336 985.300049,2660.753418 
	C1035.217041,2702.262451 1087.022095,2741.130615 1143.161133,2773.973389 
	C1166.683105,2787.733887 1189.999390,2801.847656 1213.578613,2815.508057 
	C1220.459229,2819.494629 1227.674927,2823.199219 1235.170044,2825.771240 
	C1255.023560,2832.583984 1262.655396,2835.376465 1274.427612,2809.957275 
	C1282.627808,2792.251221 1289.046753,2773.620361 1294.997681,2754.998535 
	C1301.625977,2734.258057 1294.987427,2707.094971 1271.645752,2695.234619 
	C1261.578613,2690.119141 1251.386841,2685.238037 1241.456909,2679.870605 
	C1237.782837,2677.884766 1234.264282,2675.214844 1231.412720,2672.166504 
	C1208.698242,2647.885254 1186.869629,2622.728760 1163.361450,2599.250244 
	C1141.746948,2577.662842 1118.619385,2557.557373 1095.615845,2537.418701 
	C1090.198975,2532.676270 1089.192993,2528.266357 1090.249756,2521.901123 
	C1093.362183,2503.153809 1101.820312,2488.079102 1118.930664,2478.740234 
	C1130.576660,2472.383789 1137.056885,2462.259521 1139.473267,2449.639404 
	C1141.400146,2439.575684 1143.168701,2429.344727 1143.503784,2419.138672 
	C1144.595215,2385.895264 1145.012573,2352.629395 1145.656860,2319.371582 
	C1145.934204,2305.057373 1145.757690,2290.723389 1146.441650,2276.429688 
	C1147.963745,2244.627197 1150.160034,2212.855713 1151.519653,2181.047607 
	C1151.985596,2170.144287 1150.815674,2159.167725 1150.324463,2148.227783 
	C1149.699219,2134.301025 1149.113281,2120.371094 1148.318115,2106.453857 
	C1146.234131,2069.980469 1140.330200,2034.010864 1133.597046,1998.171753 
	C1132.012817,1989.739502 1130.571777,1981.003052 1127.156128,1973.247192 
	C1118.855347,1954.398560 1109.190674,1936.156250 1100.512817,1917.466675 
	C1082.018433,1877.635498 1066.037354,1836.859497 1055.768188,1794.040771 
	C1052.520752,1780.500366 1050.394775,1766.640869 1046.372437,1753.345947 
	C1035.699463,1718.069824 1024.251343,1683.028442 1013.149719,1647.881714 
	C1001.748596,1611.786499 989.171082,1576.003906 979.394226,1539.472656 
	C971.233704,1508.980713 963.406494,1478.500488 951.870972,1449.075562 
	C941.597839,1422.870972 931.446533,1396.618530 920.886719,1369.475464 
	C917.977722,1371.624146 915.856323,1373.075439 913.860107,1374.682251 
	C861.733215,1416.642456 812.218201,1461.405884 766.228516,1510.104736 
	C733.297119,1544.976074 702.493652,1581.499878 674.817993,1620.670532 
	C637.558411,1673.405640 609.911987,1730.396606 598.026733,1794.324951 
	C586.515503,1856.241333 575.155151,1918.185791 563.761841,1980.124023 
	C556.137756,2021.571777 547.944397,2062.903320 535.680481,2103.272949 
	C529.785583,2122.677490 522.612427,2141.617188 512.195068,2159.216064 
	C503.677948,2173.605225 491.972351,2183.347656 475.813324,2188.264648 
	C456.538849,2194.129639 436.870972,2196.692627 416.882751,2196.190918 
	C399.584534,2195.756348 382.411163,2193.782715 366.790955,2185.194092 
	C364.909363,2184.159668 362.859070,2183.431885 359.405731,2181.908447 
	C360.866852,2209.807861 362.796967,2236.299805 363.465454,2262.823730 
	C363.967499,2282.743896 362.361359,2302.709961 362.595001,2322.645264 
	C362.807831,2340.807129 355.878143,2356.046143 346.721069,2371.095459 
	C341.429199,2379.792725 337.412140,2389.500000 334.262573,2399.219482 
	C326.983612,2421.682129 326.975098,2445.002197 328.057861,2468.308105 
	C328.286774,2473.235596 328.538818,2478.344971 329.969727,2483.005127 
	C340.670471,2517.852539 346.432251,2553.391357 345.639648,2589.893799 
	C345.358551,2602.839355 345.101715,2615.803223 344.119385,2628.704346 
	C343.845734,2632.298828 341.642548,2636.221191 339.241943,2639.086182 
	C333.038788,2646.488770 329.834015,2655.022705 328.041687,2664.266113 
	C327.222290,2668.491943 326.813965,2672.809814 325.786316,2676.979248 
	C324.385162,2682.663818 321.521240,2687.241455 315.815277,2689.905029 
	C299.788849,2697.385498 299.344604,2698.266602 300.360199,2715.548096 
	C300.514099,2718.166504 301.415741,2720.777832 301.314972,2723.366943 
	C301.053284,2730.089355 304.770081,2734.580322 309.267303,2738.731201 
	C317.573792,2746.397461 325.559509,2754.456787 334.280701,2761.619873 
	C369.129395,2790.243896 402.878479,2820.310791 443.080292,2841.794922 
	C457.777069,2849.648682 471.801941,2850.360352 487.010468,2844.303955 
	C501.174042,2838.663818 511.587585,2828.978760 520.519958,2816.984131 
	C546.428101,2782.193604 575.445190,2750.206055 608.532410,2722.090820 
	C639.367065,2695.889648 673.019592,2674.227783 710.827698,2659.187256 
	C732.539429,2650.550049 754.911377,2644.672119 779.547180,2640.327637 
M2521.107910,681.890076 
	C2531.758301,697.133484 2542.829834,712.104187 2552.931885,727.702637 
	C2561.773682,741.354980 2569.323975,755.836304 2577.818848,769.722656 
	C2585.514160,782.302734 2591.851074,795.331299 2594.368896,810.004211 
	C2596.887207,824.680054 2598.962646,839.460999 2602.225098,853.972656 
	C2606.372070,872.419617 2610.507812,890.979736 2616.494385,908.873535 
	C2623.603760,930.123901 2624.575195,951.085693 2618.953125,972.536011 
	C2616.492188,981.925598 2614.573730,991.456787 2616.486816,1001.042908 
	C2619.276367,1015.019897 2622.666748,1028.887695 2626.216553,1042.695068 
	C2627.166748,1046.391479 2629.188477,1050.023438 2631.475830,1053.126465 
	C2639.349609,1063.807861 2642.136475,1074.868774 2636.559570,1087.640991 
	C2634.937988,1091.355103 2634.384521,1096.160156 2635.125000,1100.132568 
	C2636.187500,1105.832520 2635.259277,1110.753540 2632.395508,1115.369995 
	C2628.723877,1121.289429 2624.895508,1127.148560 2620.675537,1132.683594 
	C2612.431885,1143.495728 2603.831787,1154.035278 2595.452148,1164.744751 
	C2589.530762,1172.312378 2583.854004,1180.073730 2577.848877,1187.572754 
	C2565.185303,1203.386108 2552.457031,1219.149170 2539.584473,1234.792480 
	C2535.366943,1239.917725 2533.076416,1245.285400 2533.563232,1252.111816 
	C2534.201172,1261.063354 2534.325439,1270.067505 2534.300049,1279.047852 
	C2534.091553,1352.574097 2535.529297,1426.120361 2530.489502,1499.578491 
	C2529.237793,1517.821167 2529.777100,1536.194458 2529.761963,1554.507935 
	C2529.759033,1558.065186 2530.745117,1561.695190 2531.712158,1565.170044 
	C2540.693359,1597.447388 2550.212402,1629.583496 2558.629150,1662.006104 
	C2562.697266,1677.676758 2564.190918,1693.999756 2567.834961,1709.800171 
	C2573.875488,1735.993042 2580.526611,1762.050171 2587.253418,1788.078369 
	C2598.625977,1832.083862 2608.526611,1876.366211 2615.929932,1921.251343 
	C2622.398193,1960.468140 2629.121094,1999.629883 2638.981201,2038.263306 
	C2651.065918,2085.614502 2657.742432,2128.505615 2657.642822,2182.926514 
	C2657.605225,2203.500732 2656.674805,2224.071533 2656.367920,2244.646973 
	C2656.010254,2268.624756 2655.752441,2292.605957 2655.713379,2316.585938 
	C2655.687012,2332.819580 2659.172363,2348.067627 2668.592773,2361.787109 
	C2679.883301,2378.229492 2686.109131,2396.736816 2688.939697,2416.385254 
	C2689.977539,2423.588867 2690.729980,2430.855713 2691.158203,2438.120361 
	C2692.196289,2455.717285 2692.419434,2473.338867 2687.405518,2490.463135 
	C2680.675537,2513.448730 2675.173340,2536.705322 2674.406982,2560.687012 
	C2673.716553,2582.295166 2674.189697,2603.946045 2674.491699,2625.573242 
	C2674.527832,2628.174316 2676.203369,2631.170898 2677.977783,2633.251709 
	C2683.508545,2639.736572 2687.169434,2647.112305 2689.208984,2655.254639 
	C2690.574951,2660.708740 2690.927734,2666.421387 2692.370605,2671.849121 
	C2693.164551,2674.836182 2694.652832,2679.125244 2696.903320,2679.973145 
	C2705.302002,2683.137939 2711.884521,2688.455078 2717.877197,2696.008301 
	C2717.877197,1854.856567 2717.877197,1015.056885 2717.877197,175.032379 
	C2538.621826,175.032379 2359.825195,175.032379 2179.315918,175.032379 
	C2196.405029,184.566452 2210.043945,195.627625 2222.604492,208.075714 
	C2232.560791,217.942932 2243.309326,226.476624 2256.616455,231.733810 
	C2273.594727,238.441360 2285.218262,250.650406 2294.644287,266.567749 
	C2308.990479,290.793549 2314.664062,315.771515 2310.563232,343.628052 
	C2308.120361,360.221741 2304.988770,376.766174 2307.437256,393.980469 
	C2312.084473,426.654999 2320.732178,457.609894 2340.091797,484.873810 
	C2350.871582,500.054749 2361.482910,515.357117 2372.410889,530.430298 
	C2377.666748,537.679626 2382.718262,545.336914 2389.185547,551.397705 
	C2407.119141,568.204041 2425.797852,584.213257 2444.089355,600.640686 
	C2471.582275,625.331909 2498.520508,650.562500 2521.107910,681.890076 
M376.123077,2808.866699 
	C371.407837,2805.199219 366.571472,2801.676270 361.997528,2797.840332 
	C337.515717,2777.308594 311.284149,2758.695557 290.836121,2732.645752 
	C290.836121,2774.808105 290.836121,2816.182861 290.836121,2857.492676 
	C307.406128,2859.567871 444.312714,2858.770020 449.876495,2856.877441 
	C436.555054,2849.361816 422.409973,2842.170898 409.123596,2833.642334 
	C397.979340,2826.488770 387.836700,2817.775146 376.123077,2808.866699 
M2599.000244,2858.340088 
	C2638.534912,2858.340088 2678.069580,2858.340088 2717.748535,2858.340088 
	C2717.748535,2816.051270 2717.748535,2774.718750 2717.748535,2733.142334 
	C2696.480469,2760.614258 2668.845459,2780.179932 2642.481689,2801.126709 
	C2615.868408,2822.270996 2588.859619,2842.854736 2558.089600,2858.340088 
	C2571.059814,2858.340088 2584.030273,2858.340088 2599.000244,2858.340088 
z"/>
<path fill="#000000" opacity="1.000000" stroke="none" 
	d="
M335.664062,2572.362061 
	C335.219513,2590.593262 334.895721,2607.872803 334.206146,2625.137451 
	C334.097015,2627.870361 333.057861,2631.248779 331.217194,2633.111816 
	C323.283783,2641.141113 320.757141,2651.413574 318.295685,2661.780029 
	C317.760834,2664.032715 317.592499,2666.375732 317.308563,2668.683838 
	C316.435272,2675.782471 313.456116,2680.457275 306.011230,2683.205078 
	C300.483337,2685.245117 296.085236,2690.346924 290.869934,2694.324219 
	C290.869934,1854.724731 290.869934,1015.059692 290.869934,174.861786 
	C912.103149,174.861786 1532.960938,174.861786 2153.818848,174.861786 
	C2153.952637,175.108093 2154.086670,175.354401 2154.220703,175.600708 
	C2151.448242,176.382050 2148.720459,177.438049 2145.895508,177.897247 
	C2133.579834,179.899323 2123.670898,186.204025 2114.811523,194.627792 
	C2104.690430,204.251068 2094.343018,213.637817 2084.313721,223.354172 
	C2082.303223,225.301895 2080.505615,228.105438 2079.938477,230.794632 
	C2077.822021,240.830276 2075.522949,250.925873 2074.738281,261.110321 
	C2074.189209,268.241028 2076.355469,275.537170 2076.669922,282.787140 
	C2077.344238,298.326599 2085.591553,311.058167 2091.628662,324.605774 
	C2096.090332,334.617462 2101.301758,344.319366 2105.281494,354.509918 
	C2106.977051,358.851379 2106.730957,364.085022 2106.759033,368.916687 
	C2106.822021,379.896790 2105.940186,390.907196 2106.481445,401.853912 
	C2107.299072,418.394257 2108.679688,434.924408 2110.389648,451.399841 
	C2115.759521,503.134613 2121.360107,554.832642 2133.259521,605.624268 
	C2135.664795,615.890930 2137.529297,626.608826 2137.352539,637.080139 
	C2137.085205,652.915527 2134.822510,668.718506 2133.368164,684.531616 
	C2133.126709,687.154846 2132.418945,689.755249 2132.376221,692.373474 
	C2132.073730,711.020081 2131.909668,729.668823 2131.660400,748.316345 
	C2131.005859,797.238281 2130.502197,846.163147 2129.570068,895.079834 
	C2129.247803,911.981995 2129.068604,929.042297 2126.642822,945.712952 
	C2122.924561,971.266418 2116.992920,996.489441 2112.623291,1021.959473 
	C2109.552002,1039.860718 2102.820068,1056.369263 2095.417725,1072.711304 
	C2093.777588,1076.332031 2091.434082,1079.631592 2089.746338,1083.234375 
	C2088.359619,1086.194458 2086.744873,1089.321899 2086.468506,1092.483398 
	C2084.677734,1112.958130 2083.394531,1133.477173 2081.625732,1153.954102 
	C2078.620117,1188.744141 2078.495361,1223.630005 2077.285156,1258.486572 
	C2076.715576,1274.890015 2072.438477,1291.218628 2069.260498,1307.467529 
	C2059.585693,1356.932373 2049.987793,1406.416870 2039.663940,1455.748169 
	C2031.783203,1493.405884 2022.399048,1530.706665 2010.657227,1567.408325 
	C1993.255371,1621.802124 1975.987183,1676.244995 1959.433472,1730.900635 
	C1951.655762,1756.580444 1945.816650,1782.842285 1938.850342,1808.773682 
	C1928.384399,1847.731079 1912.598633,1884.672241 1895.677612,1921.159302 
	C1891.203857,1930.806274 1887.048096,1940.671875 1881.702393,1949.827637 
	C1871.966675,1966.502563 1867.474731,1984.665039 1864.153687,2003.386841 
	C1857.783813,2039.295166 1851.872925,2075.315430 1850.206787,2111.745605 
	C1848.611572,2146.625000 1848.216675,2181.596191 1848.551147,2216.515137 
	C1848.811523,2243.707275 1851.256958,2270.871338 1852.263062,2298.065430 
	C1853.258667,2324.976074 1852.842163,2351.961914 1854.575806,2378.815918 
	C1856.175903,2403.599609 1853.901367,2428.664551 1859.843506,2453.176758 
	C1863.391602,2467.813232 1870.618286,2479.700928 1883.934937,2487.049072 
	C1899.933350,2495.876953 1907.613647,2509.468750 1908.765259,2526.250244 
	C1880.880127,2552.618896 1853.124146,2577.928711 1826.491211,2604.369873 
	C1807.873657,2622.853516 1790.764404,2642.859131 1773.043945,2662.242188 
	C1769.005005,2666.660400 1764.862671,2670.430176 1759.068726,2672.930664 
	C1749.025024,2677.265381 1739.533936,2682.884521 1729.830322,2688.001221 
	C1711.884521,2697.463379 1704.850830,2713.587891 1702.234741,2732.628906 
	C1700.646851,2744.186279 1702.856445,2755.235107 1706.516724,2765.903076 
	C1711.790649,2781.273438 1717.504517,2796.536377 1723.981934,2811.431396 
	C1727.233032,2818.907715 1732.006226,2825.937256 1737.148071,2832.316650 
	C1742.429321,2838.869385 1749.863770,2840.962646 1758.629272,2840.107666 
	C1773.335327,2838.672607 1786.279175,2832.602051 1798.529175,2825.376953 
	C1838.322510,2801.906494 1878.159912,2778.463379 1917.201294,2753.778076 
	C1957.994507,2727.984131 1995.436401,2697.522705 2032.622070,2666.823486 
	C2035.177612,2664.713867 2037.757690,2662.634033 2040.158203,2660.677246 
	C2055.703857,2662.754883 2070.900146,2661.839355 2086.018799,2659.727783 
	C2107.659424,2656.705322 2129.414551,2654.173096 2150.834229,2649.970215 
	C2191.123047,2642.064209 2230.089844,2648.650391 2268.588135,2659.573486 
	C2317.451416,2673.437256 2359.338867,2699.981445 2397.501465,2732.927979 
	C2428.862793,2760.002686 2456.152344,2790.861572 2480.839844,2823.939941 
	C2492.675293,2839.798340 2507.009766,2850.961426 2525.765381,2856.408447 
	C2525.834961,2856.977539 2525.976562,2857.342529 2525.880615,2857.627197 
	C2525.816406,2857.816650 2525.421631,2857.977051 2525.159912,2858.003906 
	C2523.837891,2858.139893 2522.510742,2858.319336 2521.185547,2858.319336 
	C1841.565674,2858.332275 1161.945679,2858.332520 481.997375,2857.150879 
	C485.124969,2855.957520 488.287933,2854.848877 491.374115,2853.556641 
	C506.131500,2847.378174 518.050171,2837.779297 527.513306,2824.777588 
	C545.737549,2799.738770 565.965637,2776.321533 588.042908,2754.645508 
	C625.847107,2717.528564 667.919312,2686.517578 717.813721,2667.249268 
	C747.122620,2655.930420 777.388794,2649.613770 808.821045,2647.362305 
	C830.870789,2645.783203 852.553467,2646.812256 874.192017,2650.247559 
	C888.912292,2652.584717 903.391357,2656.452393 918.117615,2658.738037 
	C933.134399,2661.068604 948.293823,2663.466309 963.554382,2660.535156 
	C968.123352,2659.657471 971.021362,2662.121826 974.203918,2664.654541 
	C997.857666,2683.476807 1021.351624,2702.510010 1045.329590,2720.911621 
	C1086.837524,2752.766602 1131.520508,2779.737305 1177.050049,2805.365967 
	C1192.104736,2813.840332 1206.756592,2823.060303 1222.045654,2831.075195 
	C1229.289307,2834.872314 1237.486938,2837.044922 1245.450684,2839.230713 
	C1259.115234,2842.980713 1270.041992,2837.831787 1277.020386,2826.237549 
	C1282.622192,2816.930420 1286.573853,2806.592773 1290.857422,2796.541992 
	C1294.101562,2788.929932 1297.107666,2781.168701 1299.510010,2773.258057 
	C1302.583374,2763.137939 1307.247681,2752.771973 1307.116821,2742.564453 
	C1306.868652,2723.192383 1303.713257,2703.601807 1285.016113,2692.034180 
	C1273.167358,2684.703857 1260.492432,2678.720215 1248.352295,2671.842529 
	C1244.420410,2669.615234 1240.340942,2667.037598 1237.464355,2663.654541 
	C1212.864624,2634.725342 1186.744385,2607.221680 1159.332153,2580.992188 
	C1140.140869,2562.628662 1120.095215,2545.158447 1099.947510,2526.849609 
	C1101.475464,2511.786377 1106.334473,2497.556641 1120.844482,2489.892334 
	C1144.302490,2477.501221 1150.787231,2456.299316 1152.157471,2432.578857 
	C1153.575439,2408.032471 1153.690796,2383.410645 1154.328613,2358.820312 
	C1155.027100,2331.898193 1154.762451,2304.913330 1156.577026,2278.068115 
	C1158.684204,2246.894531 1160.685425,2215.762207 1160.340698,2184.508301 
	C1160.092407,2161.985107 1160.865845,2139.399658 1159.451904,2116.951172 
	C1156.868164,2075.927979 1150.828979,2035.295776 1143.315063,1994.861084 
	C1140.360474,1978.961792 1134.653931,1964.411743 1127.449219,1950.087402 
	C1107.432129,1910.289429 1088.930054,1869.793457 1075.758301,1827.129395 
	C1070.478394,1810.026978 1065.571655,1792.734619 1061.869507,1775.238037 
	C1057.044067,1752.434326 1049.856079,1730.378540 1042.874146,1708.239868 
	C1025.496460,1653.138672 1007.691406,1598.171143 990.575500,1542.989502 
	C985.374084,1526.220337 982.877441,1508.589600 977.347473,1491.950073 
	C968.034485,1463.927856 957.380188,1436.348022 947.096497,1408.653809 
	C943.052002,1397.761963 938.690247,1386.975708 934.089844,1376.306519 
	C930.879700,1368.861572 929.289185,1361.428467 929.517761,1353.192993 
	C930.164490,1329.890625 930.005188,1306.566895 930.375549,1283.255005 
	C930.607666,1268.643799 931.927979,1254.018921 931.519409,1239.434937 
	C930.664185,1208.906738 929.325928,1178.381592 927.524109,1147.894287 
	C926.431152,1129.400757 924.222656,1110.967041 922.216431,1092.539062 
	C921.835815,1089.042358 920.591736,1085.386841 918.829773,1082.333374 
	C904.099976,1056.805908 893.416931,1029.734619 887.233704,1000.916260 
	C886.056274,995.428467 884.890076,989.882202 884.442322,984.304871 
	C883.300781,970.084534 882.289307,955.842285 881.735535,941.588989 
	C880.832336,918.341492 880.138306,895.081909 879.707825,871.820923 
	C878.895142,827.901855 878.422058,783.976501 877.633118,740.056885 
	C877.143494,712.797668 876.267944,685.545654 875.682739,658.287842 
	C874.981567,625.628418 879.201416,593.431641 884.592773,561.304565 
	C888.098206,540.416321 891.118347,519.427307 893.632446,498.396942 
	C896.698303,472.752075 899.730103,447.063446 901.399658,421.304504 
	C902.623474,402.422668 902.299316,383.365997 901.423035,364.444763 
	C900.641235,347.562927 908.046265,333.651093 914.556030,319.125580 
	C919.142822,308.890869 923.679993,298.492493 926.688354,287.733521 
	C929.430725,277.925354 932.222290,267.308624 931.186218,257.448181 
	C929.377502,240.233887 926.746094,223.095673 910.819153,210.799591 
	C891.206421,195.658035 870.005554,184.931519 846.073059,179.158737 
	C837.750305,177.151215 829.833252,178.518204 823.477600,183.760376 
	C814.547485,191.125916 806.481995,199.536652 798.009277,207.460342 
	C787.112122,217.651398 776.699890,228.448914 765.122925,237.802063 
	C751.694214,248.651260 737.443298,258.532379 723.156372,268.256531 
	C707.036194,279.228424 699.574097,294.795593 697.732971,313.500336 
	C696.435669,326.680145 697.327881,339.848297 699.747437,352.873932 
	C704.777100,379.951263 701.357727,406.384338 693.758484,432.491150 
	C680.856384,476.815308 656.936890,514.673462 626.048828,548.569763 
	C597.520264,579.876831 566.202209,608.216553 533.691284,635.192139 
	C503.103088,660.572388 478.768829,690.965942 457.684784,724.315308 
	C451.115234,734.706604 444.435486,745.065308 437.166779,754.969727 
	C422.174957,775.397583 414.688080,798.465515 412.368439,823.349976 
	C411.044922,837.548340 410.166626,851.813965 409.825165,866.066956 
	C409.661133,872.915771 408.505371,878.867371 404.799896,884.802673 
	C396.678833,897.810852 390.298615,911.660156 387.640961,926.971252 
	C385.225433,940.887329 385.771820,954.714783 388.633362,968.491455 
	C390.921967,979.509583 394.174652,990.423950 395.325989,1001.557434 
	C396.777069,1015.590027 395.139160,1029.312134 385.421478,1040.973633 
	C380.980255,1046.303223 377.570831,1052.497192 373.740448,1058.330078 
	C368.259613,1066.676147 367.331848,1075.510010 371.171112,1084.751587 
	C374.862183,1093.636108 378.213501,1102.698242 382.501892,1111.289185 
	C387.691223,1121.684814 394.071808,1131.484741 399.287201,1141.868774 
	C408.552185,1160.315430 423.579590,1174.173462 436.254761,1189.932861 
	C448.517883,1205.180054 459.740997,1221.262207 471.480682,1236.932861 
	C474.818329,1241.388062 475.846741,1246.218384 475.761047,1251.798706 
	C475.137451,1292.402344 474.484711,1333.009644 474.429901,1373.616455 
	C474.388641,1404.190186 476.395660,1434.804199 475.373932,1465.329468 
	C474.022491,1505.704102 472.245880,1546.150635 464.543518,1586.021362 
	C457.880554,1620.511841 451.999908,1655.161133 444.828491,1689.543335 
	C438.194275,1721.350220 430.193024,1752.869995 423.001465,1784.563354 
	C415.148041,1819.173950 407.873230,1853.919800 399.649902,1888.440674 
	C396.278717,1902.592651 391.249298,1916.364502 386.687866,1930.215088 
	C373.597717,1969.961792 361.574127,2009.997192 353.462189,2051.105469 
	C349.610352,2070.625000 346.914886,2090.252441 345.364777,2110.153076 
	C343.871429,2129.324463 345.448029,2147.710693 350.963745,2166.042969 
	C352.348938,2170.646729 351.544342,2175.937012 351.580383,2180.913330 
	C351.656830,2191.462402 351.538727,2202.012939 351.660675,2212.561279 
	C351.779938,2222.877930 352.098999,2233.192627 352.329346,2243.508057 
	C352.774628,2263.449219 353.470978,2283.389404 353.555023,2303.332031 
	C353.595490,2312.925049 352.539429,2322.527344 351.871185,2332.117676 
	C351.207520,2341.642334 347.680176,2350.276367 342.409119,2358.023193 
	C324.751648,2383.975342 318.271454,2413.088867 317.731079,2443.873535 
	C317.538422,2454.849609 317.907593,2465.849121 318.448944,2476.816895 
	C318.641266,2480.713135 319.866119,2484.620117 321.025421,2488.397705 
	C329.333099,2515.468262 334.244446,2543.125977 335.664062,2572.362061 
z"/>
<path fill="#000000" opacity="1.000000" stroke="none" 
	d="
M778.665405,2640.350586 
	C754.911377,2644.672119 732.539429,2650.550049 710.827698,2659.187256 
	C673.019592,2674.227783 639.367065,2695.889648 608.532410,2722.090820 
	C575.445190,2750.206055 546.428101,2782.193604 520.519958,2816.984131 
	C511.587585,2828.978760 501.174042,2838.663818 487.010468,2844.303955 
	C471.801941,2850.360352 457.777069,2849.648682 443.080292,2841.794922 
	C402.878479,2820.310791 369.129395,2790.243896 334.280701,2761.619873 
	C325.559509,2754.456787 317.573792,2746.397461 309.267303,2738.731201 
	C304.770081,2734.580322 301.053284,2730.089355 301.314972,2723.366943 
	C301.415741,2720.777832 300.514099,2718.166504 300.360199,2715.548096 
	C299.344604,2698.266602 299.788849,2697.385498 315.815277,2689.905029 
	C321.521240,2687.241455 324.385162,2682.663818 325.786316,2676.979248 
	C326.813965,2672.809814 327.222290,2668.491943 328.041687,2664.266113 
	C329.834015,2655.022705 333.038788,2646.488770 339.241943,2639.086182 
	C341.642548,2636.221191 343.845734,2632.298828 344.119385,2628.704346 
	C345.101715,2615.803223 345.358551,2602.839355 345.639648,2589.893799 
	C346.432251,2553.391357 340.670471,2517.852539 329.969727,2483.005127 
	C328.538818,2478.344971 328.286774,2473.235596 328.057861,2468.308105 
	C326.975098,2445.002197 326.983612,2421.682129 334.262573,2399.219482 
	C337.412140,2389.500000 341.429199,2379.792725 346.721069,2371.095459 
	C355.878143,2356.046143 362.807831,2340.807129 362.595001,2322.645264 
	C362.361359,2302.709961 363.967499,2282.743896 363.465454,2262.823730 
	C362.796967,2236.299805 360.866852,2209.807861 359.405731,2181.908447 
	C362.859070,2183.431885 364.909363,2184.159668 366.790955,2185.194092 
	C382.411163,2193.782715 399.584534,2195.756348 416.882751,2196.190918 
	C436.870972,2196.692627 456.538849,2194.129639 475.813324,2188.264648 
	C491.972351,2183.347656 503.677948,2173.605225 512.195068,2159.216064 
	C522.612427,2141.617188 529.785583,2122.677490 535.680481,2103.272949 
	C547.944397,2062.903320 556.137756,2021.571777 563.761841,1980.124023 
	C575.155151,1918.185791 586.515503,1856.241333 598.026733,1794.324951 
	C609.911987,1730.396606 637.558411,1673.405640 674.817993,1620.670532 
	C702.493652,1581.499878 733.297119,1544.976074 766.228516,1510.104736 
	C812.218201,1461.405884 861.733215,1416.642456 913.860107,1374.682251 
	C915.856323,1373.075439 917.977722,1371.624146 920.886719,1369.475464 
	C931.446533,1396.618530 941.597839,1422.870972 951.870972,1449.075562 
	C963.406494,1478.500488 971.233704,1508.980713 979.394226,1539.472656 
	C989.171082,1576.003906 1001.748596,1611.786499 1013.149719,1647.881714 
	C1024.251343,1683.028442 1035.699463,1718.069824 1046.372437,1753.345947 
	C1050.394775,1766.640869 1052.520752,1780.500366 1055.768188,1794.040771 
	C1066.037354,1836.859497 1082.018433,1877.635498 1100.512817,1917.466675 
	C1109.190674,1936.156250 1118.855347,1954.398560 1127.156128,1973.247192 
	C1130.571777,1981.003052 1132.012817,1989.739502 1133.597046,1998.171753 
	C1140.330200,2034.010864 1146.234131,2069.980469 1148.318115,2106.453857 
	C1149.113281,2120.371094 1149.699219,2134.301025 1150.324463,2148.227783 
	C1150.815674,2159.167725 1151.985596,2170.144287 1151.519653,2181.047607 
	C1150.160034,2212.855713 1147.963745,2244.627197 1146.441650,2276.429688 
	C1145.757690,2290.723389 1145.934204,2305.057373 1145.656860,2319.371582 
	C1145.012573,2352.629395 1144.595215,2385.895264 1143.503784,2419.138672 
	C1143.168701,2429.344727 1141.400146,2439.575684 1139.473267,2449.639404 
	C1137.056885,2462.259521 1130.576660,2472.383789 1118.930664,2478.740234 
	C1101.820312,2488.079102 1093.362183,2503.153809 1090.249756,2521.901123 
	C1089.192993,2528.266357 1090.198975,2532.676270 1095.615845,2537.418701 
	C1118.619385,2557.557373 1141.746948,2577.662842 1163.361450,2599.250244 
	C1186.869629,2622.728760 1208.698242,2647.885254 1231.412720,2672.166504 
	C1234.264282,2675.214844 1237.782837,2677.884766 1241.456909,2679.870605 
	C1251.386841,2685.238037 1261.578613,2690.119141 1271.645752,2695.234619 
	C1294.987427,2707.094971 1301.625977,2734.258057 1294.997681,2754.998535 
	C1289.046753,2773.620361 1282.627808,2792.251221 1274.427612,2809.957275 
	C1262.655396,2835.376465 1255.023560,2832.583984 1235.170044,2825.771240 
	C1227.674927,2823.199219 1220.459229,2819.494629 1213.578613,2815.508057 
	C1189.999390,2801.847656 1166.683105,2787.733887 1143.161133,2773.973389 
	C1087.022095,2741.130615 1035.217041,2702.262451 985.300049,2660.753418 
	C984.026489,2659.694336 982.553467,2658.811035 981.490479,2657.573486 
	C975.982483,2651.161377 969.670044,2650.332031 961.145081,2651.264893 
	C943.281433,2653.218994 925.395813,2650.534424 907.731873,2647.110352 
	C892.125488,2644.084473 876.578369,2640.543457 860.843384,2638.437744 
	C833.716309,2634.807617 806.574097,2636.516357 778.665405,2640.350586 
z"/>
<path fill="#010101" opacity="1.000000" stroke="none" 
	d="
M2207.987305,2633.978027 
	C2229.504883,2625.093506 2250.726318,2615.583496 2270.132324,2602.567139 
	C2280.045166,2595.918213 2289.619385,2588.764648 2300.028564,2581.353516 
	C2297.426025,2578.389160 2295.373535,2576.051514 2293.863525,2574.331543 
	C2277.895020,2584.600342 2262.895752,2595.032715 2247.154053,2604.188965 
	C2221.748779,2618.965820 2194.416260,2629.322754 2165.848877,2636.151611 
	C2158.185791,2637.983398 2150.056885,2637.768311 2142.259033,2639.153076 
	C2125.623291,2642.106934 2109.095459,2645.667480 2092.465088,2648.653320 
	C2075.441895,2651.710205 2058.308105,2653.312256 2041.056641,2650.457031 
	C2036.532715,2649.708252 2033.665039,2652.420410 2030.483643,2654.919678 
	C2000.186768,2678.724365 1970.233521,2702.993164 1939.375732,2726.050049 
	C1902.833862,2753.354492 1863.355591,2776.148438 1823.605469,2798.436523 
	C1812.016113,2804.934814 1801.087524,2812.656006 1789.304810,2818.751221 
	C1780.547363,2823.281250 1771.039185,2826.527100 1761.608276,2829.540039 
	C1752.957153,2832.303955 1745.547607,2828.953369 1741.088623,2821.373291 
	C1736.235352,2813.123047 1732.097900,2804.380859 1728.403076,2795.538086 
	C1723.932617,2784.838867 1720.142456,2773.848633 1716.262207,2762.911865 
	C1712.210693,2751.491943 1710.667603,2740.084473 1713.273804,2727.767334 
	C1716.251343,2713.695801 1723.342896,2703.291992 1735.611450,2696.463379 
	C1746.060303,2690.647705 1756.959717,2685.646484 1767.487427,2679.965576 
	C1771.191162,2677.966797 1774.884644,2675.486572 1777.726685,2672.429932 
	C1794.924194,2653.935059 1811.626099,2634.975830 1828.962524,2616.614502 
	C1856.830811,2587.098145 1887.567139,2560.621826 1917.561523,2533.333740 
	C1934.566650,2517.863037 1951.484619,2502.534912 1970.622314,2489.737793 
	C2020.416992,2456.440918 2074.889160,2434.258301 2133.350098,2421.974609 
	C2155.659180,2417.287354 2178.328125,2414.314209 2201.324219,2410.477783 
	C2201.324219,2408.266846 2201.324219,2405.479004 2201.324219,2401.504395 
	C2094.975098,2411.692871 1999.317261,2445.997803 1918.440308,2517.462402 
	C1917.662109,2515.623291 1916.785889,2514.162354 1916.415527,2512.583008 
	C1912.849609,2497.375244 1903.785278,2486.302490 1890.299316,2479.010742 
	C1879.225098,2473.022705 1872.692871,2463.849609 1870.213623,2451.947510 
	C1868.125488,2441.923828 1866.287964,2431.706055 1865.846436,2421.508545 
	C1864.681885,2394.610840 1864.352173,2367.677246 1863.661133,2340.758545 
	C1863.012817,2315.504150 1862.517212,2290.243652 1861.610840,2264.998291 
	C1860.479492,2233.481445 1858.071533,2201.983154 1857.871582,2170.466309 
	C1857.530029,2116.619629 1863.015869,2063.212402 1873.416138,2010.342651 
	C1874.056152,2007.088867 1874.615356,2003.805298 1874.958740,2000.509277 
	C1876.749756,1983.314331 1884.121582,1968.207031 1891.655273,1952.944702 
	C1915.346313,1904.950439 1937.039917,1856.108521 1950.736206,1804.127319 
	C1953.017944,1795.467163 1955.532349,1786.823486 1957.066895,1778.020020 
	C1961.076660,1755.017700 1968.984863,1733.144409 1975.890991,1710.987915 
	C1989.524902,1667.246826 2003.421509,1623.587769 2017.234375,1579.902588 
	C2018.022827,1577.408813 2019.036743,1574.986572 2020.421875,1571.245117 
	C2023.930786,1578.279785 2026.660034,1584.336792 2029.889160,1590.114136 
	C2039.320801,1606.989258 2053.191650,1615.916260 2073.160889,1614.387695 
	C2093.985840,1612.793457 2114.831299,1611.174316 2135.697998,1610.514282 
	C2150.611084,1610.042725 2165.598389,1610.732544 2180.507324,1611.642212 
	C2196.040771,1612.590210 2211.647949,1613.616089 2226.994385,1616.049316 
	C2253.704102,1620.284058 2279.287109,1628.274170 2302.838379,1642.095337 
	C2337.634766,1662.515503 2360.696289,1692.302490 2373.928223,1730.090698 
	C2382.416260,1754.332397 2387.080566,1779.455444 2389.948242,1804.840576 
	C2392.736816,1829.523438 2394.390137,1854.339233 2396.312256,1879.114380 
	C2399.424561,1919.224854 2400.124756,1959.416748 2400.422607,1999.634277 
	C2400.636719,2028.556396 2401.165039,2057.495850 2402.508057,2086.383301 
	C2403.445312,2106.539307 2405.949707,2126.625000 2407.846924,2146.733154 
	C2409.078613,2159.786133 2415.866943,2167.474609 2428.920898,2170.943359 
	C2444.416992,2175.060791 2460.088623,2177.646973 2475.966797,2178.183594 
	C2509.535645,2179.318359 2543.130615,2180.100098 2576.716553,2180.171631 
	C2598.624268,2180.218262 2620.535156,2178.758301 2642.445068,2177.986328 
	C2644.030273,2177.930420 2645.619141,2177.979004 2648.059326,2177.979004 
	C2648.059326,2190.328369 2648.437988,2202.215576 2647.989258,2214.071289 
	C2646.593262,2250.955566 2644.364258,2287.814941 2646.286621,2324.754639 
	C2647.081055,2340.012207 2651.322021,2353.874023 2659.839600,2366.763428 
	C2672.543945,2385.988525 2679.361816,2407.439941 2680.229248,2430.485352 
	C2680.788818,2445.343750 2681.260986,2460.317871 2680.019775,2475.093018 
	C2679.144531,2485.511230 2675.394775,2495.699219 2672.809570,2505.960449 
	C2664.791992,2537.784180 2662.081055,2570.052002 2664.229492,2602.789062 
	C2664.707520,2610.068115 2664.488770,2617.408691 2664.279541,2624.711914 
	C2664.129883,2629.928711 2665.077881,2634.537842 2668.866943,2638.406738 
	C2676.923340,2646.632324 2680.399658,2657.065918 2681.532959,2668.079834 
	C2682.764160,2680.044189 2686.887939,2688.668457 2699.387695,2692.701904 
	C2707.413574,2695.291504 2708.981689,2702.734619 2709.472900,2711.252197 
	C2710.482178,2728.751953 2700.604248,2739.493896 2688.840820,2749.712891 
	C2657.729736,2776.739502 2626.158691,2803.233643 2592.336426,2826.806885 
	C2581.262207,2834.525635 2568.818359,2840.450195 2556.550293,2846.239990 
	C2543.468750,2852.413574 2530.612549,2848.265625 2518.321289,2842.844482 
	C2507.808105,2838.207031 2499.147461,2831.083740 2492.222656,2821.810791 
	C2470.296875,2792.450439 2446.521484,2764.681885 2419.917969,2739.443848 
	C2379.688477,2701.279297 2334.701172,2670.554932 2281.711182,2652.749756 
	C2258.370117,2644.906494 2234.348145,2640.079102 2208.832520,2637.364746 
	C2207.928955,2635.678955 2207.958252,2634.828613 2207.987305,2633.978027 
z"/>
<path fill="#010101" opacity="1.000000" stroke="none" 
	d="
M2520.661133,681.329468 
	C2498.520508,650.562500 2471.582275,625.331909 2444.089355,600.640686 
	C2425.797852,584.213257 2407.119141,568.204041 2389.185547,551.397705 
	C2382.718262,545.336914 2377.666748,537.679626 2372.410889,530.430298 
	C2361.482910,515.357117 2350.871582,500.054749 2340.091797,484.873810 
	C2320.732178,457.609894 2312.084473,426.654999 2307.437256,393.980469 
	C2304.988770,376.766174 2308.120361,360.221741 2310.563232,343.628052 
	C2314.664062,315.771515 2308.990479,290.793549 2294.644287,266.567749 
	C2285.218262,250.650406 2273.594727,238.441360 2256.616455,231.733810 
	C2243.309326,226.476624 2232.560791,217.942932 2222.604492,208.075714 
	C2210.043945,195.627625 2196.405029,184.566452 2179.315918,175.032379 
	C2359.825195,175.032379 2538.621826,175.032379 2717.877197,175.032379 
	C2717.877197,1015.056885 2717.877197,1854.856567 2717.877197,2696.008301 
	C2711.884521,2688.455078 2705.302002,2683.137939 2696.903320,2679.973145 
	C2694.652832,2679.125244 2693.164551,2674.836182 2692.370605,2671.849121 
	C2690.927734,2666.421387 2690.574951,2660.708740 2689.208984,2655.254639 
	C2687.169434,2647.112305 2683.508545,2639.736572 2677.977783,2633.251709 
	C2676.203369,2631.170898 2674.527832,2628.174316 2674.491699,2625.573242 
	C2674.189697,2603.946045 2673.716553,2582.295166 2674.406982,2560.687012 
	C2675.173340,2536.705322 2680.675537,2513.448730 2687.405518,2490.463135 
	C2692.419434,2473.338867 2692.196289,2455.717285 2691.158203,2438.120361 
	C2690.729980,2430.855713 2689.977539,2423.588867 2688.939697,2416.385254 
	C2686.109131,2396.736816 2679.883301,2378.229492 2668.592773,2361.787109 
	C2659.172363,2348.067627 2655.687012,2332.819580 2655.713379,2316.585938 
	C2655.752441,2292.605957 2656.010254,2268.624756 2656.367920,2244.646973 
	C2656.674805,2224.071533 2657.605225,2203.500732 2657.642822,2182.926514 
	C2657.742432,2128.505615 2651.065918,2085.614502 2638.981201,2038.263306 
	C2629.121094,1999.629883 2622.398193,1960.468140 2615.929932,1921.251343 
	C2608.526611,1876.366211 2598.625977,1832.083862 2587.253418,1788.078369 
	C2580.526611,1762.050171 2573.875488,1735.993042 2567.834961,1709.800171 
	C2564.190918,1693.999756 2562.697266,1677.676758 2558.629150,1662.006104 
	C2550.212402,1629.583496 2540.693359,1597.447388 2531.712158,1565.170044 
	C2530.745117,1561.695190 2529.759033,1558.065186 2529.761963,1554.507935 
	C2529.777100,1536.194458 2529.237793,1517.821167 2530.489502,1499.578491 
	C2535.529297,1426.120361 2534.091553,1352.574097 2534.300049,1279.047852 
	C2534.325439,1270.067505 2534.201172,1261.063354 2533.563232,1252.111816 
	C2533.076416,1245.285400 2535.366943,1239.917725 2539.584473,1234.792480 
	C2552.457031,1219.149170 2565.185303,1203.386108 2577.848877,1187.572754 
	C2583.854004,1180.073730 2589.530762,1172.312378 2595.452148,1164.744751 
	C2603.831787,1154.035278 2612.431885,1143.495728 2620.675537,1132.683594 
	C2624.895508,1127.148560 2628.723877,1121.289429 2632.395508,1115.369995 
	C2635.259277,1110.753540 2636.187500,1105.832520 2635.125000,1100.132568 
	C2634.384521,1096.160156 2634.937988,1091.355103 2636.559570,1087.640991 
	C2642.136475,1074.868774 2639.349609,1063.807861 2631.475830,1053.126465 
	C2629.188477,1050.023438 2627.166748,1046.391479 2626.216553,1042.695068 
	C2622.666748,1028.887695 2619.276367,1015.019897 2616.486816,1001.042908 
	C2614.573730,991.456787 2616.492188,981.925598 2618.953125,972.536011 
	C2624.575195,951.085693 2623.603760,930.123901 2616.494385,908.873535 
	C2610.507812,890.979736 2606.372070,872.419617 2602.225098,853.972656 
	C2598.962646,839.460999 2596.887207,824.680054 2594.368896,810.004211 
	C2591.851074,795.331299 2585.514160,782.302734 2577.818848,769.722656 
	C2569.323975,755.836304 2561.773682,741.354980 2552.931885,727.702637 
	C2542.829834,712.104187 2531.758301,697.133484 2520.661133,681.329468 
z"/>
<path fill="#030303" opacity="1.000000" stroke="none" 
	d="
M376.686829,2809.309570 
	C387.836700,2817.775146 397.979340,2826.488770 409.123596,2833.642334 
	C422.409973,2842.170898 436.555054,2849.361816 449.876495,2856.877441 
	C444.312714,2858.770020 307.406128,2859.567871 290.836121,2857.492676 
	C290.836121,2816.182861 290.836121,2774.808105 290.836121,2732.645752 
	C311.284149,2758.695557 337.515717,2777.308594 361.997528,2797.840332 
	C366.571472,2801.676270 371.407837,2805.199219 376.686829,2809.309570 
z"/>
<path fill="#020202" opacity="1.000000" stroke="none" 
	d="
M2598.000488,2858.340088 
	C2584.030273,2858.340088 2571.059814,2858.340088 2558.089600,2858.340088 
	C2588.859619,2842.854736 2615.868408,2822.270996 2642.481689,2801.126709 
	C2668.845459,2780.179932 2696.480469,2760.614258 2717.748535,2733.142334 
	C2717.748535,2774.718750 2717.748535,2816.051270 2717.748535,2858.340088 
	C2678.069580,2858.340088 2638.534912,2858.340088 2598.000488,2858.340088 
z"/>
<path fill="#565656" opacity="1.000000" stroke="none" 
	d="
M2207.306396,2633.908691 
	C2207.958252,2634.828613 2207.928955,2635.678955 2208.000977,2637.164551 
	C2205.484131,2637.799316 2202.866211,2637.799316 2197.830566,2637.799316 
	C2202.169434,2635.845703 2204.397461,2634.842529 2207.306396,2633.908691 
z"/>
</svg>